<?xml version="1.0" encoding="utf-8"?>
<!-- Generator: Adobe Illustrator 25.0.0, SVG Export Plug-In . SVG Version: 6.00 Build 0)  -->
<svg version="1.1" id="圖層_1" xmlns="http://www.w3.org/2000/svg" xmlns:xlink="http://www.w3.org/1999/xlink" x="0px" y="0px"
	 viewBox="0 0 1755 585" style="enable-background:new 0 0 1755 585;" xml:space="preserve">
<style type="text/css">
	.st0{fill:none;stroke:#292929;stroke-width:15;stroke-linecap:round;}
	.st1{fill:#FFFFFF;stroke:#292929;stroke-width:7;stroke-linecap:round;}
	.st2{fill:#FFFFFF;stroke:#292929;stroke-width:8;}
	.st3{fill:#292929;}
	.st4{fill:none;stroke:#292929;stroke-width:8;stroke-linecap:round;}
	.st5{fill:#FFFFFF;}
	.st6{fill:none;stroke:#000000;stroke-width:2;stroke-linecap:round;}
	.st7{fill:#FFFFFF;stroke:#000000;stroke-width:2;stroke-linecap:round;}
	.st8{fill:none;stroke:#000000;stroke-width:3;stroke-linecap:round;}
	.st9{fill:#FFFFFF;stroke:#000000;stroke-width:3;stroke-linecap:round;}
	.st10{fill:#292929;stroke:#292929;stroke-width:2;stroke-linecap:round;}
</style>
<path class="st0" d="M319,414.7c0,0,3.7,28.5,6.5,45.8c2.9,17.8,8.5,42.7,8.5,42.7h-40"/>
<path class="st0" d="M235,414c0,0,4.2,27.5,7,44.8c2.9,17.8,8,43.7,8,43.7h-40"/>
<path class="st1" d="M408.7,197.7C408.7,197.7,408.8,197.7,408.7,197.7C408.8,197.7,408.7,197.7,408.7,197.7z M395.5,334.2
	C395.5,334.2,395.5,334.2,395.5,334.2C395.5,334.2,395.5,334.2,395.5,334.2z M406.2,331.4l-2.7-2.2L406.2,331.4
	c6.3-7.8,14.2-14.3,22.4-21c1.5-1.2,3-2.5,4.6-3.8c9.7-8,19.3-16.8,25.7-28.3c9.6-17.2,11-35.1,12.4-53.1c0.1-1.5,0.2-2.9,0.4-4.4
	c1.1-13.3,0.2-28.2-2.9-41.3c-2.4-10.2-7.8-18.3-16.8-24.5c-4.1-2.8-9-4.2-13.7-5c-4.7-0.7-9.6-0.8-13.7-0.9l-0.1,0
	c-1.4,0-3.8,0-6.1,0.4c-1.8,0.4-4.6,1.3-6.1,3.8c-3.4,2.2-4.8,6-5.4,9c-0.4,1.7-0.6,3.5-0.9,5.1c-0.2,1.6-0.4,2.9-0.6,3.9
	c-0.9,3.7-1,7.5-1.1,10.9c0,0.2,0,0.4,0,0.7c-0.1,3.7-0.2,6.9-1.1,9.7c-0.1,0.2-0.2,0.5-0.4,1.1l0,0.1c-0.2,0.5-0.5,1.3-0.7,1.9
	c-0.1,0.3-0.2,0.9-0.2,1.6c0,0.4,0.1,1,0.5,1.8c0.5,0.9,1.3,1.5,2.4,1.7c0.9,0.2,1.6,0,2-0.1c0.4-0.1,0.8-0.3,1-0.5
	c0.5-0.3,0.9-0.7,1.4-1c2.4-2.1,4.6-3.8,7.4-5.4c3.7-2.1,7.4-3.9,11-4.6c3.5-0.6,6.6-0.2,9.4,1.9c2.7,2,4.2,5.6,5,10.2
	c0.7,4.4,0.7,9.1,0.6,13.1c0,0.1,0,0.3,0,0.4c-0.2,15.4-7.7,29-17.2,42.5c-5.3,7.7-11.4,14.2-18.3,21c-6.8,6.7-12.5,13.2-14.2,23.4
	c-0.2,1.1-0.4,2.4-0.7,3.7c-0.7,3.6-1.4,7.7-1.8,11.6c-0.5,5.5-0.4,11.5,2,16.7c0.3,0.6,1.2,2.2,2.3,3.4c0.3,0.3,0.7,0.7,1.1,1
	c0.4,0.3,1.2,0.8,2.3,0.9c1.4,0.1,2.7-0.6,3.5-1.6c0.5-0.7,0.7-1.4,0.8-1.9c0,0,0-0.1,0.1-0.1c0.2-0.3,0.6-0.7,1.1-1.2
	c0.4-0.4,0.8-0.8,1.2-1.2c0.1-0.1,0.1-0.1,0.2-0.2C405.4,332.4,405.9,331.8,406.2,331.4z"/>
<path class="st2" d="M275.4,78c-37.3,0-72,4.8-99.4,12.8c-13.7,4-25.7,8.8-35.4,14.3c-9.6,5.5-17.1,11.8-21.5,18.8
	c-2.5,4.1-3.6,10.4-4,17.6c-0.4,7.4,0,16.6,0.9,26.8c1.7,20.5,5.5,45.7,9.7,71.5c2.1,12.5,4.2,25.1,6.3,37.3
	c2.2,13,4.4,25.6,6.3,37.3c3.7,22.6,6.2,41.1,6.2,51.6c0,24.4,21.1,40.1,47.4,49.4c26.6,9.4,60.6,13.1,90.4,12.3
	c28.3-0.7,58.7-4.7,81.5-15.1c11.4-5.2,21.2-12.1,27.8-21.3c6.6-9.2,9.9-20.4,8.5-33.8c-1.2-12-0.2-32.1,1.8-56.1
	c2.1-23.9,5.2-51.3,8.2-77.8l0-0.2c3-26.4,5.9-51.9,7.6-72c0.8-10.1,1.3-18.8,1.3-25.7c0-3.4-0.1-6.5-0.4-9
	c-0.3-2.4-0.7-4.7-1.5-6.5c-2.8-6-9.4-10.7-17.6-14.4c-8.4-3.8-19.4-7.1-32.1-9.7C342.1,80.9,309.4,78,275.4,78z"/>
<ellipse class="st3" cx="270.5" cy="127.7" rx="135.5" ry="34"/>
<path class="st4" d="M280,233.7l-39.5,19l39.5,19"/>
<path class="st4" d="M160,271.7l39.5-19l-39.5-19"/>
<path class="st0" d="M904,414.7c0,0-2.8,27.5,0,44.8c2.9,17.8,15,43.7,15,43.7h-40"/>
<path class="st0" d="M820,414c0,0-2.8,27.5,0,44.8c2.9,17.8,15,43.7,15,43.7h-40"/>
<path class="st1" d="M990.3,191C990.3,191,990.3,191,990.3,191C990.3,191,990.3,191,990.3,191z M985.1,328.1
	C985.1,328.1,985.1,328.1,985.1,328.1C985.1,328.1,985.1,328.1,985.1,328.1z M995.6,324.7l-2.8-2L995.6,324.7
	c5.8-8.1,13.3-15.1,21.1-22.3c1.4-1.3,2.9-2.7,4.3-4c9.2-8.6,18.3-17.9,24-29.7c8.5-17.7,8.9-35.6,9.2-53.7c0-1.5,0.1-3,0.1-4.4
	c0.3-13.3-1.5-28.1-5.3-41c-3-10-8.8-17.8-18.2-23.5c-4.3-2.6-9.2-3.7-14-4.2s-9.6-0.3-13.7-0.1l-0.1,0c-1.4,0.1-3.8,0.2-6.1,0.8
	c-1.8,0.5-4.5,1.6-5.8,4.2c-3.3,2.4-4.4,6.2-4.9,9.3c-0.3,1.8-0.4,3.6-0.6,5.1c-0.1,1.6-0.2,2.9-0.4,3.9c-0.7,3.8-0.6,7.6-0.4,11
	c0,0.2,0,0.4,0,0.7c0.1,3.7,0.2,6.9-0.5,9.8c0,0.2-0.1,0.5-0.3,1.1l0,0.1c-0.2,0.5-0.4,1.3-0.6,2c-0.1,0.3-0.2,0.9-0.1,1.6
	c0,0.4,0.2,1,0.6,1.7c0.5,0.8,1.4,1.4,2.5,1.6c0.9,0.1,1.6-0.1,2-0.2c0.4-0.2,0.7-0.4,1-0.5c0.5-0.3,0.9-0.7,1.3-1.1
	c2.3-2.3,4.4-4.1,7-5.8c3.5-2.3,7.2-4.3,10.7-5.2c3.4-0.8,6.6-0.6,9.5,1.3c2.8,1.9,4.5,5.3,5.6,9.9c1,4.4,1.2,9.1,1.4,13
	c0,0.1,0,0.3,0,0.4c0.7,15.4-6,29.4-14.6,43.5c-4.9,8-10.6,14.8-17,22.1c-6.3,7.1-11.7,13.9-12.8,24.2c-0.1,1.2-0.3,2.4-0.4,3.8
	c-0.4,3.6-1,7.7-1.1,11.7c-0.2,5.5,0.3,11.5,3,16.5c0.3,0.5,1.3,2.1,2.5,3.2c0.3,0.3,0.7,0.7,1.2,1c0.4,0.3,1.3,0.7,2.4,0.8
	c1.4,0,2.7-0.7,3.4-1.8c0.4-0.7,0.6-1.4,0.7-2c0,0,0-0.1,0.1-0.1c0.2-0.3,0.6-0.8,1-1.3c0.4-0.4,0.7-0.9,1.1-1.3
	c0.1-0.1,0.1-0.2,0.2-0.2C994.8,325.7,995.3,325.1,995.6,324.7z"/>
<path class="st2" d="M850.2,79.4c-37.2,2.2-71.6,9-98.5,18.6c-13.5,4.8-25.2,10.3-34.5,16.4c-9.2,6-16.4,12.8-20.3,20.1
	c-2.3,4.2-3,10.6-2.9,17.9c0.1,7.4,1,16.5,2.4,26.7c2.9,20.3,8.2,45.3,13.9,70.8c2.8,12.4,5.7,24.8,8.5,36.9
	c3,12.8,5.9,25.3,8.5,36.8c5,22.4,8.6,40.7,9.2,51.1c1.4,24.4,23.4,38.8,50.2,46.5c27.2,7.8,61.3,9.5,91,7
	c28.2-2.3,58.3-8.2,80.4-19.9c11.1-5.9,20.4-13.4,26.5-22.9c6.1-9.6,8.6-21,6.5-34.2c-1.9-11.9-2.1-32-1.5-56.1
	c0.7-24,2.2-51.5,3.6-78.2l0-0.2c1.5-26.5,2.9-52.2,3.3-72.3c0.2-10.1,0.2-18.9-0.2-25.8c-0.2-3.4-0.5-6.5-0.9-9
	c-0.4-2.4-1-4.7-1.9-6.4c-3.1-5.8-10-10.1-18.5-13.4c-8.7-3.3-19.8-5.9-32.6-7.8C916.9,78.3,884.1,77.4,850.2,79.4z"/>
<ellipse transform="matrix(0.9983 -5.876243e-02 5.876243e-02 0.9983 -6.1304 50.0648)" class="st3" cx="848.2" cy="129.3" rx="135.5" ry="34"/>
<path class="st4" d="M863.9,234.5l-38.3,21.3l40.5,16.6"/>
<path class="st4" d="M746.3,279.5l38.3-21.3l-40.5-16.6"/>
<path class="st5" d="M1024.4,89c-1.3,1.2-2.5,2.5-3.7,3.9c1.6-0.7,3.8,0.1,5.1,0.5c2.7,0.7,4.6,2.4,7.7,0.9c3.2-1.4,3.7-5.1,1.5-6.9
	c-1.1-0.9-2.4-1.1-3.9-1.2c-1.2,0-2.6,0.1-3.8,0.6C1026.2,87.3,1025.2,88.2,1024.4,89z"/>
<path class="st6" d="M1020.3,93.2c1.3-1.4,2.6-2.9,4-4.2c0.9-0.8,1.8-1.7,2.9-2.2c1.2-0.5,2.6-0.7,3.8-0.6c1.5,0.1,2.8,0.3,3.9,1.2
	c2.2,1.8,1.7,5.5-1.5,6.9c-3.1,1.4-5.1-0.3-7.7-0.9c-1.4-0.4-3.7-1.3-5.3-0.4"/>
<path class="st7" d="M1036.5,63.1c-5.2,3.8-8.7,10-12.1,15.3c2.2-1,4.1-1.7,6.5-2c3.9-0.5,7.8,0.3,11.6-0.6c3.1-0.8,5.5-2.5,6.9-5.6
	c1.2-2.6,0.9-6-0.6-7.9c-1.5-1.8-5.1-2.4-7.5-1.4C1039.6,61.5,1037.9,62.1,1036.5,63.1z"/>
<path class="st0" d="M1489,414.7c0,0-14.8,28-12,45.3c2.9,17.8,27,43.2,27,43.2h-40"/>
<path class="st0" d="M1405,414c0,0-12.3,28.7-9.5,46c2.9,17.8,24.5,42.5,24.5,42.5h-40"/>
<path class="st1" d="M1536.3,179.5C1536.3,179.5,1536.3,179.4,1536.3,179.5C1536.3,179.4,1536.3,179.5,1536.3,179.5z M1552.3,315.7
	C1552.3,315.7,1552.3,315.7,1552.3,315.7C1552.3,315.7,1552.3,315.7,1552.3,315.7z M1562.1,310.7l-3.1-1.6L1562.1,310.7
	c4.5-8.9,10.9-17,17.5-25.3c1.2-1.5,2.4-3.1,3.7-4.6c7.7-9.9,15.3-20.5,19.2-33.1c5.7-18.8,3.3-36.6,0.9-54.5
	c-0.2-1.5-0.4-2.9-0.6-4.4c-1.8-13.2-5.8-27.6-11.6-39.7c-4.5-9.4-11.4-16.2-21.6-20.4c-4.6-1.9-9.7-2.2-14.4-2
	c-4.8,0.3-9.5,1.2-13.6,2.1l-0.1,0c-1.3,0.3-3.7,0.8-5.9,1.7c-1.7,0.8-4.2,2.3-5.1,5c-2.9,2.8-3.4,6.8-3.4,9.9
	c0,1.8,0.1,3.6,0.2,5.2c0.1,1.6,0.2,2.9,0.2,4c-0.1,3.8,0.6,7.6,1.2,10.9c0,0.2,0.1,0.4,0.1,0.6c0.7,3.6,1.2,6.8,1,9.8
	c0,0.2-0.1,0.5-0.2,1.1l0,0.1c-0.1,0.5-0.2,1.3-0.3,2.1c0,0.3,0,0.9,0.1,1.6c0.1,0.3,0.3,1,0.9,1.6c0.7,0.7,1.6,1.2,2.7,1.2
	c0.9,0,1.6-0.3,1.9-0.5c0.4-0.2,0.7-0.5,0.9-0.7c0.4-0.4,0.8-0.8,1.1-1.3c1.9-2.6,3.7-4.7,6.1-6.9c3.1-2.8,6.4-5.4,9.8-6.8
	c3.3-1.4,6.4-1.6,9.5-0.1c3,1.4,5.3,4.6,7,8.9c1.7,4.2,2.6,8.8,3.4,12.7c0,0.1,0.1,0.3,0.1,0.4c3,15.1-1.4,30-7.8,45.2
	c-3.6,8.6-8.2,16.3-13.4,24.4c-5.2,8-9.4,15.6-8.9,25.9c0.1,1.2,0.1,2.4,0.1,3.8c0.1,3.6,0.2,7.8,0.7,11.8
	c0.7,5.5,2.1,11.4,5.5,15.9c0.4,0.5,1.7,1.9,2.9,2.8c0.3,0.2,0.8,0.5,1.3,0.8c0.4,0.2,1.4,0.5,2.5,0.4c1.4-0.2,2.5-1.1,3.1-2.4
	c0.3-0.7,0.4-1.5,0.4-2.1c0,0,0-0.1,0-0.1c0.2-0.4,0.4-0.9,0.8-1.4c0.3-0.5,0.6-1,0.9-1.5c0-0.1,0.1-0.2,0.2-0.3
	C1561.5,311.8,1561.9,311.2,1562.1,310.7z"/>
<path class="st2" d="M1380.7,90.7c-36.4,7.9-69.3,19.9-94.5,33.5c-12.6,6.8-23.3,14.1-31.5,21.5c-8.2,7.4-14.2,15.1-17,22.9
	c-1.6,4.5-1.3,11-0.1,18.1c1.2,7.3,3.5,16.2,6.5,26c6,19.6,15,43.5,24.6,67.8c4.7,11.8,9.4,23.6,14.1,35.1
	c4.9,12.2,9.7,24.1,14,35.1c8.4,21.3,14.8,38.9,17,49.1c5.2,23.8,29.1,34.7,56.8,38.2c28,3.6,62-0.1,91-7.1
	c27.5-6.7,56.3-17,76.4-32c10.1-7.5,18.2-16.3,22.7-26.7c4.5-10.4,5.3-22.1,1.2-34.8c-3.7-11.5-7-31.3-10.1-55.2
	c-3-23.8-5.8-51.2-8.4-77.8l0-0.2c-2.6-26.4-5.2-52-7.8-71.9c-1.3-10-2.7-18.7-4.1-25.4c-0.7-3.4-1.5-6.3-2.3-8.7
	c-0.8-2.3-1.7-4.5-2.8-6.1c-4-5.3-11.4-8.4-20.3-10.4c-9.1-2-20.5-2.8-33.4-2.7C1446.4,79.4,1413.9,83.5,1380.7,90.7z"/>
<ellipse transform="matrix(0.9773 -0.2116 0.2116 0.9773 1.712 296.6065)" class="st3" cx="1386.4" cy="140.3" rx="135.5" ry="34"/>
<path class="st4" d="M1418.1,241.9l-34.6,26.9l42.6,10.2"/>
<path class="st4" d="M1308.9,304.4l34.6-26.9l-42.6-10.2"/>
<path class="st5" d="M1617.3,92.3c-3.8,2.5-7.3,5.2-10.8,8c4.3-1.1,9.2,2,12.5,3.4c6.3,2.8,10.3,7.8,18.7,5.6
	c8.5-2.2,11.2-11,6.6-16.4c-2.3-2.6-5.4-3.8-9-4.6c-3-0.6-6.4-0.9-9.7-0.1C1622.5,88.8,1619.8,90.6,1617.3,92.3z"/>
<path class="st8" d="M1605.4,101c3.9-3,7.7-6,11.8-8.7c2.5-1.6,5.3-3.5,8.2-4.1c3.3-0.7,6.7-0.5,9.7,0.1c3.6,0.8,6.7,2,9,4.6
	c4.6,5.4,2,14.2-6.6,16.4c-8.4,2.2-12.4-2.8-18.7-5.6c-3.4-1.5-8.6-4.8-13-3.2"/>
<path class="st9" d="M1631.3,36.2c-9.5,6.9-15.8,18-21.9,27.6c4-1.8,7.4-3,11.7-3.6c7-0.9,14,0.6,21-1.2c5.6-1.4,10-4.5,12.6-10
	c2.1-4.6,1.6-10.9-1.2-14.2c-2.6-3.2-9.3-4.3-13.6-2.6C1636.9,33.2,1633.9,34.2,1631.3,36.2z"/>
<path class="st10" d="M1251,186.4c2.7-3.9,9.7-11.2,6.2-16c6.6,1.4,12.7,4.4,19.4,5.4c2.5,0.4,4.8,1.4,7.2,1.9
	c6,1.2,12.1,2.2,18,3.5c0.4,0.1,7,2,4.4,3.1c-0.6,0.3-1.6,0.4-2.1,0.8c-1.4,1-2.9,0.8-4.2,2.1c-1.8,1.8-2.6,4.4-4.6,5.9
	c-1.7,1.3-3.3,0.9-4.9,0.3c-1.1-0.4-1-1.7-0.9-3.1c0.1-1.5,0.5-3.2,0-4.6c-0.5-1.3-3-3.8-4.6-2.6c-3.2,2.5-3.7,7-8.4,5.8
	c-3.3-0.9-2.5-2.4-2.8-5.8c-0.2-1.7-0.8-2.4-2.1-2.9c-2.1-0.8-4.9,3.4-6.3,5.1c-0.9,1-1.6,2.4-2.4,3.6c-0.9,1.3-1.9,2.2-2.9,3.3
	c-2.1,2.5-5.2,2.4-7.5,1.5C1249.4,192.3,1248.6,190,1251,186.4z"/>
</svg>
