<svg width="1755" height="585" viewBox="0 0 1755 585" fill="none" xmlns="http://www.w3.org/2000/svg">
<path d="M319 414.682C319 414.682 322.662 443.229 325.5 460.5C328.425 478.298 334 503.182 334 503.182H294" stroke="#292929" stroke-width="15" stroke-linecap="round"/>
<path d="M235 414C235 414 239.162 441.548 242 458.819C244.925 476.616 250 502.5 250 502.5H210" stroke="#292929" stroke-width="15" stroke-linecap="round"/>
<path d="M408.749 197.675C408.748 197.676 408.751 197.663 408.758 197.636C408.753 197.661 408.749 197.675 408.749 197.675ZM395.535 334.2C395.529 334.248 395.526 334.243 395.535 334.198C395.535 334.198 395.535 334.199 395.535 334.2ZM406.209 331.401L403.519 329.215L406.209 331.401C412.529 323.62 420.419 317.134 428.627 310.385C430.139 309.143 431.661 307.891 433.186 306.621C442.844 298.58 452.512 289.863 458.927 278.338C468.479 261.175 469.888 243.288 471.308 225.256C471.424 223.783 471.54 222.308 471.661 220.832C472.745 207.579 471.837 192.673 468.753 179.572C466.362 169.418 460.991 161.305 451.931 155.03C447.824 152.186 442.952 150.785 438.233 150.056C433.508 149.326 428.669 149.234 424.537 149.188L424.482 149.187C423.119 149.172 420.664 149.144 418.362 149.635C416.531 150.025 413.779 150.965 412.287 153.447C408.881 155.625 407.533 159.415 406.844 162.42C406.443 164.168 406.199 165.966 405.991 167.506C405.773 169.129 405.601 170.399 405.356 171.414C404.459 175.126 404.358 178.948 404.269 182.327C404.263 182.546 404.257 182.764 404.252 182.98C404.151 186.67 404.003 189.833 403.134 192.723C403.083 192.891 402.961 193.196 402.725 193.782L402.688 193.874C402.486 194.378 402.179 195.143 401.997 195.821C401.919 196.113 401.764 196.733 401.797 197.434C401.813 197.791 401.889 198.476 402.306 199.195C402.799 200.046 403.64 200.707 404.692 200.938C405.587 201.135 406.33 200.953 406.719 200.826C407.139 200.688 407.483 200.502 407.722 200.357C408.2 200.067 408.663 199.692 409.084 199.318C411.476 197.198 413.718 195.475 416.445 193.892C420.101 191.77 423.86 189.981 427.438 189.313C430.903 188.667 434.012 189.096 436.799 191.201C439.459 193.211 441.012 196.769 441.788 201.384C442.529 205.795 442.458 210.511 442.398 214.467C442.396 214.601 442.394 214.734 442.392 214.866C442.164 230.236 434.647 243.91 425.232 257.385C419.884 265.039 413.822 271.554 406.952 278.405C400.2 285.138 394.482 291.639 392.78 301.854C392.589 303.001 392.358 304.259 392.113 305.593C391.462 309.149 390.711 313.245 390.342 317.232C389.835 322.731 389.956 328.762 392.337 333.892C392.599 334.456 393.554 336.084 394.612 337.251C394.896 337.565 395.275 337.944 395.732 338.276C396.126 338.562 396.948 339.091 398.073 339.171C399.519 339.275 400.798 338.599 401.578 337.525C402.056 336.867 402.281 336.159 402.395 335.594C402.418 335.562 402.444 335.525 402.474 335.484C402.713 335.158 403.076 334.736 403.539 334.236C403.926 333.819 404.327 333.408 404.724 333C404.797 332.925 404.869 332.851 404.941 332.777C405.355 332.351 405.862 331.829 406.209 331.401Z" fill="white" stroke="#292929" stroke-width="7" stroke-linecap="round"/>
<path d="M275.397 78C238.124 78 203.414 82.7764 175.957 90.7729C162.23 94.7706 150.225 99.5997 140.589 105.101C131.001 110.574 123.488 116.867 119.102 123.921C116.565 128.001 115.501 134.349 115.143 141.569C114.775 149 115.136 158.127 115.995 168.349C117.715 188.805 121.473 214.087 125.698 239.812C127.759 252.36 129.913 264.914 132.004 277.101C134.232 290.089 136.389 302.659 138.285 314.357C141.952 336.995 144.486 355.486 144.486 365.908C144.486 390.303 165.576 405.988 191.873 415.279C218.521 424.694 252.47 428.341 282.302 427.628C310.618 426.951 340.971 422.91 363.763 412.513C375.191 407.3 384.96 400.381 391.543 391.251C398.186 382.035 401.398 370.816 400.06 357.466C398.857 345.47 399.818 325.393 401.891 301.402C403.956 277.516 407.087 250.103 410.117 223.594L410.143 223.37C413.159 196.979 416.074 171.474 417.706 151.403C418.523 141.343 419.025 132.566 419.049 125.685C419.061 122.246 418.954 119.209 418.692 116.685C418.44 114.255 418.013 111.938 417.195 110.165C414.434 104.174 407.795 99.494 399.546 95.7503C391.101 91.9179 380.116 88.6908 367.448 86.0825C342.086 80.8603 309.389 78 275.397 78Z" fill="white" stroke="#292929" stroke-width="8"/>
<ellipse cx="270.5" cy="127.681" rx="135.5" ry="34" fill="#292929"/>
<path d="M280 233.681L240.5 252.681L280 271.681" stroke="#292929" stroke-width="8" stroke-linecap="round"/>
<path d="M160 271.681L199.5 252.681L160 233.681" stroke="#292929" stroke-width="8" stroke-linecap="round"/>
<path d="M154.375 134.36C156.751 130.527 162.88 123.34 160.366 119.045C165.613 119.963 170.405 122.409 175.802 122.936C177.793 123.13 179.592 123.981 181.558 124.286C186.365 125.034 191.228 125.62 195.996 126.505C196.307 126.563 201.577 127.955 199.398 129.14C198.903 129.409 198.066 129.63 197.656 129.97C196.469 130.956 195.265 130.85 194.125 132.183C192.602 133.964 191.74 136.4 190.03 137.99C188.614 139.307 187.316 139.003 186.072 138.505C185.19 138.152 185.394 136.929 185.528 135.699C185.681 134.288 186.101 132.684 185.772 131.426C185.455 130.214 183.537 128.097 182.19 129.313C179.435 131.802 178.765 136.095 175.048 135.193C172.387 134.548 173.132 133.057 173.079 129.949C173.052 128.367 172.592 127.76 171.549 127.342C169.91 126.686 167.374 130.823 166.119 132.465C165.335 133.492 164.687 134.834 163.949 135.945C163.122 137.189 162.24 138.076 161.365 139.238C159.516 141.692 156.998 141.754 155.185 141.027C152.717 140.039 152.153 137.945 154.375 134.36Z" fill="#292929" stroke="#292929" stroke-width="2" stroke-linecap="round"/>
<path d="M904 414.681C904 414.681 901.162 442.229 904 459.5C906.925 477.298 919 503.181 919 503.181H879" stroke="#292929" stroke-width="15" stroke-linecap="round"/>
<path d="M820 414C820 414 817.162 441.548 820 458.819C822.925 476.616 835 502.5 835 502.5H795" stroke="#292929" stroke-width="15" stroke-linecap="round"/>
<path d="M990.308 191.016C990.307 191.017 990.309 191.004 990.315 190.977C990.311 191.002 990.308 191.016 990.308 191.016ZM985.139 328.082C985.136 328.129 985.133 328.124 985.14 328.079C985.14 328.08 985.14 328.081 985.139 328.082ZM995.631 324.659L992.817 322.636L995.631 324.659C1001.48 316.521 1008.98 309.583 1016.78 302.363C1018.21 301.034 1019.66 299.695 1021.11 298.338C1030.27 289.743 1039.41 280.473 1045.14 268.591C1053.67 250.896 1054.02 232.957 1054.38 214.873C1054.41 213.395 1054.44 211.916 1054.47 210.436C1054.78 197.142 1052.99 182.315 1049.14 169.418C1046.16 159.422 1040.32 151.639 1030.91 145.907C1026.64 143.309 1021.7 142.197 1016.94 141.746C1012.18 141.295 1007.35 141.488 1003.22 141.685L1003.16 141.687C1001.8 141.752 999.351 141.869 997.081 142.494C995.276 142.991 992.585 144.091 991.241 146.656C987.969 149.031 986.846 152.893 986.335 155.934C986.037 157.702 985.899 159.511 985.783 161.06C985.66 162.693 985.563 163.972 985.378 165C984.7 168.758 984.824 172.58 984.934 175.957C984.941 176.177 984.948 176.394 984.955 176.61C985.071 180.299 985.11 183.466 984.412 186.402C984.371 186.573 984.267 186.884 984.066 187.484L984.035 187.577C983.862 188.092 983.601 188.874 983.459 189.562C983.398 189.858 983.28 190.485 983.354 191.184C983.391 191.539 983.507 192.218 983.965 192.912C984.508 193.732 985.386 194.343 986.45 194.512C987.355 194.655 988.086 194.43 988.467 194.28C988.878 194.118 989.21 193.912 989.44 193.753C989.901 193.435 990.341 193.034 990.739 192.636C993.002 190.379 995.139 188.527 997.769 186.787C1001.29 184.454 1004.94 182.447 1008.47 181.57C1011.89 180.721 1015.02 180.967 1017.93 182.905C1020.7 184.755 1022.46 188.215 1023.51 192.777C1024.51 197.137 1024.71 201.849 1024.89 205.801C1024.89 205.935 1024.9 206.068 1024.9 206.2C1025.58 221.557 1018.88 235.648 1010.27 249.654C1005.38 257.609 999.714 264.469 993.258 271.712C986.913 278.83 981.587 285.656 980.488 295.953C980.365 297.109 980.209 298.379 980.043 299.725C979.601 303.312 979.092 307.446 978.959 311.447C978.775 316.967 979.251 322.981 981.929 327.961C982.224 328.509 983.273 330.079 984.397 331.181C984.699 331.478 985.1 331.834 985.576 332.139C985.985 332.401 986.838 332.88 987.965 332.895C989.415 332.913 990.652 332.164 991.368 331.045C991.806 330.361 991.989 329.641 992.07 329.07C992.09 329.036 992.114 328.998 992.142 328.955C992.361 328.616 992.699 328.173 993.132 327.647C993.494 327.208 993.87 326.774 994.242 326.343C994.31 326.264 994.378 326.186 994.446 326.108C994.834 325.658 995.309 325.107 995.631 324.659Z" fill="white" stroke="#292929" stroke-width="7" stroke-linecap="round"/>
<path d="M850.154 79.3835C812.945 81.5738 778.575 88.3816 751.636 97.9777C738.168 102.775 726.467 108.301 717.171 114.359C707.921 120.386 700.791 127.11 696.827 134.409C694.534 138.632 693.845 145.031 693.912 152.26C693.982 159.699 694.878 168.79 696.336 178.943C699.255 199.262 704.493 224.28 710.222 249.713C713.016 262.118 715.904 274.524 718.708 286.566C721.696 299.401 724.587 311.823 727.167 323.389C732.159 345.772 735.775 364.082 736.387 374.486C737.821 398.839 759.796 413.259 786.593 420.988C813.749 428.821 847.853 430.467 877.591 428.002C905.819 425.662 935.882 419.844 958.024 408.126C969.126 402.251 978.471 394.769 984.506 385.268C990.596 375.678 993.143 364.29 991.023 351.041C989.117 339.136 988.897 319.038 989.557 294.967C990.214 271 991.729 243.451 993.196 216.81L993.209 216.585C994.669 190.061 996.08 164.429 996.529 144.297C996.754 134.207 996.74 125.416 996.359 118.544C996.169 115.111 995.884 112.086 995.474 109.581C995.079 107.17 994.517 104.882 993.597 103.161C990.488 97.3418 983.586 93.0604 975.131 89.8078C966.475 86.4783 955.319 83.9024 942.521 82.0429C916.896 78.3201 884.087 77.3861 850.154 79.3835Z" fill="white" stroke="#292929" stroke-width="8"/>
<ellipse cx="848.185" cy="129.267" rx="135.5" ry="34" transform="rotate(-3.36878 848.185 129.267)" fill="#292929"/>
<path d="M863.897 234.526L825.581 255.814L866.13 272.46" stroke="#292929" stroke-width="8" stroke-linecap="round"/>
<path d="M746.338 279.511L784.653 258.223L744.105 241.577" stroke="#292929" stroke-width="8" stroke-linecap="round"/>
<path d="M1024.38 88.9865C1023.07 90.2173 1021.87 91.5357 1020.67 92.8608C1022.3 92.1261 1024.42 93.0036 1025.8 93.3513C1028.47 94.0228 1030.39 95.7105 1033.53 94.288C1036.73 92.8394 1037.18 89.1813 1034.99 87.3871C1033.91 86.5053 1032.61 86.2455 1031.13 86.1923C1029.9 86.1482 1028.54 86.2955 1027.31 86.8056C1026.21 87.2584 1025.25 88.1734 1024.38 88.9865Z" fill="white"/>
<path d="M1020.33 93.2252C1021.65 91.778 1022.95 90.33 1024.38 88.9865C1025.25 88.1734 1026.21 87.2584 1027.31 86.8056C1028.54 86.2955 1029.9 86.1482 1031.13 86.1923C1032.61 86.2455 1033.91 86.5053 1034.99 87.3871C1037.18 89.1813 1036.73 92.8394 1033.53 94.288C1030.39 95.7105 1028.47 94.0228 1025.8 93.3513C1024.36 92.9885 1022.11 92.0488 1020.46 92.9659" stroke="black" stroke-width="2" stroke-linecap="round"/>
<path d="M1036.48 63.1337C1031.25 66.9739 1027.76 73.0859 1024.34 78.3889C1026.56 77.3765 1028.44 76.7273 1030.8 76.4222C1034.68 75.9234 1038.57 76.742 1042.4 75.7784C1045.49 75.0024 1047.93 73.2968 1049.34 70.2222C1050.52 67.6644 1050.24 64.2184 1048.7 62.3572C1047.24 60.5875 1043.57 59.9926 1041.19 60.9107C1039.58 61.5282 1037.94 62.0645 1036.48 63.1337Z" fill="white" stroke="black" stroke-width="2" stroke-linecap="round"/>
<path d="M730.375 143.36C732.751 139.527 738.88 132.34 736.366 128.045C741.613 128.963 746.405 131.409 751.802 131.936C753.793 132.13 755.592 132.981 757.558 133.286C762.365 134.034 767.228 134.62 771.996 135.505C772.307 135.563 777.577 136.955 775.398 138.14C774.903 138.409 774.066 138.63 773.656 138.97C772.469 139.956 771.265 139.85 770.125 141.183C768.602 142.964 767.74 145.4 766.03 146.99C764.614 148.307 763.316 148.003 762.072 147.505C761.19 147.152 761.394 145.929 761.528 144.699C761.681 143.288 762.101 141.684 761.772 140.426C761.455 139.214 759.537 137.097 758.19 138.313C755.435 140.802 754.765 145.095 751.048 144.193C748.387 143.548 749.132 142.057 749.079 138.949C749.052 137.367 748.592 136.76 747.549 136.342C745.91 135.686 743.374 139.823 742.119 141.465C741.335 142.492 740.687 143.834 739.949 144.945C739.122 146.189 738.24 147.076 737.365 148.238C735.516 150.692 732.998 150.754 731.185 150.027C728.717 149.039 728.153 146.945 730.375 143.36Z" fill="#292929" stroke="#292929" stroke-width="2" stroke-linecap="round"/>
<path d="M1489 414.682C1489 414.682 1474.16 442.729 1477 460C1479.92 477.798 1504 503.182 1504 503.182H1464" stroke="#292929" stroke-width="15" stroke-linecap="round"/>
<path d="M1405 414C1405 414 1392.66 442.729 1395.5 460C1398.42 477.798 1420 502.5 1420 502.5H1380" stroke="#292929" stroke-width="15" stroke-linecap="round"/>
<path d="M1536.32 179.454C1536.32 179.455 1536.32 179.442 1536.32 179.414C1536.32 179.44 1536.32 179.454 1536.32 179.454ZM1552.3 315.683C1552.3 315.731 1552.3 315.726 1552.3 315.68C1552.3 315.681 1552.3 315.682 1552.3 315.683ZM1562.14 310.688L1559.05 309.121L1562.14 310.687C1566.67 301.746 1573.01 293.737 1579.6 285.404C1580.82 283.869 1582.04 282.324 1583.26 280.76C1591 270.856 1598.6 260.291 1602.43 247.67C1608.14 228.873 1605.73 211.093 1603.3 193.17C1603.1 191.705 1602.9 190.239 1602.71 188.771C1600.96 175.589 1596.92 161.213 1591.13 149.061C1586.65 139.643 1579.68 132.851 1569.5 128.636C1564.88 126.725 1559.82 126.387 1555.06 126.673C1550.28 126.959 1545.54 127.894 1541.49 128.723L1541.43 128.735C1540.1 129.008 1537.69 129.501 1535.55 130.468C1533.84 131.236 1531.35 132.737 1530.42 135.479C1527.55 138.328 1527.03 142.318 1527 145.401C1526.97 147.194 1527.12 149.003 1527.24 150.552C1527.37 152.184 1527.47 153.462 1527.45 154.506C1527.35 158.324 1528.06 162.081 1528.69 165.402C1528.73 165.617 1528.77 165.831 1528.81 166.043C1529.5 169.671 1530.02 172.794 1529.78 175.802C1529.77 175.977 1529.71 176.301 1529.61 176.924L1529.59 177.021C1529.5 177.557 1529.36 178.369 1529.33 179.071C1529.31 179.373 1529.29 180.011 1529.47 180.69C1529.57 181.035 1529.78 181.688 1530.34 182.303C1531.01 183.03 1531.97 183.499 1533.05 183.502C1533.96 183.504 1534.65 183.169 1535 182.963C1535.38 182.739 1535.68 182.485 1535.88 182.292C1536.29 181.907 1536.66 181.443 1536.99 180.989C1538.88 178.411 1540.71 176.252 1543.04 174.128C1546.16 171.28 1549.46 168.736 1552.81 167.326C1556.07 165.961 1559.19 165.722 1562.36 167.19C1565.39 168.591 1567.66 171.74 1569.39 176.086C1571.05 180.241 1571.98 184.865 1572.76 188.743C1572.79 188.874 1572.81 189.005 1572.84 189.135C1575.87 204.205 1571.42 219.16 1565.07 234.323C1561.46 242.935 1556.91 250.586 1551.65 258.736C1546.48 266.745 1542.26 274.309 1542.76 284.652C1542.82 285.814 1542.86 287.092 1542.9 288.448C1543.02 292.061 1543.15 296.224 1543.63 300.198C1544.3 305.68 1545.7 311.549 1549.11 316.058C1549.48 316.554 1550.76 317.943 1552.04 318.86C1552.39 319.106 1552.84 319.397 1553.36 319.625C1553.8 319.821 1554.72 320.163 1555.83 320.004C1557.27 319.799 1558.37 318.868 1558.91 317.653C1559.24 316.909 1559.31 316.17 1559.3 315.593C1559.31 315.557 1559.33 315.516 1559.35 315.469C1559.52 315.1 1559.78 314.61 1560.13 314.024C1560.42 313.535 1560.72 313.048 1561.03 312.565C1561.08 312.477 1561.14 312.389 1561.19 312.301C1561.51 311.797 1561.89 311.179 1562.14 310.688Z" fill="white" stroke="#292929" stroke-width="7" stroke-linecap="round"/>
<path d="M1380.66 90.7137C1344.23 98.6024 1311.32 110.617 1286.17 124.244C1273.61 131.056 1262.89 138.317 1254.64 145.732C1246.43 153.111 1240.42 160.851 1237.62 168.674C1236.01 173.199 1236.31 179.628 1237.49 186.76C1238.7 194.1 1240.99 202.945 1243.99 212.753C1250 232.381 1259.02 256.295 1268.6 280.544C1273.27 292.371 1278.03 304.185 1282.65 315.653C1287.58 327.875 1292.35 339.704 1296.68 350.736C1305.05 372.084 1311.44 389.62 1313.65 399.806C1318.81 423.649 1342.74 434.515 1370.41 438.03C1398.45 441.592 1432.4 437.971 1461.41 430.96C1488.94 424.305 1517.75 413.931 1537.82 398.946C1547.89 391.433 1555.97 382.602 1560.47 372.286C1565.01 361.873 1565.78 350.228 1561.65 337.464C1557.93 325.994 1554.62 306.169 1551.57 282.283C1548.53 258.5 1545.79 231.046 1543.14 204.497L1543.12 204.272C1540.48 177.84 1537.93 152.296 1535.28 132.334C1533.95 122.33 1532.58 113.645 1531.15 106.914C1530.43 103.551 1529.69 100.606 1528.89 98.1938C1528.13 95.8726 1527.23 93.6985 1526.05 92.1387C1522.09 86.8675 1514.61 83.6988 1505.75 81.7859C1496.69 79.8277 1485.27 78.9988 1472.34 79.1306C1446.44 79.3945 1413.88 83.5193 1380.66 90.7137Z" fill="white" stroke="#292929" stroke-width="8"/>
<ellipse cx="1386.39" cy="140.306" rx="135.5" ry="34" transform="rotate(-12.219 1386.39 140.306)" fill="#292929"/>
<path d="M1418.11 241.894L1383.52 268.824L1426.15 279.033" stroke="#292929" stroke-width="8" stroke-linecap="round"/>
<path d="M1308.87 304.431L1343.45 277.501L1300.83 267.292" stroke="#292929" stroke-width="8" stroke-linecap="round"/>
<path d="M1617.27 92.2753C1613.51 94.7532 1609.97 97.4923 1606.43 100.249C1610.77 99.1345 1615.64 102.213 1618.9 103.666C1625.21 106.47 1629.21 111.461 1637.58 109.297C1646.11 107.093 1648.79 98.2509 1644.15 92.8789C1641.87 90.2388 1638.76 89.0373 1635.13 88.2701C1632.11 87.6336 1628.7 87.4156 1625.43 88.1448C1622.53 88.7921 1619.75 90.638 1617.27 92.2753Z" fill="white"/>
<path d="M1605.45 101.007C1609.32 97.9965 1613.16 94.9803 1617.27 92.2753C1619.75 90.638 1622.53 88.7921 1625.43 88.1448C1628.7 87.4156 1632.11 87.6336 1635.13 88.2701C1638.76 89.0373 1641.87 90.2388 1644.15 92.8789C1648.79 98.2509 1646.11 107.093 1637.58 109.297C1629.21 111.461 1625.21 106.47 1618.9 103.666C1615.49 102.15 1610.34 98.8638 1605.86 100.418" stroke="black" stroke-width="3" stroke-linecap="round"/>
<path d="M1631.26 36.1505C1621.8 43.0935 1615.49 54.1442 1609.31 63.732C1613.32 61.9016 1616.72 60.7279 1621 60.1763C1628 59.2743 1635.04 60.7543 1641.97 59.0122C1647.55 57.6093 1651.97 54.5255 1654.52 48.9666C1656.64 44.342 1656.13 38.1117 1653.36 34.7465C1650.72 31.5468 1644.08 30.4714 1639.77 32.1313C1636.87 33.2476 1633.9 34.2174 1631.26 36.1505Z" fill="white" stroke="black" stroke-width="3" stroke-linecap="round"/>
<path d="M1251.03 186.357C1253.68 182.412 1260.71 175.145 1257.27 170.327C1263.84 171.718 1269.95 174.719 1276.67 175.7C1279.15 176.062 1281.44 177.116 1283.9 177.596C1289.9 178.77 1295.96 179.773 1301.93 181.091C1302.32 181.177 1308.95 183.081 1306.34 184.189C1305.75 184.441 1304.73 184.614 1304.25 184.949C1302.86 185.92 1301.36 185.714 1300.05 187.061C1298.3 188.861 1297.42 191.418 1295.43 192.999C1293.78 194.309 1292.15 193.882 1290.57 193.25C1289.45 192.802 1289.61 191.501 1289.68 190.187C1289.76 188.68 1290.16 186.985 1289.66 185.606C1289.17 184.276 1286.64 181.85 1285.06 183.056C1281.85 185.524 1281.35 190.094 1276.68 188.839C1273.34 187.94 1274.14 186.392 1273.84 183.042C1273.68 181.337 1273.07 180.648 1271.75 180.119C1269.67 179.286 1266.85 183.545 1265.42 185.217C1264.53 186.262 1263.83 187.658 1263 188.798C1262.07 190.073 1261.05 190.961 1260.06 192.145C1257.96 194.644 1254.85 194.518 1252.55 193.597C1249.42 192.343 1248.56 190.046 1251.03 186.357Z" fill="#292929" stroke="#292929" stroke-width="2" stroke-linecap="round"/>
</svg>
