<svg width="3250" height="568" viewBox="0 0 3250 568" fill="none" xmlns="http://www.w3.org/2000/svg">
<path d="M380.442 137.57C377.932 139.076 376.265 141.642 375.118 144.101C373.929 146.646 373.055 149.61 372.406 152.551C371.514 156.596 370.99 160.869 370.721 164.478L336.186 160.008C336.445 156.666 336.981 152.455 337.919 148.198C339.261 142.102 341.309 136.476 344.109 133.017C344.852 132.099 345.562 131.215 346.245 130.364C353.643 121.148 357.869 115.884 367.316 113.916C379.151 111.45 391.809 109.512 406.871 109.998C421.898 110.483 431.522 112.886 442.287 116.312C446.891 117.776 451.211 121.005 455.217 125.246C459.205 129.469 462.669 134.466 465.618 139.136C466.303 140.22 466.96 142.444 467.328 145.938C467.682 149.289 467.724 153.309 467.553 157.564C467.281 164.345 466.478 171.473 465.668 176.977L431.987 172.107C432.426 168.424 432.835 163.923 432.985 159.55C433.09 156.487 433.072 153.406 432.83 150.673C432.598 148.055 432.128 145.312 431.078 143.211C428.831 138.718 425.589 136.134 421.284 134.754C417.362 133.496 412.531 133.247 407.182 133.004C396.172 132.504 389.066 132.395 380.442 137.57Z" fill="white" stroke="#292929" stroke-width="8"/>
<path d="M280 163.5L280.293 159.511L276 159.195V163.5V407V411.437L280.413 410.979L280 407C280.413 410.979 280.414 410.979 280.416 410.978L280.423 410.978L280.45 410.975L280.555 410.964L280.971 410.92C281.337 410.882 281.881 410.824 282.591 410.749C284.01 410.598 286.094 410.375 288.754 410.085C294.074 409.505 301.7 408.658 310.928 407.591C329.384 405.456 354.258 402.437 379.921 398.9C405.573 395.365 432.063 391.307 453.733 387.09C464.563 384.983 474.248 382.826 482.047 380.66C489.694 378.536 495.996 376.285 499.703 373.838C512.809 365.189 522.342 354.224 528.545 339.902C534.714 325.662 537.5 308.316 537.5 287C537.5 247.887 528.528 209.31 499.631 191.115C495.681 188.628 489.21 186.428 481.401 184.414C473.458 182.365 463.681 180.402 452.799 178.542C431.028 174.819 404.593 171.465 379.064 168.649C353.522 165.832 328.832 163.548 310.532 161.968C301.38 161.178 293.823 160.564 288.554 160.147C285.919 159.939 283.855 159.78 282.45 159.673C281.747 159.619 281.209 159.579 280.846 159.552L280.434 159.521L280.329 159.513L280.302 159.511L280.296 159.511C280.294 159.511 280.293 159.511 280 163.5Z" fill="white" stroke="#292929" stroke-width="8"/>
<path d="M269 414C295.972 414 320.065 399.197 337.271 375.912C354.478 352.626 365 320.648 365 285.5C365 250.352 354.478 218.374 337.271 195.088C320.065 171.803 295.972 157 269 157C242.028 157 217.935 171.803 200.729 195.088C183.522 218.374 173 250.352 173 285.5C173 320.648 183.522 352.626 200.729 375.912C217.935 399.197 242.028 414 269 414Z" fill="white" stroke="#292929" stroke-width="8"/>
<path d="M460 318.273C460 324.09 455.888 329.739 448.408 334.046C440.981 338.322 430.588 341.03 419 341.03C407.412 341.03 397.019 338.322 389.592 334.046C382.112 329.739 378 324.09 378 318.273C378 312.456 382.112 306.807 389.592 302.5C397.019 298.224 407.412 295.515 419 295.515C430.588 295.515 440.981 298.224 448.408 302.5C455.888 306.807 460 312.456 460 318.273Z" fill="white" stroke="#292929" stroke-width="4"/>
<path d="M402.93 335.844C409.907 335.844 416.29 333.927 420.971 330.751C425.644 327.579 428.753 323.041 428.753 317.839C428.753 312.636 425.644 308.098 420.971 304.926C416.29 301.75 409.907 299.833 402.93 299.833C395.953 299.833 389.57 301.75 384.888 304.926C380.215 308.098 377.106 312.636 377.106 317.839C377.106 323.041 380.215 327.579 384.888 330.751C389.57 333.927 395.953 335.844 402.93 335.844Z" fill="#292929" stroke="#292929" stroke-width="3"/>
<path d="M460 250.758C460 256.574 455.888 262.224 448.408 266.531C440.981 270.807 430.588 273.515 419 273.515C407.412 273.515 397.019 270.807 389.592 266.531C382.112 262.224 378 256.574 378 250.758C378 244.941 382.112 239.292 389.592 234.985C397.019 230.709 407.412 228 419 228C430.588 228 440.981 230.709 448.408 234.985C455.888 239.292 460 244.941 460 250.758Z" fill="white" stroke="#292929" stroke-width="4"/>
<path d="M402.93 268.328C409.907 268.328 416.29 266.412 420.971 263.235C425.644 260.064 428.753 255.526 428.753 250.323C428.753 245.12 425.644 240.582 420.971 237.411C416.29 234.235 409.907 232.318 402.93 232.318C395.953 232.318 389.57 234.235 384.888 237.411C380.215 240.582 377.106 245.12 377.106 250.323C377.106 255.526 380.215 260.064 384.888 263.235C389.57 266.412 395.953 268.328 402.93 268.328Z" fill="#292929" stroke="#292929" stroke-width="3"/>
<path d="M248.367 395.472C261.576 392.315 307.587 391.132 328 391C328 391.745 325.074 393.999 320.894 396.525C316.713 399.05 307.447 401.698 303.337 402.707C299.435 403.54 291.339 405.995 290.169 409.152C288.706 413.098 301.038 413.756 308.144 415.597C315.25 417.439 318.595 419.938 316.295 424.673C313.996 429.408 294.558 433.486 281.6 435.064C268.641 436.643 271.985 435.591 248.367 435.985C224.749 436.38 210.954 428.751 208.237 427.83C205.519 426.909 202.802 423.621 203.011 420.332C203.22 417.044 222.24 415.334 228.511 414.808C234.781 414.282 239.159 412.309 239.159 410.073C239.159 408.231 226.63 408.231 226.212 405.206C225.794 402.181 231.855 399.418 248.367 395.472Z" fill="#292929"/>
<path d="M1030.44 137.57C1027.93 139.076 1026.26 141.642 1025.12 144.101C1023.93 146.646 1023.06 149.61 1022.41 152.551C1021.51 156.596 1020.99 160.869 1020.72 164.478L986.186 160.008C986.445 156.666 986.981 152.455 987.919 148.198C989.261 142.102 991.309 136.476 994.109 133.017C994.852 132.099 995.562 131.215 996.245 130.364C1003.64 121.148 1007.87 115.884 1017.32 113.916C1029.15 111.45 1041.81 109.512 1056.87 109.998C1071.9 110.483 1081.52 112.886 1092.29 116.312C1096.89 117.776 1101.21 121.005 1105.22 125.246C1109.2 129.469 1112.67 134.466 1115.62 139.136C1116.3 140.22 1116.96 142.444 1117.33 145.938C1117.68 149.289 1117.72 153.309 1117.55 157.564C1117.28 164.345 1116.48 171.473 1115.67 176.977L1081.99 172.107C1082.43 168.424 1082.83 163.923 1082.99 159.55C1083.09 156.487 1083.07 153.406 1082.83 150.673C1082.6 148.055 1082.13 145.312 1081.08 143.211C1078.83 138.718 1075.59 136.134 1071.28 134.754C1067.36 133.496 1062.53 133.247 1057.18 133.004C1046.17 132.504 1039.07 132.395 1030.44 137.57Z" fill="white" stroke="#292929" stroke-width="8"/>
<path d="M930 163.5L930.293 159.511L926 159.195V163.5V407V411.437L930.413 410.979L930 407C930.413 410.979 930.414 410.979 930.416 410.978L930.423 410.978L930.45 410.975L930.555 410.964L930.971 410.92C931.337 410.882 931.881 410.824 932.591 410.749C934.01 410.598 936.094 410.375 938.754 410.085C944.074 409.505 951.7 408.658 960.928 407.591C979.384 405.456 1004.26 402.437 1029.92 398.9C1055.57 395.365 1082.06 391.307 1103.73 387.09C1114.56 384.983 1124.25 382.826 1132.05 380.66C1139.69 378.536 1146 376.285 1149.7 373.838C1162.81 365.189 1172.34 354.224 1178.55 339.902C1184.71 325.662 1187.5 308.316 1187.5 287C1187.5 247.887 1178.53 209.31 1149.63 191.115C1145.68 188.628 1139.21 186.428 1131.4 184.414C1123.46 182.365 1113.68 180.402 1102.8 178.542C1081.03 174.819 1054.59 171.465 1029.06 168.649C1003.52 165.832 978.832 163.548 960.532 161.968C951.38 161.178 943.823 160.564 938.554 160.147C935.919 159.939 933.855 159.78 932.45 159.673C931.747 159.619 931.209 159.579 930.846 159.552L930.434 159.521L930.329 159.513L930.302 159.511L930.296 159.511C930.294 159.511 930.293 159.511 930 163.5Z" fill="white" stroke="#292929" stroke-width="8"/>
<path d="M919 414C945.972 414 970.065 399.197 987.271 375.912C1004.48 352.626 1015 320.648 1015 285.5C1015 250.352 1004.48 218.374 987.271 195.088C970.065 171.803 945.972 157 919 157C892.028 157 867.935 171.803 850.729 195.088C833.522 218.374 823 250.352 823 285.5C823 320.648 833.522 352.626 850.729 375.912C867.935 399.197 892.028 414 919 414Z" fill="white" stroke="#292929" stroke-width="8"/>
<path d="M1110 318.273C1110 324.09 1105.89 329.739 1098.41 334.046C1090.98 338.322 1080.59 341.03 1069 341.03C1057.41 341.03 1047.02 338.322 1039.59 334.046C1032.11 329.739 1028 324.09 1028 318.273C1028 312.456 1032.11 306.807 1039.59 302.5C1047.02 298.224 1057.41 295.515 1069 295.515C1080.59 295.515 1090.98 298.224 1098.41 302.5C1105.89 306.807 1110 312.456 1110 318.273Z" fill="white" stroke="#292929" stroke-width="4"/>
<path d="M1052.93 335.844C1059.91 335.844 1066.29 333.927 1070.97 330.751C1075.64 327.579 1078.75 323.041 1078.75 317.839C1078.75 312.636 1075.64 308.098 1070.97 304.926C1066.29 301.75 1059.91 299.833 1052.93 299.833C1045.95 299.833 1039.57 301.75 1034.89 304.926C1030.22 308.098 1027.11 312.636 1027.11 317.839C1027.11 323.041 1030.22 327.579 1034.89 330.751C1039.57 333.927 1045.95 335.844 1052.93 335.844Z" fill="#292929" stroke="#292929" stroke-width="3"/>
<path d="M1110 250.758C1110 256.574 1105.89 262.224 1098.41 266.531C1090.98 270.807 1080.59 273.515 1069 273.515C1057.41 273.515 1047.02 270.807 1039.59 266.531C1032.11 262.224 1028 256.574 1028 250.758C1028 244.941 1032.11 239.292 1039.59 234.985C1047.02 230.709 1057.41 228 1069 228C1080.59 228 1090.98 230.709 1098.41 234.985C1105.89 239.292 1110 244.941 1110 250.758Z" fill="white" stroke="#292929" stroke-width="4"/>
<path d="M1052.93 268.328C1059.91 268.328 1066.29 266.412 1070.97 263.235C1075.64 260.064 1078.75 255.526 1078.75 250.323C1078.75 245.12 1075.64 240.582 1070.97 237.411C1066.29 234.235 1059.91 232.318 1052.93 232.318C1045.95 232.318 1039.57 234.235 1034.89 237.411C1030.22 240.582 1027.11 245.12 1027.11 250.323C1027.11 255.526 1030.22 260.064 1034.89 263.235C1039.57 266.412 1045.95 268.328 1052.93 268.328Z" fill="#292929" stroke="#292929" stroke-width="3"/>
<path d="M872.788 394.652C891.07 389.251 954.748 387.225 983 387C983 388.275 978.95 392.132 973.165 396.453C967.379 400.774 954.555 405.306 948.866 407.031C943.466 408.457 932.262 412.658 930.642 418.06C928.617 424.812 945.684 425.938 955.519 429.089C965.354 432.24 969.983 436.516 966.801 444.618C963.619 452.721 936.717 459.698 918.782 462.399C900.847 465.1 905.475 463.299 872.788 463.975C840.1 464.65 821.008 451.596 817.247 450.02C813.487 448.445 809.726 442.818 810.016 437.191C810.305 431.564 836.629 428.638 845.307 427.738C853.985 426.838 860.044 423.462 860.044 419.635C860.044 416.484 842.703 416.484 842.125 411.308C841.546 406.131 849.935 401.405 872.788 394.652Z" fill="#292929"/>
<path d="M1680.44 137.57C1677.93 139.076 1676.26 141.642 1675.12 144.101C1673.93 146.646 1673.06 149.61 1672.41 152.551C1671.51 156.596 1670.99 160.869 1670.72 164.478L1636.19 160.008C1636.45 156.666 1636.98 152.455 1637.92 148.198C1639.26 142.102 1641.31 136.476 1644.11 133.017C1644.85 132.099 1645.56 131.215 1646.24 130.364C1653.64 121.148 1657.87 115.884 1667.32 113.916C1679.15 111.45 1691.81 109.512 1706.87 109.998C1721.9 110.483 1731.52 112.886 1742.29 116.312C1746.89 117.776 1751.21 121.005 1755.22 125.246C1759.2 129.469 1762.67 134.466 1765.62 139.136C1766.3 140.22 1766.96 142.444 1767.33 145.938C1767.68 149.289 1767.72 153.309 1767.55 157.564C1767.28 164.345 1766.48 171.473 1765.67 176.977L1731.99 172.107C1732.43 168.424 1732.83 163.923 1732.99 159.55C1733.09 156.487 1733.07 153.406 1732.83 150.673C1732.6 148.055 1732.13 145.312 1731.08 143.211C1728.83 138.718 1725.59 136.134 1721.28 134.754C1717.36 133.496 1712.53 133.247 1707.18 133.004C1696.17 132.504 1689.07 132.395 1680.44 137.57Z" fill="white" stroke="#292929" stroke-width="8"/>
<path d="M1580 163.5L1580.29 159.511L1576 159.195V163.5V407V411.437L1580.41 410.979L1580 407C1580.41 410.979 1580.41 410.979 1580.42 410.978L1580.42 410.978L1580.45 410.975L1580.56 410.964L1580.97 410.92C1581.34 410.882 1581.88 410.824 1582.59 410.749C1584.01 410.598 1586.09 410.375 1588.75 410.085C1594.07 409.505 1601.7 408.658 1610.93 407.591C1629.38 405.456 1654.26 402.437 1679.92 398.9C1705.57 395.365 1732.06 391.307 1753.73 387.09C1764.56 384.983 1774.25 382.826 1782.05 380.66C1789.69 378.536 1796 376.285 1799.7 373.838C1812.81 365.189 1822.34 354.224 1828.55 339.902C1834.71 325.662 1837.5 308.316 1837.5 287C1837.5 247.887 1828.53 209.31 1799.63 191.115C1795.68 188.628 1789.21 186.428 1781.4 184.414C1773.46 182.365 1763.68 180.402 1752.8 178.542C1731.03 174.819 1704.59 171.465 1679.06 168.649C1653.52 165.832 1628.83 163.548 1610.53 161.968C1601.38 161.178 1593.82 160.564 1588.55 160.147C1585.92 159.939 1583.86 159.78 1582.45 159.673C1581.75 159.619 1581.21 159.579 1580.85 159.552L1580.43 159.521L1580.33 159.513L1580.3 159.511L1580.3 159.511C1580.29 159.511 1580.29 159.511 1580 163.5Z" fill="white" stroke="#292929" stroke-width="8"/>
<path d="M1569 414C1595.97 414 1620.06 399.197 1637.27 375.912C1654.48 352.626 1665 320.648 1665 285.5C1665 250.352 1654.48 218.374 1637.27 195.088C1620.06 171.803 1595.97 157 1569 157C1542.03 157 1517.94 171.803 1500.73 195.088C1483.52 218.374 1473 250.352 1473 285.5C1473 320.648 1483.52 352.626 1500.73 375.912C1517.94 399.197 1542.03 414 1569 414Z" fill="white" stroke="#292929" stroke-width="8"/>
<path d="M1760 318.273C1760 324.09 1755.89 329.739 1748.41 334.046C1740.98 338.322 1730.59 341.03 1719 341.03C1707.41 341.03 1697.02 338.322 1689.59 334.046C1682.11 329.739 1678 324.09 1678 318.273C1678 312.456 1682.11 306.807 1689.59 302.5C1697.02 298.224 1707.41 295.515 1719 295.515C1730.59 295.515 1740.98 298.224 1748.41 302.5C1755.89 306.807 1760 312.456 1760 318.273Z" fill="white" stroke="#292929" stroke-width="4"/>
<path d="M1702.93 335.844C1709.91 335.844 1716.29 333.927 1720.97 330.751C1725.64 327.579 1728.75 323.041 1728.75 317.839C1728.75 312.636 1725.64 308.098 1720.97 304.926C1716.29 301.75 1709.91 299.833 1702.93 299.833C1695.95 299.833 1689.57 301.75 1684.89 304.926C1680.22 308.098 1677.11 312.636 1677.11 317.839C1677.11 323.041 1680.22 327.579 1684.89 330.751C1689.57 333.927 1695.95 335.844 1702.93 335.844Z" fill="#292929" stroke="#292929" stroke-width="3"/>
<path d="M1760 250.758C1760 256.574 1755.89 262.224 1748.41 266.531C1740.98 270.807 1730.59 273.515 1719 273.515C1707.41 273.515 1697.02 270.807 1689.59 266.531C1682.11 262.224 1678 256.574 1678 250.758C1678 244.941 1682.11 239.292 1689.59 234.985C1697.02 230.709 1707.41 228 1719 228C1730.59 228 1740.98 230.709 1748.41 234.985C1755.89 239.292 1760 244.941 1760 250.758Z" fill="white" stroke="#292929" stroke-width="4"/>
<path d="M1702.93 268.328C1709.91 268.328 1716.29 266.412 1720.97 263.235C1725.64 260.064 1728.75 255.526 1728.75 250.323C1728.75 245.12 1725.64 240.582 1720.97 237.411C1716.29 234.235 1709.91 232.318 1702.93 232.318C1695.95 232.318 1689.57 234.235 1684.89 237.411C1680.22 240.582 1677.11 245.12 1677.11 250.323C1677.11 255.526 1680.22 260.064 1684.89 263.235C1689.57 266.412 1695.95 268.328 1702.93 268.328Z" fill="#292929" stroke="#292929" stroke-width="3"/>
<path d="M1489.3 392.64C1512.97 385.835 1595.42 383.284 1632 383C1632 384.607 1626.76 389.465 1619.27 394.908C1611.77 400.352 1595.17 406.061 1587.8 408.234C1580.81 410.03 1566.3 415.323 1564.21 422.127C1561.59 430.633 1583.68 432.051 1596.42 436.021C1609.15 439.99 1615.15 445.377 1611.03 455.584C1606.91 465.792 1572.07 474.581 1548.85 477.983C1525.63 481.386 1531.62 479.118 1489.3 479.968C1446.97 480.819 1422.25 464.374 1417.38 462.389C1412.51 460.404 1407.65 453.316 1408.02 446.228C1408.39 439.139 1442.48 435.454 1453.72 434.319C1464.95 433.185 1472.8 428.932 1472.8 424.112C1472.8 420.143 1450.34 420.143 1449.6 413.622C1448.85 407.1 1459.71 401.146 1489.3 392.64Z" fill="#292929"/>
<path d="M2330.44 137.57C2327.93 139.076 2326.26 141.642 2325.12 144.101C2323.93 146.646 2323.06 149.61 2322.41 152.551C2321.51 156.596 2320.99 160.869 2320.72 164.478L2286.19 160.008C2286.45 156.666 2286.98 152.455 2287.92 148.198C2289.26 142.102 2291.31 136.476 2294.11 133.017C2294.85 132.099 2295.56 131.215 2296.24 130.364C2303.64 121.148 2307.87 115.884 2317.32 113.916C2329.15 111.45 2341.81 109.512 2356.87 109.998C2371.9 110.483 2381.52 112.886 2392.29 116.312C2396.89 117.776 2401.21 121.005 2405.22 125.246C2409.2 129.469 2412.67 134.466 2415.62 139.136C2416.3 140.22 2416.96 142.444 2417.33 145.938C2417.68 149.289 2417.72 153.309 2417.55 157.564C2417.28 164.345 2416.48 171.473 2415.67 176.977L2381.99 172.107C2382.43 168.424 2382.83 163.923 2382.99 159.55C2383.09 156.487 2383.07 153.406 2382.83 150.673C2382.6 148.055 2382.13 145.312 2381.08 143.211C2378.83 138.718 2375.59 136.134 2371.28 134.754C2367.36 133.496 2362.53 133.247 2357.18 133.004C2346.17 132.504 2339.07 132.395 2330.44 137.57Z" fill="white" stroke="#292929" stroke-width="8"/>
<path d="M2230 163.5L2230.29 159.511L2226 159.195V163.5V407V411.437L2230.41 410.979L2230 407C2230.41 410.979 2230.41 410.979 2230.42 410.978L2230.42 410.978L2230.45 410.975L2230.56 410.964L2230.97 410.92C2231.34 410.882 2231.88 410.824 2232.59 410.749C2234.01 410.598 2236.09 410.375 2238.75 410.085C2244.07 409.505 2251.7 408.658 2260.93 407.591C2279.38 405.456 2304.26 402.437 2329.92 398.9C2355.57 395.365 2382.06 391.307 2403.73 387.09C2414.56 384.983 2424.25 382.826 2432.05 380.66C2439.69 378.536 2446 376.285 2449.7 373.838C2462.81 365.189 2472.34 354.224 2478.55 339.902C2484.71 325.662 2487.5 308.316 2487.5 287C2487.5 247.887 2478.53 209.31 2449.63 191.115C2445.68 188.628 2439.21 186.428 2431.4 184.414C2423.46 182.365 2413.68 180.402 2402.8 178.542C2381.03 174.819 2354.59 171.465 2329.06 168.649C2303.52 165.832 2278.83 163.548 2260.53 161.968C2251.38 161.178 2243.82 160.564 2238.55 160.147C2235.92 159.939 2233.86 159.78 2232.45 159.673C2231.75 159.619 2231.21 159.579 2230.85 159.552L2230.43 159.521L2230.33 159.513L2230.3 159.511L2230.3 159.511C2230.29 159.511 2230.29 159.511 2230 163.5Z" fill="white" stroke="#292929" stroke-width="8"/>
<path d="M2219 414C2245.97 414 2270.06 399.197 2287.27 375.912C2304.48 352.626 2315 320.648 2315 285.5C2315 250.352 2304.48 218.374 2287.27 195.088C2270.06 171.803 2245.97 157 2219 157C2192.03 157 2167.94 171.803 2150.73 195.088C2133.52 218.374 2123 250.352 2123 285.5C2123 320.648 2133.52 352.626 2150.73 375.912C2167.94 399.197 2192.03 414 2219 414Z" fill="white" stroke="#292929" stroke-width="8"/>
<path d="M2410 318.273C2410 324.09 2405.89 329.739 2398.41 334.046C2390.98 338.322 2380.59 341.03 2369 341.03C2357.41 341.03 2347.02 338.322 2339.59 334.046C2332.11 329.739 2328 324.09 2328 318.273C2328 312.456 2332.11 306.807 2339.59 302.5C2347.02 298.224 2357.41 295.515 2369 295.515C2380.59 295.515 2390.98 298.224 2398.41 302.5C2405.89 306.807 2410 312.456 2410 318.273Z" fill="white" stroke="#292929" stroke-width="4"/>
<path d="M2352.93 335.844C2359.91 335.844 2366.29 333.927 2370.97 330.751C2375.64 327.579 2378.75 323.041 2378.75 317.839C2378.75 312.636 2375.64 308.098 2370.97 304.926C2366.29 301.75 2359.91 299.833 2352.93 299.833C2345.95 299.833 2339.57 301.75 2334.89 304.926C2330.22 308.098 2327.11 312.636 2327.11 317.839C2327.11 323.041 2330.22 327.579 2334.89 330.751C2339.57 333.927 2345.95 335.844 2352.93 335.844Z" fill="#292929" stroke="#292929" stroke-width="3"/>
<path d="M2410 250.758C2410 256.574 2405.89 262.224 2398.41 266.531C2390.98 270.807 2380.59 273.515 2369 273.515C2357.41 273.515 2347.02 270.807 2339.59 266.531C2332.11 262.224 2328 256.574 2328 250.758C2328 244.941 2332.11 239.292 2339.59 234.985C2347.02 230.709 2357.41 228 2369 228C2380.59 228 2390.98 230.709 2398.41 234.985C2405.89 239.292 2410 244.941 2410 250.758Z" fill="white" stroke="#292929" stroke-width="4"/>
<path d="M2352.93 268.328C2359.91 268.328 2366.29 266.412 2370.97 263.235C2375.64 260.064 2378.75 255.526 2378.75 250.323C2378.75 245.12 2375.64 240.582 2370.97 237.411C2366.29 234.235 2359.91 232.318 2352.93 232.318C2345.95 232.318 2339.57 234.235 2334.89 237.411C2330.22 240.582 2327.11 245.12 2327.11 250.323C2327.11 255.526 2330.22 260.064 2334.89 263.235C2339.57 266.412 2345.95 268.328 2352.93 268.328Z" fill="#292929" stroke="#292929" stroke-width="3"/>
<path d="M2111.27 394.528C2139.59 386.391 2238.23 383.339 2282 383C2282 384.921 2275.73 390.731 2266.76 397.241C2257.8 403.751 2237.93 410.578 2229.12 413.177C2220.76 415.325 2203.4 421.654 2200.89 429.792C2197.75 439.964 2224.19 441.659 2239.43 446.406C2254.66 451.153 2261.83 457.595 2256.91 469.802C2251.98 482.008 2210.3 492.52 2182.52 496.588C2154.73 500.657 2161.9 497.945 2111.27 498.962C2060.63 499.979 2031.05 480.313 2025.23 477.94C2019.4 475.566 2013.58 467.089 2014.02 458.613C2014.47 450.136 2055.25 445.728 2068.69 444.372C2082.14 443.015 2091.52 437.929 2091.52 432.165C2091.52 427.418 2064.66 427.418 2063.77 419.62C2062.87 411.821 2075.86 404.7 2111.27 394.528Z" fill="#292929"/>
<path d="M2980.44 137.57C2977.93 139.076 2976.26 141.642 2975.12 144.101C2973.93 146.646 2973.06 149.61 2972.41 152.551C2971.51 156.596 2970.99 160.869 2970.72 164.478L2936.19 160.008C2936.45 156.666 2936.98 152.455 2937.92 148.198C2939.26 142.102 2941.31 136.476 2944.11 133.017C2944.85 132.099 2945.56 131.215 2946.24 130.364C2953.64 121.148 2957.87 115.884 2967.32 113.916C2979.15 111.45 2991.81 109.512 3006.87 109.998C3021.9 110.483 3031.52 112.886 3042.29 116.312C3046.89 117.776 3051.21 121.005 3055.22 125.246C3059.2 129.469 3062.67 134.466 3065.62 139.136C3066.3 140.22 3066.96 142.444 3067.33 145.938C3067.68 149.289 3067.72 153.309 3067.55 157.564C3067.28 164.345 3066.48 171.473 3065.67 176.977L3031.99 172.107C3032.43 168.424 3032.83 163.923 3032.99 159.55C3033.09 156.487 3033.07 153.406 3032.83 150.673C3032.6 148.055 3032.13 145.312 3031.08 143.211C3028.83 138.718 3025.59 136.134 3021.28 134.754C3017.36 133.496 3012.53 133.247 3007.18 133.004C2996.17 132.504 2989.07 132.395 2980.44 137.57Z" fill="white" stroke="#292929" stroke-width="8"/>
<path d="M2880 163.5L2880.29 159.511L2876 159.195V163.5V407V411.437L2880.41 410.979L2880 407C2880.41 410.979 2880.41 410.979 2880.42 410.978L2880.42 410.978L2880.45 410.975L2880.56 410.964L2880.97 410.92C2881.34 410.882 2881.88 410.824 2882.59 410.749C2884.01 410.598 2886.09 410.375 2888.75 410.085C2894.07 409.505 2901.7 408.658 2910.93 407.591C2929.38 405.456 2954.26 402.437 2979.92 398.9C3005.57 395.365 3032.06 391.307 3053.73 387.09C3064.56 384.983 3074.25 382.826 3082.05 380.66C3089.69 378.536 3096 376.285 3099.7 373.838C3112.81 365.189 3122.34 354.224 3128.55 339.902C3134.71 325.662 3137.5 308.316 3137.5 287C3137.5 247.887 3128.53 209.31 3099.63 191.115C3095.68 188.628 3089.21 186.428 3081.4 184.414C3073.46 182.365 3063.68 180.402 3052.8 178.542C3031.03 174.819 3004.59 171.465 2979.06 168.649C2953.52 165.832 2928.83 163.548 2910.53 161.968C2901.38 161.178 2893.82 160.564 2888.55 160.147C2885.92 159.939 2883.86 159.78 2882.45 159.673C2881.75 159.619 2881.21 159.579 2880.85 159.552L2880.43 159.521L2880.33 159.513L2880.3 159.511L2880.3 159.511C2880.29 159.511 2880.29 159.511 2880 163.5Z" fill="white" stroke="#292929" stroke-width="8"/>
<path d="M2869 414C2895.97 414 2920.06 399.197 2937.27 375.912C2954.48 352.626 2965 320.648 2965 285.5C2965 250.352 2954.48 218.374 2937.27 195.088C2920.06 171.803 2895.97 157 2869 157C2842.03 157 2817.94 171.803 2800.73 195.088C2783.52 218.374 2773 250.352 2773 285.5C2773 320.648 2783.52 352.626 2800.73 375.912C2817.94 399.197 2842.03 414 2869 414Z" fill="white" stroke="#292929" stroke-width="8"/>
<path d="M3060 318.273C3060 324.09 3055.89 329.739 3048.41 334.046C3040.98 338.322 3030.59 341.03 3019 341.03C3007.41 341.03 2997.02 338.322 2989.59 334.046C2982.11 329.739 2978 324.09 2978 318.273C2978 312.456 2982.11 306.807 2989.59 302.5C2997.02 298.224 3007.41 295.515 3019 295.515C3030.59 295.515 3040.98 298.224 3048.41 302.5C3055.89 306.807 3060 312.456 3060 318.273Z" fill="white" stroke="#292929" stroke-width="4"/>
<path d="M3002.93 335.844C3009.91 335.844 3016.29 333.927 3020.97 330.751C3025.64 327.579 3028.75 323.041 3028.75 317.839C3028.75 312.636 3025.64 308.098 3020.97 304.926C3016.29 301.75 3009.91 299.833 3002.93 299.833C2995.95 299.833 2989.57 301.75 2984.89 304.926C2980.22 308.098 2977.11 312.636 2977.11 317.839C2977.11 323.041 2980.22 327.579 2984.89 330.751C2989.57 333.927 2995.95 335.844 3002.93 335.844Z" fill="#292929" stroke="#292929" stroke-width="3"/>
<path d="M3060 250.758C3060 256.574 3055.89 262.224 3048.41 266.531C3040.98 270.807 3030.59 273.515 3019 273.515C3007.41 273.515 2997.02 270.807 2989.59 266.531C2982.11 262.224 2978 256.574 2978 250.758C2978 244.941 2982.11 239.292 2989.59 234.985C2997.02 230.709 3007.41 228 3019 228C3030.59 228 3040.98 230.709 3048.41 234.985C3055.89 239.292 3060 244.941 3060 250.758Z" fill="white" stroke="#292929" stroke-width="4"/>
<path d="M3002.93 268.328C3009.91 268.328 3016.29 266.412 3020.97 263.235C3025.64 260.064 3028.75 255.526 3028.75 250.323C3028.75 245.12 3025.64 240.582 3020.97 237.411C3016.29 234.235 3009.91 232.318 3002.93 232.318C2995.95 232.318 2989.57 234.235 2984.89 237.411C2980.22 240.582 2977.11 245.12 2977.11 250.323C2977.11 255.526 2980.22 260.064 2984.89 263.235C2989.57 266.412 2995.95 268.328 3002.93 268.328Z" fill="#292929" stroke="#292929" stroke-width="3"/>
<path d="M2722.67 387.994C2758.39 375.998 2882.8 371.5 2938 371C2938 373.832 2930.09 382.396 2918.78 391.993C2907.48 401.59 2882.43 411.653 2871.31 415.485C2860.76 418.651 2838.87 427.981 2835.71 439.977C2831.75 454.972 2865.09 457.472 2884.31 464.469C2903.52 471.467 2912.57 480.964 2906.35 498.958C2900.13 516.952 2847.57 532.447 2812.53 538.445C2777.49 544.443 2786.54 540.444 2722.67 541.944C2658.81 543.443 2621.51 514.453 2614.16 510.954C2606.81 507.455 2599.47 494.959 2600.03 482.463C2600.6 469.967 2652.03 463.47 2668.98 461.47C2685.94 459.471 2697.77 451.973 2697.77 443.476C2697.77 436.478 2663.89 436.478 2662.76 424.982C2661.63 413.486 2678.02 402.989 2722.67 387.994Z" fill="#292929"/>
</svg>
