<?xml version="1.0" encoding="utf-8"?>
<!-- Generator: Adobe Illustrator 25.0.0, SVG Export Plug-In . SVG Version: 6.00 Build 0)  -->
<svg version="1.1" id="圖層_1" xmlns="http://www.w3.org/2000/svg" xmlns:xlink="http://www.w3.org/1999/xlink" x="0px" y="0px"
	 viewBox="0 0 3250 568" style="enable-background:new 0 0 3250 568;" xml:space="preserve">
<style type="text/css">
	.st0{fill:#FFFFFF;stroke:#292929;stroke-width:8;}
	.st1{fill:#FFFFFF;stroke:#292929;stroke-width:4;}
	.st2{fill:#292929;stroke:#292929;stroke-width:3;}
	.st3{fill:#292929;}
</style>
<path class="st0" d="M380.4,137.6c-2.5,1.5-4.2,4.1-5.3,6.5c-1.2,2.5-2.1,5.5-2.7,8.4c-0.9,4-1.4,8.3-1.7,11.9l-34.5-4.5
	c0.3-3.3,0.8-7.6,1.7-11.8c1.3-6.1,3.4-11.7,6.2-15.2c0.7-0.9,1.5-1.8,2.1-2.7c7.4-9.2,11.6-14.5,21.1-16.4
	c11.8-2.5,24.5-4.4,39.6-3.9c15,0.5,24.7,2.9,35.4,6.3c4.6,1.5,8.9,4.7,12.9,8.9c4,4.2,7.5,9.2,10.4,13.9c0.7,1.1,1.3,3.3,1.7,6.8
	c0.4,3.4,0.4,7.4,0.2,11.6c-0.3,6.8-1.1,13.9-1.9,19.4l-33.7-4.9c0.4-3.7,0.8-8.2,1-12.6c0.1-3.1,0.1-6.1-0.2-8.9
	c-0.2-2.6-0.7-5.4-1.8-7.5c-2.2-4.5-5.5-7.1-9.8-8.5c-3.9-1.3-8.8-1.5-14.1-1.8C396.2,132.5,389.1,132.4,380.4,137.6z"/>
<path class="st0" d="M280,163.5l0.3-4l-4.3-0.3v4.3V407v4.4l4.4-0.5l-0.4-4c0.4,4,0.4,4,0.4,4h0l0,0l0.1,0l0.4,0
	c0.4,0,0.9-0.1,1.6-0.2c1.4-0.2,3.5-0.4,6.2-0.7c5.3-0.6,12.9-1.4,22.2-2.5c18.5-2.1,43.3-5.2,69-8.7c25.7-3.5,52.1-7.6,73.8-11.8
	c10.8-2.1,20.5-4.3,28.3-6.4c7.6-2.1,13.9-4.4,17.7-6.8c13.1-8.6,22.6-19.6,28.8-33.9c6.2-14.2,9-31.6,9-52.9
	c0-39.1-9-77.7-37.9-95.9c-4-2.5-10.4-4.7-18.2-6.7c-7.9-2-17.7-4-28.6-5.9c-21.8-3.7-48.2-7.1-73.7-9.9
	c-25.5-2.8-50.2-5.1-68.5-6.7c-9.2-0.8-16.7-1.4-22-1.8c-2.6-0.2-4.7-0.4-6.1-0.5c-0.7-0.1-1.2-0.1-1.6-0.1l-0.4,0l-0.1,0l0,0h0
	C280.3,159.5,280.3,159.5,280,163.5z"/>
<path class="st0" d="M269,414c27,0,51.1-14.8,68.3-38.1c17.2-23.3,27.7-55.3,27.7-90.4s-10.5-67.1-27.7-90.4
	C320.1,171.8,296,157,269,157s-51.1,14.8-68.3,38.1c-17.2,23.3-27.7,55.3-27.7,90.4s10.5,67.1,27.7,90.4
	C217.9,399.2,242,414,269,414z"/>
<path class="st1" d="M460,318.3c0,5.8-4.1,11.5-11.6,15.8c-7.4,4.3-17.8,7-29.4,7s-22-2.7-29.4-7c-7.5-4.3-11.6-10-11.6-15.8
	c0-5.8,4.1-11.5,11.6-15.8c7.4-4.3,17.8-7,29.4-7s22,2.7,29.4,7C455.9,306.8,460,312.5,460,318.3z"/>
<path class="st2" d="M402.9,335.8c7,0,13.4-1.9,18-5.1c4.7-3.2,7.8-7.7,7.8-12.9c0-5.2-3.1-9.7-7.8-12.9c-4.7-3.2-11.1-5.1-18-5.1
	c-7,0-13.4,1.9-18,5.1c-4.7,3.2-7.8,7.7-7.8,12.9c0,5.2,3.1,9.7,7.8,12.9C389.6,333.9,396,335.8,402.9,335.8z"/>
<path class="st1" d="M460,250.8c0,5.8-4.1,11.5-11.6,15.8c-7.4,4.3-17.8,7-29.4,7s-22-2.7-29.4-7c-7.5-4.3-11.6-10-11.6-15.8
	c0-5.8,4.1-11.5,11.6-15.8c7.4-4.3,17.8-7,29.4-7s22,2.7,29.4,7C455.9,239.3,460,244.9,460,250.8z"/>
<path class="st2" d="M402.9,268.3c7,0,13.4-1.9,18-5.1c4.7-3.2,7.8-7.7,7.8-12.9s-3.1-9.7-7.8-12.9c-4.7-3.2-11.1-5.1-18-5.1
	c-7,0-13.4,1.9-18,5.1c-4.7,3.2-7.8,7.7-7.8,12.9s3.1,9.7,7.8,12.9C389.6,266.4,396,268.3,402.9,268.3z"/>
<path class="st3" d="M248.4,395.5c13.2-3.2,59.2-4.3,79.6-4.5c0,0.7-2.9,3-7.1,5.5c-4.2,2.5-13.4,5.2-17.6,6.2
	c-3.9,0.8-12,3.3-13.2,6.4c-1.5,3.9,10.9,4.6,18,6.4c7.1,1.8,10.5,4.3,8.2,9.1c-2.3,4.7-21.7,8.8-34.7,10.4
	c-13,1.6-9.6,0.5-33.2,0.9c-23.6,0.4-37.4-7.2-40.1-8.2c-2.7-0.9-5.4-4.2-5.2-7.5c0.2-3.3,19.2-5,25.5-5.5
	c6.3-0.5,10.6-2.5,10.6-4.7c0-1.8-12.5-1.8-12.9-4.9S231.9,399.4,248.4,395.5z"/>
<path class="st0" d="M1030.4,137.6c-2.5,1.5-4.2,4.1-5.3,6.5c-1.2,2.5-2.1,5.5-2.7,8.4c-0.9,4-1.4,8.3-1.7,11.9l-34.5-4.5
	c0.3-3.3,0.8-7.6,1.7-11.8c1.3-6.1,3.4-11.7,6.2-15.2c0.7-0.9,1.5-1.8,2.1-2.7c7.4-9.2,11.6-14.5,21.1-16.4
	c11.8-2.5,24.5-4.4,39.5-3.9c15,0.5,24.7,2.9,35.4,6.3c4.6,1.5,8.9,4.7,12.9,8.9c4,4.2,7.5,9.2,10.4,13.9c0.7,1.1,1.3,3.3,1.7,6.8
	c0.4,3.4,0.4,7.4,0.2,11.6c-0.3,6.8-1.1,13.9-1.9,19.4l-33.7-4.9c0.4-3.7,0.8-8.2,1-12.6c0.1-3.1,0.1-6.1-0.2-8.9
	c-0.2-2.6-0.7-5.4-1.8-7.5c-2.2-4.5-5.5-7.1-9.8-8.5c-3.9-1.3-8.8-1.5-14.1-1.8C1046.2,132.5,1039.1,132.4,1030.4,137.6z"/>
<path class="st0" d="M930,163.5l0.3-4l-4.3-0.3v4.3V407v4.4l4.4-0.5l-0.4-4c0.4,4,0.4,4,0.4,4h0l0,0l0.1,0l0.4,0
	c0.4,0,0.9-0.1,1.6-0.2c1.4-0.2,3.5-0.4,6.2-0.7c5.3-0.6,12.9-1.4,22.2-2.5c18.5-2.1,43.3-5.2,69-8.7c25.6-3.5,52.1-7.6,73.8-11.8
	c10.8-2.1,20.5-4.3,28.3-6.4c7.6-2.1,13.9-4.4,17.6-6.8c13.1-8.6,22.6-19.6,28.9-33.9c6.2-14.2,8.9-31.6,8.9-52.9
	c0-39.1-9-77.7-37.9-95.9c-3.9-2.5-10.4-4.7-18.2-6.7c-7.9-2-17.7-4-28.6-5.9c-21.8-3.7-48.2-7.1-73.7-9.9
	c-25.5-2.8-50.2-5.1-68.5-6.7c-9.2-0.8-16.7-1.4-22-1.8c-2.6-0.2-4.7-0.4-6.1-0.5c-0.7-0.1-1.2-0.1-1.6-0.1l-0.4,0l-0.1,0l0,0h0
	C930.3,159.5,930.3,159.5,930,163.5z"/>
<path class="st0" d="M919,414c27,0,51.1-14.8,68.3-38.1c17.2-23.3,27.7-55.3,27.7-90.4s-10.5-67.1-27.7-90.4
	C970.1,171.8,946,157,919,157s-51.1,14.8-68.3,38.1c-17.2,23.3-27.7,55.3-27.7,90.4s10.5,67.1,27.7,90.4
	C867.9,399.2,892,414,919,414z"/>
<path class="st1" d="M1110,318.3c0,5.8-4.1,11.5-11.6,15.8c-7.4,4.3-17.8,7-29.4,7s-22-2.7-29.4-7c-7.5-4.3-11.6-10-11.6-15.8
	c0-5.8,4.1-11.5,11.6-15.8c7.4-4.3,17.8-7,29.4-7s22,2.7,29.4,7C1105.9,306.8,1110,312.5,1110,318.3z"/>
<path class="st2" d="M1052.9,335.8c7,0,13.4-1.9,18-5.1c4.7-3.2,7.8-7.7,7.8-12.9c0-5.2-3.1-9.7-7.8-12.9c-4.7-3.2-11.1-5.1-18-5.1
	c-7,0-13.4,1.9-18,5.1c-4.7,3.2-7.8,7.7-7.8,12.9c0,5.2,3.1,9.7,7.8,12.9C1039.6,333.9,1045.9,335.8,1052.9,335.8z"/>
<path class="st1" d="M1110,250.8c0,5.8-4.1,11.5-11.6,15.8c-7.4,4.3-17.8,7-29.4,7s-22-2.7-29.4-7c-7.5-4.3-11.6-10-11.6-15.8
	c0-5.8,4.1-11.5,11.6-15.8c7.4-4.3,17.8-7,29.4-7s22,2.7,29.4,7C1105.9,239.3,1110,244.9,1110,250.8z"/>
<path class="st2" d="M1052.9,268.3c7,0,13.4-1.9,18-5.1c4.7-3.2,7.8-7.7,7.8-12.9s-3.1-9.7-7.8-12.9c-4.7-3.2-11.1-5.1-18-5.1
	c-7,0-13.4,1.9-18,5.1c-4.7,3.2-7.8,7.7-7.8,12.9s3.1,9.7,7.8,12.9C1039.6,266.4,1045.9,268.3,1052.9,268.3z"/>
<path class="st3" d="M872.8,394.7c18.3-5.4,82-7.4,110.2-7.7c0,1.3-4,5.1-9.8,9.5c-5.8,4.3-18.6,8.9-24.3,10.6
	c-5.4,1.4-16.6,5.6-18.2,11c-2,6.8,15,7.9,24.9,11c9.8,3.2,14.5,7.4,11.3,15.5c-3.2,8.1-30.1,15.1-48,17.8
	c-17.9,2.7-13.3,0.9-46,1.6c-32.7,0.7-51.8-12.4-55.5-14c-3.8-1.6-7.5-7.2-7.2-12.8c0.3-5.6,26.6-8.6,35.3-9.5s14.7-4.3,14.7-8.1
	c0-3.2-17.3-3.2-17.9-8.3C841.5,406.1,849.9,401.4,872.8,394.7z"/>
<path class="st0" d="M1680.4,137.6c-2.5,1.5-4.2,4.1-5.3,6.5c-1.2,2.5-2.1,5.5-2.7,8.4c-0.9,4-1.4,8.3-1.7,11.9l-34.5-4.5
	c0.3-3.3,0.8-7.6,1.7-11.8c1.3-6.1,3.4-11.7,6.2-15.2c0.7-0.9,1.5-1.8,2.1-2.7c7.4-9.2,11.6-14.5,21.1-16.4
	c11.8-2.5,24.5-4.4,39.6-3.9c15,0.5,24.7,2.9,35.4,6.3c4.6,1.5,8.9,4.7,12.9,8.9c4,4.2,7.5,9.2,10.4,13.9c0.7,1.1,1.3,3.3,1.7,6.8
	c0.4,3.4,0.4,7.4,0.2,11.6c-0.3,6.8-1.1,13.9-1.9,19.4l-33.7-4.9c0.4-3.7,0.8-8.2,1-12.6c0.1-3.1,0.1-6.1-0.2-8.9
	c-0.2-2.6-0.7-5.4-1.8-7.5c-2.2-4.5-5.5-7.1-9.8-8.5c-3.9-1.3-8.8-1.5-14.1-1.8C1696.2,132.5,1689.1,132.4,1680.4,137.6z"/>
<path class="st0" d="M1580,163.5l0.3-4l-4.3-0.3v4.3V407v4.4l4.4-0.5l-0.4-4c0.4,4,0.4,4,0.4,4l0,0l0,0l0.1,0l0.4,0
	c0.4,0,0.9-0.1,1.6-0.2c1.4-0.2,3.5-0.4,6.2-0.7c5.3-0.6,12.9-1.4,22.2-2.5c18.4-2.1,43.3-5.2,69-8.7c25.6-3.5,52.1-7.6,73.8-11.8
	c10.8-2.1,20.5-4.3,28.3-6.4c7.6-2.1,13.9-4.4,17.6-6.8c13.1-8.6,22.6-19.6,28.9-33.9c6.2-14.2,8.9-31.6,8.9-52.9
	c0-39.1-9-77.7-37.9-95.9c-3.9-2.5-10.4-4.7-18.2-6.7c-7.9-2-17.7-4-28.6-5.9c-21.8-3.7-48.2-7.1-73.7-9.9
	c-25.5-2.8-50.2-5.1-68.5-6.7c-9.2-0.8-16.7-1.4-22-1.8c-2.6-0.2-4.7-0.4-6.1-0.5c-0.7-0.1-1.2-0.1-1.6-0.1l-0.4,0l-0.1,0l0,0l0,0
	C1580.3,159.5,1580.3,159.5,1580,163.5z"/>
<path class="st0" d="M1569,414c27,0,51.1-14.8,68.3-38.1c17.2-23.3,27.7-55.3,27.7-90.4s-10.5-67.1-27.7-90.4
	c-17.2-23.3-41.3-38.1-68.3-38.1s-51.1,14.8-68.3,38.1c-17.2,23.3-27.7,55.3-27.7,90.4s10.5,67.1,27.7,90.4
	C1517.9,399.2,1542,414,1569,414z"/>
<path class="st1" d="M1760,318.3c0,5.8-4.1,11.5-11.6,15.8c-7.4,4.3-17.8,7-29.4,7s-22-2.7-29.4-7c-7.5-4.3-11.6-10-11.6-15.8
	c0-5.8,4.1-11.5,11.6-15.8c7.4-4.3,17.8-7,29.4-7s22,2.7,29.4,7C1755.9,306.8,1760,312.5,1760,318.3z"/>
<path class="st2" d="M1702.9,335.8c7,0,13.4-1.9,18-5.1c4.7-3.2,7.8-7.7,7.8-12.9c0-5.2-3.1-9.7-7.8-12.9c-4.7-3.2-11.1-5.1-18-5.1
	c-7,0-13.4,1.9-18,5.1c-4.7,3.2-7.8,7.7-7.8,12.9c0,5.2,3.1,9.7,7.8,12.9C1689.6,333.9,1695.9,335.8,1702.9,335.8z"/>
<path class="st1" d="M1760,250.8c0,5.8-4.1,11.5-11.6,15.8c-7.4,4.3-17.8,7-29.4,7s-22-2.7-29.4-7c-7.5-4.3-11.6-10-11.6-15.8
	c0-5.8,4.1-11.5,11.6-15.8c7.4-4.3,17.8-7,29.4-7s22,2.7,29.4,7C1755.9,239.3,1760,244.9,1760,250.8z"/>
<path class="st2" d="M1702.9,268.3c7,0,13.4-1.9,18-5.1c4.7-3.2,7.8-7.7,7.8-12.9s-3.1-9.7-7.8-12.9c-4.7-3.2-11.1-5.1-18-5.1
	c-7,0-13.4,1.9-18,5.1c-4.7,3.2-7.8,7.7-7.8,12.9s3.1,9.7,7.8,12.9C1689.6,266.4,1695.9,268.3,1702.9,268.3z"/>
<path class="st3" d="M1489.3,392.6c23.7-6.8,106.1-9.4,142.7-9.6c0,1.6-5.2,6.5-12.7,11.9c-7.5,5.4-24.1,11.2-31.5,13.3
	c-7,1.8-21.5,7.1-23.6,13.9c-2.6,8.5,19.5,9.9,32.2,13.9c12.7,4,18.7,9.4,14.6,19.6c-4.1,10.2-39,19-62.2,22.4
	c-23.2,3.4-17.2,1.1-59.5,2c-42.3,0.9-67.1-15.6-71.9-17.6c-4.9-2-9.7-9.1-9.4-16.2c0.4-7.1,34.5-10.8,45.7-11.9
	c11.2-1.1,19.1-5.4,19.1-10.2c0-4-22.5-4-23.2-10.5C1448.8,407.1,1459.7,401.1,1489.3,392.6z"/>
<path class="st0" d="M2330.4,137.6c-2.5,1.5-4.2,4.1-5.3,6.5c-1.2,2.5-2.1,5.5-2.7,8.4c-0.9,4-1.4,8.3-1.7,11.9l-34.5-4.5
	c0.3-3.3,0.8-7.6,1.7-11.8c1.3-6.1,3.4-11.7,6.2-15.2c0.7-0.9,1.4-1.8,2.1-2.7c7.4-9.2,11.6-14.5,21.1-16.4
	c11.8-2.5,24.5-4.4,39.6-3.9c15,0.5,24.6,2.9,35.4,6.3c4.6,1.5,8.9,4.7,12.9,8.9c4,4.2,7.4,9.2,10.4,13.9c0.7,1.1,1.3,3.3,1.7,6.8
	c0.3,3.4,0.4,7.4,0.2,11.6c-0.3,6.8-1.1,13.9-1.9,19.4l-33.7-4.9c0.4-3.7,0.8-8.2,1-12.6c0.1-3.1,0.1-6.1-0.2-8.9
	c-0.2-2.6-0.7-5.4-1.8-7.5c-2.2-4.5-5.5-7.1-9.8-8.5c-3.9-1.3-8.8-1.5-14.1-1.8C2346.2,132.5,2339.1,132.4,2330.4,137.6z"/>
<path class="st0" d="M2230,163.5l0.3-4l-4.3-0.3v4.3V407v4.4l4.4-0.5l-0.4-4c0.4,4,0.4,4,0.4,4l0,0l0,0l0.1,0l0.4,0
	c0.4,0,0.9-0.1,1.6-0.2c1.4-0.2,3.5-0.4,6.2-0.7c5.3-0.6,12.9-1.4,22.2-2.5c18.4-2.1,43.3-5.2,69-8.7c25.7-3.5,52.1-7.6,73.8-11.8
	c10.8-2.1,20.5-4.3,28.3-6.4c7.6-2.1,13.9-4.4,17.6-6.8c13.1-8.6,22.6-19.6,28.9-33.9c6.2-14.2,8.9-31.6,8.9-52.9
	c0-39.1-9-77.7-37.9-95.9c-3.9-2.5-10.4-4.7-18.2-6.7c-7.9-2-17.7-4-28.6-5.9c-21.8-3.7-48.2-7.1-73.7-9.9
	c-25.5-2.8-50.2-5.1-68.5-6.7c-9.2-0.8-16.7-1.4-22-1.8c-2.6-0.2-4.7-0.4-6.1-0.5c-0.7-0.1-1.2-0.1-1.6-0.1l-0.4,0l-0.1,0l0,0l0,0
	C2230.3,159.5,2230.3,159.5,2230,163.5z"/>
<path class="st0" d="M2219,414c27,0,51.1-14.8,68.3-38.1c17.2-23.3,27.7-55.3,27.7-90.4s-10.5-67.1-27.7-90.4
	c-17.2-23.3-41.3-38.1-68.3-38.1s-51.1,14.8-68.3,38.1c-17.2,23.3-27.7,55.3-27.7,90.4s10.5,67.1,27.7,90.4
	C2167.9,399.2,2192,414,2219,414z"/>
<path class="st1" d="M2410,318.3c0,5.8-4.1,11.5-11.6,15.8c-7.4,4.3-17.8,7-29.4,7s-22-2.7-29.4-7c-7.5-4.3-11.6-10-11.6-15.8
	c0-5.8,4.1-11.5,11.6-15.8c7.4-4.3,17.8-7,29.4-7s22,2.7,29.4,7C2405.9,306.8,2410,312.5,2410,318.3z"/>
<path class="st2" d="M2352.9,335.8c7,0,13.4-1.9,18-5.1c4.7-3.2,7.8-7.7,7.8-12.9c0-5.2-3.1-9.7-7.8-12.9c-4.7-3.2-11.1-5.1-18-5.1
	s-13.4,1.9-18,5.1c-4.7,3.2-7.8,7.7-7.8,12.9c0,5.2,3.1,9.7,7.8,12.9C2339.6,333.9,2345.9,335.8,2352.9,335.8z"/>
<path class="st1" d="M2410,250.8c0,5.8-4.1,11.5-11.6,15.8c-7.4,4.3-17.8,7-29.4,7s-22-2.7-29.4-7c-7.5-4.3-11.6-10-11.6-15.8
	c0-5.8,4.1-11.5,11.6-15.8c7.4-4.3,17.8-7,29.4-7s22,2.7,29.4,7C2405.9,239.3,2410,244.9,2410,250.8z"/>
<path class="st2" d="M2352.9,268.3c7,0,13.4-1.9,18-5.1c4.7-3.2,7.8-7.7,7.8-12.9s-3.1-9.7-7.8-12.9c-4.7-3.2-11.1-5.1-18-5.1
	s-13.4,1.9-18,5.1c-4.7,3.2-7.8,7.7-7.8,12.9s3.1,9.7,7.8,12.9C2339.6,266.4,2345.9,268.3,2352.9,268.3z"/>
<path class="st3" d="M2111.3,394.5c28.3-8.1,127-11.2,170.7-11.5c0,1.9-6.3,7.7-15.2,14.2c-9,6.5-28.8,13.3-37.6,15.9
	c-8.4,2.1-25.7,8.5-28.2,16.6c-3.1,10.2,23.3,11.9,38.5,16.6c15.2,4.7,22.4,11.2,17.5,23.4c-4.9,12.2-46.6,22.7-74.4,26.8
	c-27.8,4.1-20.6,1.4-71.2,2.4c-50.6,1-80.2-18.6-86-21c-5.8-2.4-11.7-10.9-11.2-19.3c0.4-8.5,41.2-12.9,54.7-14.2
	c13.4-1.4,22.8-6.4,22.8-12.2c0-4.7-26.9-4.7-27.8-12.5C2062.9,411.8,2075.9,404.7,2111.3,394.5z"/>
<path class="st0" d="M2980.4,137.6c-2.5,1.5-4.2,4.1-5.3,6.5c-1.2,2.5-2.1,5.5-2.7,8.4c-0.9,4-1.4,8.3-1.7,11.9l-34.5-4.5
	c0.3-3.3,0.8-7.6,1.7-11.8c1.3-6.1,3.4-11.7,6.2-15.2c0.7-0.9,1.4-1.8,2.1-2.7c7.4-9.2,11.6-14.5,21.1-16.4
	c11.8-2.5,24.5-4.4,39.6-3.9c15,0.5,24.6,2.9,35.4,6.3c4.6,1.5,8.9,4.7,12.9,8.9c4,4.2,7.4,9.2,10.4,13.9c0.7,1.1,1.3,3.3,1.7,6.8
	c0.3,3.4,0.4,7.4,0.2,11.6c-0.3,6.8-1.1,13.9-1.9,19.4l-33.7-4.9c0.4-3.7,0.8-8.2,1-12.6c0.1-3.1,0.1-6.1-0.2-8.9
	c-0.2-2.6-0.7-5.4-1.8-7.5c-2.2-4.5-5.5-7.1-9.8-8.5c-3.9-1.3-8.8-1.5-14.1-1.8C2996.2,132.5,2989.1,132.4,2980.4,137.6z"/>
<path class="st0" d="M2880,163.5l0.3-4l-4.3-0.3v4.3V407v4.4l4.4-0.5l-0.4-4c0.4,4,0.4,4,0.4,4l0,0l0,0l0.1,0l0.4,0
	c0.4,0,0.9-0.1,1.6-0.2c1.4-0.2,3.5-0.4,6.2-0.7c5.3-0.6,12.9-1.4,22.2-2.5c18.4-2.1,43.3-5.2,69-8.7c25.7-3.5,52.1-7.6,73.8-11.8
	c10.8-2.1,20.5-4.3,28.3-6.4c7.6-2.1,13.9-4.4,17.6-6.8c13.1-8.6,22.6-19.6,28.9-33.9c6.2-14.2,8.9-31.6,8.9-52.9
	c0-39.1-9-77.7-37.9-95.9c-3.9-2.5-10.4-4.7-18.2-6.7c-7.9-2-17.7-4-28.6-5.9c-21.8-3.7-48.2-7.1-73.7-9.9
	c-25.5-2.8-50.2-5.1-68.5-6.7c-9.2-0.8-16.7-1.4-22-1.8c-2.6-0.2-4.7-0.4-6.1-0.5c-0.7-0.1-1.2-0.1-1.6-0.1l-0.4,0l-0.1,0l0,0l0,0
	C2880.3,159.5,2880.3,159.5,2880,163.5z"/>
<path class="st0" d="M2869,414c27,0,51.1-14.8,68.3-38.1c17.2-23.3,27.7-55.3,27.7-90.4s-10.5-67.1-27.7-90.4
	c-17.2-23.3-41.3-38.1-68.3-38.1s-51.1,14.8-68.3,38.1c-17.2,23.3-27.7,55.3-27.7,90.4s10.5,67.1,27.7,90.4
	C2817.9,399.2,2842,414,2869,414z"/>
<path class="st1" d="M3060,318.3c0,5.8-4.1,11.5-11.6,15.8c-7.4,4.3-17.8,7-29.4,7s-22-2.7-29.4-7c-7.5-4.3-11.6-10-11.6-15.8
	c0-5.8,4.1-11.5,11.6-15.8c7.4-4.3,17.8-7,29.4-7s22,2.7,29.4,7C3055.9,306.8,3060,312.5,3060,318.3z"/>
<path class="st2" d="M3002.9,335.8c7,0,13.4-1.9,18-5.1c4.7-3.2,7.8-7.7,7.8-12.9c0-5.2-3.1-9.7-7.8-12.9c-4.7-3.2-11.1-5.1-18-5.1
	s-13.4,1.9-18,5.1c-4.7,3.2-7.8,7.7-7.8,12.9c0,5.2,3.1,9.7,7.8,12.9C2989.6,333.9,2995.9,335.8,3002.9,335.8z"/>
<path class="st1" d="M3060,250.8c0,5.8-4.1,11.5-11.6,15.8c-7.4,4.3-17.8,7-29.4,7s-22-2.7-29.4-7c-7.5-4.3-11.6-10-11.6-15.8
	c0-5.8,4.1-11.5,11.6-15.8c7.4-4.3,17.8-7,29.4-7s22,2.7,29.4,7C3055.9,239.3,3060,244.9,3060,250.8z"/>
<path class="st2" d="M3002.9,268.3c7,0,13.4-1.9,18-5.1c4.7-3.2,7.8-7.7,7.8-12.9s-3.1-9.7-7.8-12.9c-4.7-3.2-11.1-5.1-18-5.1
	s-13.4,1.9-18,5.1c-4.7,3.2-7.8,7.7-7.8,12.9s3.1,9.7,7.8,12.9C2989.6,266.4,2995.9,268.3,3002.9,268.3z"/>
<path class="st3" d="M2722.7,388c35.7-12,160.1-16.5,215.3-17c0,2.8-7.9,11.4-19.2,21c-11.3,9.6-36.4,19.7-47.5,23.5
	c-10.6,3.2-32.4,12.5-35.6,24.5c-4,15,29.4,17.5,48.6,24.5c19.2,7,28.3,16.5,22,34.5c-6.2,18-58.8,33.5-93.8,39.5s-26,2-89.9,3.5
	c-63.9,1.5-101.2-27.5-108.5-31c-7.3-3.5-14.7-16-14.1-28.5c0.6-12.5,52-19,68.9-21c17-2,28.8-9.5,28.8-18c0-7-33.9-7-35-18.5
	C2661.6,413.5,2678,403,2722.7,388z"/>
</svg>
