<svg width="1980" height="660" viewBox="0 0 1980 660" fill="none" xmlns="http://www.w3.org/2000/svg">
<path d="M275.5 403L290.5 491.5H250.5" stroke="#292929" stroke-width="15" stroke-linecap="round"/>
<path d="M343 401.5L364 487.5H404" stroke="#292929" stroke-width="15" stroke-linecap="round"/>
<path d="M448.749 185.994C448.748 185.994 448.751 185.982 448.758 185.955C448.753 185.98 448.749 185.994 448.749 185.994ZM435.535 322.519C435.529 322.566 435.526 322.561 435.535 322.516C435.535 322.517 435.535 322.518 435.535 322.519ZM446.209 319.719L443.519 317.534L446.209 319.719C452.529 311.939 460.419 305.453 468.627 298.704C470.139 297.461 471.661 296.21 473.186 294.94C482.844 286.898 492.512 278.182 498.927 266.657C508.479 249.493 509.888 231.606 511.308 213.575C511.424 212.101 511.54 210.626 511.661 209.151C512.745 195.898 511.837 180.992 508.753 167.89C506.362 157.737 500.991 149.624 491.931 143.349C487.824 140.505 482.952 139.104 478.233 138.374C473.508 137.644 468.669 137.552 464.537 137.506L464.482 137.506C463.119 137.491 460.664 137.463 458.362 137.954C456.531 138.344 453.779 139.284 452.287 141.766C448.881 143.944 447.533 147.734 446.844 150.739C446.443 152.487 446.199 154.285 445.991 155.824C445.773 157.447 445.601 158.718 445.356 159.733C444.459 163.445 444.358 167.267 444.269 170.645C444.263 170.865 444.257 171.083 444.252 171.298C444.151 174.988 444.003 178.151 443.134 181.041C443.083 181.209 442.961 181.515 442.725 182.101L442.688 182.193C442.486 182.697 442.179 183.461 441.997 184.14C441.919 184.432 441.764 185.051 441.797 185.753C441.813 186.109 441.889 186.794 442.306 187.514C442.799 188.364 443.64 189.026 444.692 189.257C445.587 189.453 446.33 189.271 446.719 189.144C447.139 189.007 447.483 188.821 447.722 188.675C448.2 188.385 448.663 188.011 449.084 187.637C451.476 185.517 453.718 183.794 456.445 182.211C460.101 180.089 463.86 178.299 467.438 177.632C470.903 176.986 474.012 177.415 476.799 179.52C479.459 181.529 481.012 185.088 481.788 189.703C482.529 194.114 482.458 198.83 482.398 202.785C482.396 202.919 482.394 203.052 482.392 203.184C482.164 218.555 474.647 232.228 465.232 245.704C459.884 253.358 453.822 259.873 446.952 266.724C440.2 273.457 434.482 279.958 432.78 290.172C432.589 291.32 432.358 292.578 432.113 293.912C431.462 297.467 430.711 301.564 430.342 305.55C429.835 311.05 429.956 317.081 432.337 322.21C432.599 322.775 433.554 324.403 434.612 325.569C434.896 325.883 435.275 326.263 435.732 326.595C436.126 326.88 436.948 327.409 438.073 327.49C439.519 327.593 440.798 326.918 441.578 325.843C442.056 325.186 442.281 324.478 442.395 323.912C442.418 323.88 442.444 323.844 442.474 323.803C442.713 323.477 443.076 323.055 443.539 322.555C443.926 322.138 444.327 321.726 444.724 321.318C444.797 321.244 444.869 321.17 444.941 321.095C445.355 320.669 445.862 320.147 446.209 319.719Z" fill="white" stroke="#292929" stroke-width="7" stroke-linecap="round"/>
<path d="M307.933 54.0513C279.809 54.7367 246.857 62.6815 218.999 73.5758C205.051 79.0303 192.272 85.2658 181.937 91.781C171.698 98.2354 163.481 105.197 159.102 112.24C156.565 116.32 155.501 122.667 155.143 129.888C154.775 137.318 155.136 146.446 155.995 156.667C157.715 177.123 161.473 202.405 165.698 228.131C167.759 240.678 169.913 253.233 172.004 265.419C174.232 278.407 176.389 290.978 178.285 302.676C181.952 325.313 184.486 343.804 184.486 354.226C184.486 378.622 205.576 394.307 231.873 403.598C258.521 413.013 292.47 416.66 322.302 415.947C350.618 415.27 380.971 411.228 403.763 400.832C415.191 395.619 424.96 388.7 431.543 379.569C438.186 370.354 441.398 359.135 440.06 345.784C438.857 333.788 439.818 313.711 441.891 289.721C443.956 265.834 447.087 238.422 450.117 211.913L450.143 211.689C453.159 185.297 456.074 159.792 457.706 139.721C458.523 129.662 459.025 120.885 459.049 114.003C459.061 110.565 458.954 107.528 458.692 105.003C458.44 102.574 458.013 100.257 457.195 98.4836C455.733 95.3105 452.909 92.4238 449.522 89.8239C446.066 87.1715 441.679 84.5584 436.635 82.0324C426.539 76.9766 413.445 72.0872 399.023 67.8523C370.212 59.3924 335.525 53.3789 307.933 54.0513Z" fill="white" stroke="#292929" stroke-width="8"/>
<ellipse cx="309.668" cy="115.553" rx="119.5" ry="34" fill="#292929"/>
<path d="M311.668 232.453C311.668 242.797 309.333 252.037 305.685 258.604C301.99 265.255 297.285 268.653 292.668 268.653C288.051 268.653 283.346 265.255 279.651 258.604C276.003 252.037 273.668 242.797 273.668 232.453C273.668 222.109 276.003 212.868 279.651 206.302C283.346 199.651 288.051 196.253 292.668 196.253C297.285 196.253 301.99 199.651 305.685 206.302C309.333 212.868 311.668 222.109 311.668 232.453Z" fill="white" stroke="#292929" stroke-width="5"/>
<path d="M299.335 233.17C299.335 240.025 297.746 246.208 295.202 250.658C292.651 255.123 289.202 257.753 285.501 257.753C281.8 257.753 278.352 255.123 275.8 250.658C273.257 246.208 271.668 240.025 271.668 233.17C271.668 226.314 273.257 220.132 275.8 215.681C278.352 211.216 281.8 208.586 285.501 208.586C289.202 208.586 292.651 211.216 295.202 215.681C297.746 220.132 299.335 226.314 299.335 233.17Z" fill="#292929" stroke="#292929"/>
<path d="M245.668 232.253C245.668 242.596 243.333 251.837 239.685 258.404C235.99 265.055 231.285 268.453 226.668 268.453C222.051 268.453 217.346 265.055 213.651 258.404C210.003 251.837 207.668 242.596 207.668 232.253C207.668 221.909 210.003 212.668 213.651 206.102C217.346 199.451 222.051 196.053 226.668 196.053C231.285 196.053 235.99 199.451 239.685 206.102C243.333 212.668 245.668 221.909 245.668 232.253Z" fill="white" stroke="#292929" stroke-width="5"/>
<path d="M233.335 232.97C233.335 239.825 231.746 246.007 229.202 250.458C226.651 254.923 223.202 257.553 219.501 257.553C215.8 257.553 212.352 254.923 209.8 250.458C207.257 246.007 205.668 239.825 205.668 232.97C205.668 226.114 207.257 219.932 209.8 215.481C212.352 211.016 215.8 208.386 219.501 208.386C223.202 208.386 226.651 211.016 229.202 215.481C231.746 219.932 233.335 226.114 233.335 232.97Z" fill="#292929" stroke="#292929"/>
<circle cx="236" cy="593" r="24" fill="#FA8C05"/>
<circle cx="331" cy="593" r="24" fill="#D9D9D9"/>
<circle cx="426" cy="593" r="24" fill="#D9D9D9"/>
<path d="M924.382 375.128L846.229 460.504L820.473 429.9" stroke="#292929" stroke-width="15" stroke-linecap="round"/>
<path d="M999 374.471L1078.49 453.366L1111.49 430.763" stroke="#292929" stroke-width="15" stroke-linecap="round"/>
<path d="M1108.75 166.994C1108.75 166.994 1108.75 166.982 1108.76 166.955C1108.75 166.98 1108.75 166.994 1108.75 166.994ZM1095.53 303.519C1095.53 303.566 1095.53 303.561 1095.54 303.516C1095.54 303.517 1095.54 303.518 1095.53 303.519ZM1106.21 300.719L1103.52 298.534L1106.21 300.719C1112.53 292.939 1120.42 286.453 1128.63 279.704C1130.14 278.461 1131.66 277.21 1133.19 275.94C1142.84 267.898 1152.51 259.182 1158.93 247.657C1168.48 230.493 1169.89 212.606 1171.31 194.575C1171.42 193.101 1171.54 191.626 1171.66 190.151C1172.74 176.898 1171.84 161.992 1168.75 148.89C1166.36 138.737 1160.99 130.624 1151.93 124.349C1147.82 121.505 1142.95 120.104 1138.23 119.374C1133.51 118.644 1128.67 118.552 1124.54 118.506L1124.48 118.506C1123.12 118.491 1120.66 118.463 1118.36 118.954C1116.53 119.344 1113.78 120.284 1112.29 122.766C1108.88 124.944 1107.53 128.734 1106.84 131.739C1106.44 133.487 1106.2 135.285 1105.99 136.824C1105.77 138.447 1105.6 139.718 1105.36 140.733C1104.46 144.445 1104.36 148.267 1104.27 151.645C1104.26 151.865 1104.26 152.083 1104.25 152.298C1104.15 155.988 1104 159.151 1103.13 162.041C1103.08 162.209 1102.96 162.515 1102.73 163.101L1102.69 163.193C1102.49 163.697 1102.18 164.461 1102 165.14C1101.92 165.432 1101.76 166.051 1101.8 166.753C1101.81 167.109 1101.89 167.794 1102.31 168.514C1102.8 169.364 1103.64 170.026 1104.69 170.257C1105.59 170.453 1106.33 170.271 1106.72 170.144C1107.14 170.007 1107.48 169.821 1107.72 169.675C1108.2 169.385 1108.66 169.011 1109.08 168.637C1111.48 166.517 1113.72 164.794 1116.45 163.211C1120.1 161.089 1123.86 159.299 1127.44 158.632C1130.9 157.986 1134.01 158.415 1136.8 160.52C1139.46 162.529 1141.01 166.088 1141.79 170.703C1142.53 175.114 1142.46 179.83 1142.4 183.785C1142.4 183.919 1142.39 184.052 1142.39 184.184C1142.16 199.555 1134.65 213.228 1125.23 226.704C1119.88 234.358 1113.82 240.873 1106.95 247.724C1100.2 254.457 1094.48 260.958 1092.78 271.172C1092.59 272.32 1092.36 273.578 1092.11 274.912C1091.46 278.467 1090.71 282.564 1090.34 286.55C1089.83 292.05 1089.96 298.081 1092.34 303.21C1092.6 303.775 1093.55 305.403 1094.61 306.569C1094.9 306.883 1095.28 307.263 1095.73 307.595C1096.13 307.88 1096.95 308.409 1098.07 308.49C1099.52 308.593 1100.8 307.918 1101.58 306.843C1102.06 306.186 1102.28 305.478 1102.4 304.912C1102.42 304.88 1102.44 304.844 1102.47 304.803C1102.71 304.477 1103.08 304.055 1103.54 303.555C1103.93 303.138 1104.33 302.726 1104.72 302.318C1104.8 302.244 1104.87 302.17 1104.94 302.095C1105.36 301.669 1105.86 301.147 1106.21 300.719Z" fill="white" stroke="#292929" stroke-width="7" stroke-linecap="round"/>
<path d="M967.933 35.0513C939.809 35.7367 906.857 43.6815 878.999 54.5758C865.051 60.0303 852.272 66.2658 841.937 72.781C831.698 79.2354 823.481 86.1968 819.102 93.2396C816.565 97.3195 815.501 103.667 815.143 110.888C814.775 118.318 815.136 127.446 815.995 137.667C817.715 158.123 821.473 183.405 825.698 209.131C827.759 221.678 829.913 234.233 832.004 246.419C834.232 259.407 836.389 271.978 838.285 283.676C841.952 306.313 844.486 324.804 844.486 335.226C844.486 359.622 865.576 375.307 891.873 384.598C918.521 394.013 952.47 397.66 982.302 396.947C1010.62 396.27 1040.97 392.228 1063.76 381.832C1075.19 376.619 1084.96 369.7 1091.54 360.569C1098.19 351.354 1101.4 340.135 1100.06 326.784C1098.86 314.788 1099.82 294.711 1101.89 270.721C1103.96 246.834 1107.09 219.422 1110.12 192.913L1110.14 192.689C1113.16 166.297 1116.07 140.792 1117.71 120.721C1118.52 110.662 1119.03 101.885 1119.05 95.0031C1119.06 91.5647 1118.95 88.5277 1118.69 86.0032C1118.44 83.5736 1118.01 81.2566 1117.2 79.4836C1115.73 76.3105 1112.91 73.4238 1109.52 70.8239C1106.07 68.1715 1101.68 65.5584 1096.63 63.0324C1086.54 57.9766 1073.45 53.0872 1059.02 48.8523C1030.21 40.3924 995.525 34.3789 967.933 35.0513Z" fill="white" stroke="#292929" stroke-width="8"/>
<ellipse cx="969.668" cy="96.5527" rx="119.5" ry="34" fill="#292929"/>
<path d="M971.668 213.453C971.668 223.797 969.333 233.037 965.685 239.604C961.99 246.255 957.285 249.653 952.668 249.653C948.051 249.653 943.346 246.255 939.651 239.604C936.003 233.037 933.668 223.797 933.668 213.453C933.668 203.109 936.003 193.868 939.651 187.302C943.346 180.651 948.051 177.253 952.668 177.253C957.285 177.253 961.99 180.651 965.685 187.302C969.333 193.868 971.668 203.109 971.668 213.453Z" fill="white" stroke="#292929" stroke-width="5"/>
<path d="M959.335 214.17C959.335 221.025 957.746 227.208 955.202 231.658C952.651 236.123 949.202 238.753 945.501 238.753C941.8 238.753 938.352 236.123 935.8 231.658C933.257 227.208 931.668 221.025 931.668 214.17C931.668 207.314 933.257 201.132 935.8 196.681C938.352 192.216 941.8 189.586 945.501 189.586C949.202 189.586 952.651 192.216 955.202 196.681C957.746 201.132 959.335 207.314 959.335 214.17Z" fill="#292929" stroke="#292929"/>
<path d="M905.668 213.253C905.668 223.596 903.333 232.837 899.685 239.404C895.99 246.055 891.285 249.453 886.668 249.453C882.051 249.453 877.346 246.055 873.651 239.404C870.003 232.837 867.668 223.596 867.668 213.253C867.668 202.909 870.003 193.668 873.651 187.102C877.346 180.451 882.051 177.053 886.668 177.053C891.285 177.053 895.99 180.451 899.685 187.102C903.333 193.668 905.668 202.909 905.668 213.253Z" fill="white" stroke="#292929" stroke-width="5"/>
<path d="M893.335 213.97C893.335 220.825 891.746 227.007 889.202 231.458C886.651 235.923 883.202 238.553 879.501 238.553C875.8 238.553 872.352 235.923 869.8 231.458C867.257 227.007 865.668 220.825 865.668 213.97C865.668 207.114 867.257 200.932 869.8 196.481C872.352 192.016 875.8 189.386 879.501 189.386C883.202 189.386 886.651 192.016 889.202 196.481C891.746 200.932 893.335 207.114 893.335 213.97Z" fill="#292929" stroke="#292929"/>
<circle cx="896" cy="593" r="24" fill="#FA8C05"/>
<circle cx="991" cy="593" r="24" fill="#FA8C05"/>
<circle cx="1086" cy="593" r="24" fill="#D9D9D9"/>
<path d="M1587.91 379.979L1439.32 439.442L1428 401.076" stroke="#292929" stroke-width="15" stroke-linecap="round"/>
<path d="M1674 382.414L1817.04 425.123L1833.76 388.786" stroke="#292929" stroke-width="15" stroke-linecap="round"/>
<path d="M1768.75 155.994C1768.75 155.994 1768.75 155.982 1768.76 155.955C1768.75 155.98 1768.75 155.994 1768.75 155.994ZM1755.53 292.519C1755.53 292.566 1755.53 292.561 1755.54 292.516C1755.54 292.517 1755.54 292.518 1755.53 292.519ZM1766.21 289.719L1763.52 287.534L1766.21 289.719C1772.53 281.939 1780.42 275.453 1788.63 268.704C1790.14 267.461 1791.66 266.21 1793.19 264.94C1802.84 256.898 1812.51 248.182 1818.93 236.657C1828.48 219.493 1829.89 201.606 1831.31 183.575C1831.42 182.101 1831.54 180.626 1831.66 179.151C1832.74 165.898 1831.84 150.992 1828.75 137.89C1826.36 127.737 1820.99 119.624 1811.93 113.349C1807.82 110.505 1802.95 109.104 1798.23 108.374C1793.51 107.644 1788.67 107.552 1784.54 107.506L1784.48 107.506C1783.12 107.491 1780.66 107.463 1778.36 107.954C1776.53 108.344 1773.78 109.284 1772.29 111.766C1768.88 113.944 1767.53 117.734 1766.84 120.739C1766.44 122.487 1766.2 124.285 1765.99 125.824C1765.77 127.447 1765.6 128.718 1765.36 129.733C1764.46 133.445 1764.36 137.267 1764.27 140.645C1764.26 140.865 1764.26 141.083 1764.25 141.298C1764.15 144.988 1764 148.151 1763.13 151.041C1763.08 151.209 1762.96 151.515 1762.73 152.101L1762.69 152.193C1762.49 152.697 1762.18 153.461 1762 154.14C1761.92 154.432 1761.76 155.051 1761.8 155.753C1761.81 156.109 1761.89 156.794 1762.31 157.514C1762.8 158.364 1763.64 159.026 1764.69 159.257C1765.59 159.453 1766.33 159.271 1766.72 159.144C1767.14 159.007 1767.48 158.821 1767.72 158.675C1768.2 158.385 1768.66 158.011 1769.08 157.637C1771.48 155.517 1773.72 153.794 1776.45 152.211C1780.1 150.089 1783.86 148.299 1787.44 147.632C1790.9 146.986 1794.01 147.415 1796.8 149.52C1799.46 151.529 1801.01 155.088 1801.79 159.703C1802.53 164.114 1802.46 168.83 1802.4 172.785C1802.4 172.919 1802.39 173.052 1802.39 173.184C1802.16 188.555 1794.65 202.228 1785.23 215.704C1779.88 223.358 1773.82 229.873 1766.95 236.724C1760.2 243.457 1754.48 249.958 1752.78 260.172C1752.59 261.32 1752.36 262.578 1752.11 263.912C1751.46 267.467 1750.71 271.564 1750.34 275.55C1749.83 281.05 1749.96 287.081 1752.34 292.21C1752.6 292.775 1753.55 294.403 1754.61 295.569C1754.9 295.883 1755.28 296.263 1755.73 296.595C1756.13 296.88 1756.95 297.409 1758.07 297.49C1759.52 297.593 1760.8 296.918 1761.58 295.843C1762.06 295.186 1762.28 294.478 1762.4 293.912C1762.42 293.88 1762.44 293.844 1762.47 293.803C1762.71 293.477 1763.08 293.055 1763.54 292.555C1763.93 292.138 1764.33 291.726 1764.72 291.318C1764.8 291.244 1764.87 291.17 1764.94 291.095C1765.36 290.669 1765.86 290.147 1766.21 289.719Z" fill="white" stroke="#292929" stroke-width="7" stroke-linecap="round"/>
<path d="M1627.93 24.0513C1599.81 24.7367 1566.86 32.6815 1539 43.5758C1525.05 49.0303 1512.27 55.2658 1501.94 61.781C1491.7 68.2354 1483.48 75.1968 1479.1 82.2396C1476.56 86.3195 1475.5 92.6671 1475.14 99.8876C1474.78 107.318 1475.14 116.446 1476 126.667C1477.71 147.123 1481.47 172.405 1485.7 198.131C1487.76 210.678 1489.91 223.233 1492 235.419C1494.23 248.407 1496.39 260.978 1498.28 272.676C1501.95 295.313 1504.49 313.804 1504.49 324.226C1504.49 348.622 1525.58 364.307 1551.87 373.598C1578.52 383.013 1612.47 386.66 1642.3 385.947C1670.62 385.27 1700.97 381.228 1723.76 370.832C1735.19 365.619 1744.96 358.7 1751.54 349.569C1758.19 340.354 1761.4 329.135 1760.06 315.784C1758.86 303.788 1759.82 283.711 1761.89 259.721C1763.96 235.834 1767.09 208.422 1770.12 181.913L1770.14 181.689C1773.16 155.297 1776.07 129.792 1777.71 109.721C1778.52 99.662 1779.03 90.8849 1779.05 84.0031C1779.06 80.5647 1778.95 77.5277 1778.69 75.0032C1778.44 72.5736 1778.01 70.2566 1777.2 68.4836C1775.73 65.3105 1772.91 62.4238 1769.52 59.8239C1766.07 57.1715 1761.68 54.5584 1756.63 52.0324C1746.54 46.9766 1733.45 42.0872 1719.02 37.8523C1690.21 29.3924 1655.53 23.3789 1627.93 24.0513Z" fill="white" stroke="#292929" stroke-width="8"/>
<ellipse cx="1629.67" cy="85.5527" rx="119.5" ry="34" fill="#292929"/>
<path d="M1631.67 202.453C1631.67 212.797 1629.33 222.037 1625.69 228.604C1621.99 235.255 1617.28 238.653 1612.67 238.653C1608.05 238.653 1603.35 235.255 1599.65 228.604C1596 222.037 1593.67 212.797 1593.67 202.453C1593.67 192.109 1596 182.868 1599.65 176.302C1603.35 169.651 1608.05 166.253 1612.67 166.253C1617.28 166.253 1621.99 169.651 1625.69 176.302C1629.33 182.868 1631.67 192.109 1631.67 202.453Z" fill="white" stroke="#292929" stroke-width="5"/>
<path d="M1619.33 203.17C1619.33 210.025 1617.75 216.208 1615.2 220.658C1612.65 225.123 1609.2 227.753 1605.5 227.753C1601.8 227.753 1598.35 225.123 1595.8 220.658C1593.26 216.208 1591.67 210.025 1591.67 203.17C1591.67 196.314 1593.26 190.132 1595.8 185.681C1598.35 181.216 1601.8 178.586 1605.5 178.586C1609.2 178.586 1612.65 181.216 1615.2 185.681C1617.75 190.132 1619.33 196.314 1619.33 203.17Z" fill="#292929" stroke="#292929"/>
<path d="M1565.67 202.253C1565.67 212.596 1563.33 221.837 1559.69 228.404C1555.99 235.055 1551.28 238.453 1546.67 238.453C1542.05 238.453 1537.35 235.055 1533.65 228.404C1530 221.837 1527.67 212.596 1527.67 202.253C1527.67 191.909 1530 182.668 1533.65 176.102C1537.35 169.451 1542.05 166.053 1546.67 166.053C1551.28 166.053 1555.99 169.451 1559.69 176.102C1563.33 182.668 1565.67 191.909 1565.67 202.253Z" fill="white" stroke="#292929" stroke-width="5"/>
<path d="M1553.33 202.97C1553.33 209.825 1551.75 216.007 1549.2 220.458C1546.65 224.923 1543.2 227.553 1539.5 227.553C1535.8 227.553 1532.35 224.923 1529.8 220.458C1527.26 216.007 1525.67 209.825 1525.67 202.97C1525.67 196.114 1527.26 189.932 1529.8 185.481C1532.35 181.016 1535.8 178.386 1539.5 178.386C1543.2 178.386 1546.65 181.016 1549.2 185.481C1551.75 189.932 1553.33 196.114 1553.33 202.97Z" fill="#292929" stroke="#292929"/>
<circle cx="1556" cy="593" r="24" fill="#FA8C05"/>
<circle cx="1651" cy="593" r="24" fill="#FA8C05"/>
<circle cx="1746" cy="593" r="24" fill="#FA8C05"/>
</svg>
