<?xml version="1.0" encoding="utf-8"?>
<!-- Generator: Adobe Illustrator 25.0.0, SVG Export Plug-In . SVG Version: 6.00 Build 0)  -->
<svg version="1.1" id="圖層_1" xmlns="http://www.w3.org/2000/svg" xmlns:xlink="http://www.w3.org/1999/xlink" x="0px" y="0px"
	 viewBox="0 0 1980 660" style="enable-background:new 0 0 1980 660;" xml:space="preserve">
<style type="text/css">
	.st0{fill:none;stroke:#292929;stroke-width:15;stroke-linecap:round;}
	.st1{fill:#FFFFFF;stroke:#292929;stroke-width:7;stroke-linecap:round;}
	.st2{fill:#FFFFFF;stroke:#292929;stroke-width:8;}
	.st3{fill:#292929;}
	.st4{fill:#FFFFFF;stroke:#292929;stroke-width:5;}
	.st5{fill:#292929;stroke:#292929;}
	.st6{fill:#FA8C05;}
	.st7{fill:#D9D9D9;}
</style>
<path class="st0" d="M275.5,403l15,88.5h-40"/>
<path class="st0" d="M343,401.5l21,86h40"/>
<path class="st1" d="M448.7,186C448.7,186,448.8,186,448.7,186C448.8,186,448.7,186,448.7,186z M435.5,322.5
	C435.5,322.6,435.5,322.6,435.5,322.5C435.5,322.5,435.5,322.5,435.5,322.5z M446.2,319.7l-2.7-2.2L446.2,319.7
	c6.3-7.8,14.2-14.3,22.4-21c1.5-1.2,3-2.5,4.6-3.8c9.7-8,19.3-16.8,25.7-28.3c9.6-17.2,11-35.1,12.4-53.1c0.1-1.5,0.2-2.9,0.4-4.4
	c1.1-13.3,0.2-28.2-2.9-41.3c-2.4-10.2-7.8-18.3-16.8-24.5c-4.1-2.8-9-4.2-13.7-5c-4.7-0.7-9.6-0.8-13.7-0.9h-0.1
	c-1.4,0-3.8,0-6.1,0.4c-1.8,0.4-4.6,1.3-6.1,3.8c-3.4,2.2-4.8,6-5.4,9c-0.4,1.7-0.6,3.5-0.9,5.1c-0.2,1.6-0.4,2.9-0.6,3.9
	c-0.9,3.7-1,7.5-1.1,10.9c0,0.2,0,0.4,0,0.7c-0.1,3.7-0.2,6.9-1.1,9.7c-0.1,0.2-0.2,0.5-0.4,1.1l0,0.1c-0.2,0.5-0.5,1.3-0.7,1.9
	c-0.1,0.3-0.2,0.9-0.2,1.6c0,0.4,0.1,1,0.5,1.8c0.5,0.8,1.3,1.5,2.4,1.7c0.9,0.2,1.6,0,2-0.1c0.4-0.1,0.8-0.3,1-0.5
	c0.5-0.3,0.9-0.7,1.4-1c2.4-2.1,4.6-3.8,7.4-5.4c3.7-2.1,7.4-3.9,11-4.6c3.5-0.6,6.6-0.2,9.4,1.9c2.7,2,4.2,5.6,5,10.2
	c0.7,4.4,0.7,9.1,0.6,13.1c0,0.1,0,0.3,0,0.4c-0.2,15.4-7.7,29-17.2,42.5c-5.3,7.7-11.4,14.2-18.3,21c-6.8,6.7-12.5,13.2-14.2,23.4
	c-0.2,1.1-0.4,2.4-0.7,3.7c-0.7,3.6-1.4,7.7-1.8,11.6c-0.5,5.5-0.4,11.5,2,16.7c0.3,0.6,1.2,2.2,2.3,3.4c0.3,0.3,0.7,0.7,1.1,1
	c0.4,0.3,1.2,0.8,2.3,0.9c1.4,0.1,2.7-0.6,3.5-1.6c0.5-0.7,0.7-1.4,0.8-1.9c0,0,0-0.1,0.1-0.1c0.2-0.3,0.6-0.7,1.1-1.2
	c0.4-0.4,0.8-0.8,1.2-1.2c0.1-0.1,0.1-0.1,0.2-0.2C445.4,320.7,445.9,320.1,446.2,319.7z"/>
<path class="st2" d="M307.9,54.1c-28.1,0.7-61.1,8.6-88.9,19.5c-13.9,5.5-26.7,11.7-37.1,18.2c-10.2,6.5-18.5,13.4-22.8,20.5
	c-2.5,4.1-3.6,10.4-4,17.6c-0.4,7.4,0,16.6,0.9,26.8c1.7,20.5,5.5,45.7,9.7,71.5c2.1,12.5,4.2,25.1,6.3,37.3
	c2.2,13,4.4,25.6,6.3,37.3c3.7,22.6,6.2,41.1,6.2,51.6c0,24.4,21.1,40.1,47.4,49.4c26.6,9.4,60.6,13.1,90.4,12.3
	c28.3-0.7,58.7-4.7,81.5-15.1c11.4-5.2,21.2-12.1,27.8-21.3c6.6-9.2,9.9-20.4,8.5-33.8c-1.2-12-0.2-32.1,1.8-56.1
	c2.1-23.9,5.2-51.3,8.2-77.8l0-0.2c3-26.4,5.9-51.9,7.6-72c0.8-10.1,1.3-18.8,1.3-25.7c0-3.4-0.1-6.5-0.4-9
	c-0.3-2.4-0.7-4.7-1.5-6.5c-1.5-3.2-4.3-6.1-7.7-8.7c-3.5-2.7-7.8-5.3-12.9-7.8c-10.1-5.1-23.2-9.9-37.6-14.2
	C370.2,59.4,335.5,53.4,307.9,54.1z"/>
<ellipse class="st3" cx="309.7" cy="115.6" rx="119.5" ry="34"/>
<path class="st4" d="M311.7,232.5c0,10.3-2.3,19.6-6,26.2c-3.7,6.7-8.4,10-13,10s-9.3-3.4-13-10c-3.6-6.6-6-15.8-6-26.2
	c0-10.3,2.3-19.6,6-26.2c3.7-6.7,8.4-10,13-10s9.3,3.4,13,10C309.3,212.9,311.7,222.1,311.7,232.5z"/>
<path class="st5" d="M299.3,233.2c0,6.9-1.6,13-4.1,17.5c-2.6,4.5-6,7.1-9.7,7.1c-3.7,0-7.1-2.6-9.7-7.1c-2.5-4.5-4.1-10.6-4.1-17.5
	c0-6.9,1.6-13,4.1-17.5c2.6-4.5,6-7.1,9.7-7.1c3.7,0,7.1,2.6,9.7,7.1C297.7,220.1,299.3,226.3,299.3,233.2z"/>
<path class="st4" d="M245.7,232.3c0,10.3-2.3,19.6-6,26.2c-3.7,6.7-8.4,10-13,10s-9.3-3.4-13-10c-3.6-6.6-6-15.8-6-26.2
	c0-10.3,2.3-19.6,6-26.2c3.7-6.7,8.4-10,13-10s9.3,3.4,13,10C243.3,212.7,245.7,221.9,245.7,232.3z"/>
<path class="st5" d="M233.3,233c0,6.9-1.6,13-4.1,17.5c-2.6,4.5-6,7.1-9.7,7.1c-3.7,0-7.1-2.6-9.7-7.1c-2.5-4.5-4.1-10.6-4.1-17.5
	c0-6.9,1.6-13,4.1-17.5c2.6-4.5,6-7.1,9.7-7.1c3.7,0,7.1,2.6,9.7,7.1C231.7,219.9,233.3,226.1,233.3,233z"/>
<circle class="st6" cx="236" cy="593" r="24"/>
<circle class="st7" cx="331" cy="593" r="24"/>
<circle class="st7" cx="426" cy="593" r="24"/>
<path class="st0" d="M924.4,375.1l-78.2,85.4l-25.8-30.6"/>
<path class="st0" d="M999,374.5l79.5,78.9l33-22.6"/>
<path class="st1" d="M1108.8,167C1108.8,167,1108.8,167,1108.8,167C1108.8,167,1108.8,167,1108.8,167z M1095.5,303.5
	C1095.5,303.6,1095.5,303.6,1095.5,303.5C1095.5,303.5,1095.5,303.5,1095.5,303.5z M1106.2,300.7l-2.7-2.2L1106.2,300.7
	c6.3-7.8,14.2-14.3,22.4-21c1.5-1.2,3-2.5,4.6-3.8c9.7-8,19.3-16.8,25.7-28.3c9.5-17.2,11-35.1,12.4-53.1c0.1-1.5,0.2-2.9,0.3-4.4
	c1.1-13.3,0.2-28.2-2.9-41.3c-2.4-10.2-7.8-18.3-16.8-24.5c-4.1-2.8-9-4.2-13.7-5c-4.7-0.7-9.6-0.8-13.7-0.9h-0.1
	c-1.4,0-3.8,0-6.1,0.4c-1.8,0.4-4.6,1.3-6.1,3.8c-3.4,2.2-4.8,6-5.5,9c-0.4,1.7-0.6,3.5-0.8,5.1c-0.2,1.6-0.4,2.9-0.6,3.9
	c-0.9,3.7-1,7.5-1.1,10.9c0,0.2,0,0.4,0,0.7c-0.1,3.7-0.2,6.9-1.1,9.7c-0.1,0.2-0.2,0.5-0.4,1.1l0,0.1c-0.2,0.5-0.5,1.3-0.7,1.9
	c-0.1,0.3-0.2,0.9-0.2,1.6c0,0.4,0.1,1,0.5,1.8c0.5,0.8,1.3,1.5,2.4,1.7c0.9,0.2,1.6,0,2-0.1c0.4-0.1,0.8-0.3,1-0.5
	c0.5-0.3,0.9-0.7,1.4-1c2.4-2.1,4.6-3.8,7.4-5.4c3.7-2.1,7.4-3.9,11-4.6c3.5-0.6,6.6-0.2,9.4,1.9c2.7,2,4.2,5.6,5,10.2
	c0.7,4.4,0.7,9.1,0.6,13.1c0,0.1,0,0.3,0,0.4c-0.2,15.4-7.7,29-17.2,42.5c-5.3,7.7-11.4,14.2-18.3,21c-6.8,6.7-12.5,13.2-14.2,23.4
	c-0.2,1.1-0.4,2.4-0.7,3.7c-0.7,3.6-1.4,7.7-1.8,11.6c-0.5,5.5-0.4,11.5,2,16.7c0.3,0.6,1.2,2.2,2.3,3.4c0.3,0.3,0.7,0.7,1.1,1
	c0.4,0.3,1.2,0.8,2.3,0.9c1.5,0.1,2.7-0.6,3.5-1.6c0.5-0.7,0.7-1.4,0.8-1.9c0,0,0-0.1,0.1-0.1c0.2-0.3,0.6-0.7,1.1-1.2
	c0.4-0.4,0.8-0.8,1.2-1.2c0.1-0.1,0.2-0.1,0.2-0.2C1105.4,301.7,1105.9,301.1,1106.2,300.7z"/>
<path class="st2" d="M967.9,35.1c-28.1,0.7-61.1,8.6-88.9,19.5c-13.9,5.5-26.7,11.7-37.1,18.2c-10.2,6.5-18.5,13.4-22.8,20.5
	c-2.5,4.1-3.6,10.4-4,17.6c-0.4,7.4,0,16.6,0.9,26.8c1.7,20.5,5.5,45.7,9.7,71.5c2.1,12.5,4.2,25.1,6.3,37.3
	c2.2,13,4.4,25.6,6.3,37.3c3.7,22.6,6.2,41.1,6.2,51.6c0,24.4,21.1,40.1,47.4,49.4c26.6,9.4,60.6,13.1,90.4,12.3
	c28.3-0.7,58.7-4.7,81.5-15.1c11.4-5.2,21.2-12.1,27.8-21.3c6.6-9.2,9.9-20.4,8.5-33.8c-1.2-12-0.2-32.1,1.8-56.1
	c2.1-23.9,5.2-51.3,8.2-77.8l0-0.2c3-26.4,5.9-51.9,7.6-72c0.8-10.1,1.3-18.8,1.3-25.7c0-3.4-0.1-6.5-0.4-9
	c-0.2-2.4-0.7-4.7-1.5-6.5c-1.5-3.2-4.3-6.1-7.7-8.7c-3.5-2.7-7.8-5.3-12.9-7.8c-10.1-5.1-23.2-9.9-37.6-14.2
	C1030.2,40.4,995.5,34.4,967.9,35.1z"/>
<ellipse class="st3" cx="969.7" cy="96.6" rx="119.5" ry="34"/>
<path class="st4" d="M971.7,213.5c0,10.3-2.3,19.6-6,26.2c-3.7,6.7-8.4,10-13,10c-4.6,0-9.3-3.4-13-10c-3.6-6.6-6-15.8-6-26.2
	c0-10.3,2.3-19.6,6-26.2c3.7-6.7,8.4-10,13-10c4.6,0,9.3,3.4,13,10C969.3,193.9,971.7,203.1,971.7,213.5z"/>
<path class="st5" d="M959.3,214.2c0,6.9-1.6,13-4.1,17.5c-2.6,4.5-6,7.1-9.7,7.1c-3.7,0-7.1-2.6-9.7-7.1c-2.5-4.5-4.1-10.6-4.1-17.5
	c0-6.9,1.6-13,4.1-17.5c2.6-4.5,6-7.1,9.7-7.1c3.7,0,7.2,2.6,9.7,7.1C957.7,201.1,959.3,207.3,959.3,214.2z"/>
<path class="st4" d="M905.7,213.3c0,10.3-2.3,19.6-6,26.2c-3.7,6.7-8.4,10-13,10c-4.6,0-9.3-3.4-13-10c-3.6-6.6-6-15.8-6-26.2
	c0-10.3,2.3-19.6,6-26.2c3.7-6.7,8.4-10,13-10c4.6,0,9.3,3.4,13,10C903.3,193.7,905.7,202.9,905.7,213.3z"/>
<path class="st5" d="M893.3,214c0,6.9-1.6,13-4.1,17.5c-2.6,4.5-6,7.1-9.7,7.1c-3.7,0-7.1-2.6-9.7-7.1c-2.5-4.5-4.1-10.6-4.1-17.5
	c0-6.9,1.6-13,4.1-17.5c2.6-4.5,6-7.1,9.7-7.1c3.7,0,7.2,2.6,9.7,7.1C891.7,200.9,893.3,207.1,893.3,214z"/>
<circle class="st6" cx="896" cy="593" r="24"/>
<circle class="st6" cx="991" cy="593" r="24"/>
<circle class="st7" cx="1086" cy="593" r="24"/>
<path class="st0" d="M1587.9,380l-148.6,59.5l-11.3-38.4"/>
<path class="st0" d="M1674,382.4l143,42.7l16.7-36.3"/>
<path class="st1" d="M1768.8,156C1768.8,156,1768.8,156,1768.8,156C1768.8,156,1768.8,156,1768.8,156z M1755.5,292.5
	C1755.5,292.6,1755.5,292.6,1755.5,292.5C1755.5,292.5,1755.5,292.5,1755.5,292.5z M1766.2,289.7l-2.7-2.2L1766.2,289.7
	c6.3-7.8,14.2-14.3,22.4-21c1.5-1.2,3-2.5,4.6-3.8c9.7-8,19.3-16.8,25.7-28.3c9.5-17.2,11-35.1,12.4-53.1c0.1-1.5,0.2-2.9,0.3-4.4
	c1.1-13.3,0.2-28.2-2.9-41.3c-2.4-10.2-7.8-18.3-16.8-24.5c-4.1-2.8-9-4.2-13.7-5c-4.7-0.7-9.6-0.8-13.7-0.9h-0.1
	c-1.4,0-3.8,0-6.1,0.4c-1.8,0.4-4.6,1.3-6.1,3.8c-3.4,2.2-4.8,6-5.5,9c-0.4,1.7-0.6,3.5-0.8,5.1c-0.2,1.6-0.4,2.9-0.6,3.9
	c-0.9,3.7-1,7.5-1.1,10.9c0,0.2,0,0.4,0,0.7c-0.1,3.7-0.2,6.9-1.1,9.7c-0.1,0.2-0.2,0.5-0.4,1.1l0,0.1c-0.2,0.5-0.5,1.3-0.7,1.9
	c-0.1,0.3-0.2,0.9-0.2,1.6c0,0.4,0.1,1,0.5,1.8c0.5,0.8,1.3,1.5,2.4,1.7c0.9,0.2,1.6,0,2-0.1c0.4-0.1,0.8-0.3,1-0.5
	c0.5-0.3,0.9-0.7,1.4-1c2.4-2.1,4.6-3.8,7.4-5.4c3.7-2.1,7.4-3.9,11-4.6c3.5-0.6,6.6-0.2,9.4,1.9c2.7,2,4.2,5.6,5,10.2
	c0.7,4.4,0.7,9.1,0.6,13.1c0,0.1,0,0.3,0,0.4c-0.2,15.4-7.7,29-17.2,42.5c-5.3,7.7-11.4,14.2-18.3,21c-6.8,6.7-12.5,13.2-14.2,23.4
	c-0.2,1.1-0.4,2.4-0.7,3.7c-0.7,3.6-1.4,7.7-1.8,11.6c-0.5,5.5-0.4,11.5,2,16.7c0.3,0.6,1.2,2.2,2.3,3.4c0.3,0.3,0.7,0.7,1.1,1
	c0.4,0.3,1.2,0.8,2.3,0.9c1.5,0.1,2.7-0.6,3.5-1.6c0.5-0.7,0.7-1.4,0.8-1.9c0,0,0-0.1,0.1-0.1c0.2-0.3,0.6-0.7,1.1-1.2
	c0.4-0.4,0.8-0.8,1.2-1.2c0.1-0.1,0.2-0.1,0.2-0.2C1765.4,290.7,1765.9,290.1,1766.2,289.7z"/>
<path class="st2" d="M1627.9,24.1c-28.1,0.7-61.1,8.6-88.9,19.5c-13.9,5.5-26.7,11.7-37.1,18.2c-10.2,6.5-18.5,13.4-22.8,20.5
	c-2.5,4.1-3.6,10.4-4,17.6c-0.4,7.4,0,16.6,0.9,26.8c1.7,20.5,5.5,45.7,9.7,71.5c2.1,12.5,4.2,25.1,6.3,37.3
	c2.2,13,4.4,25.6,6.3,37.3c3.7,22.6,6.2,41.1,6.2,51.6c0,24.4,21.1,40.1,47.4,49.4c26.7,9.4,60.6,13.1,90.4,12.3
	c28.3-0.7,58.7-4.7,81.5-15.1c11.4-5.2,21.2-12.1,27.8-21.3c6.6-9.2,9.9-20.4,8.5-33.8c-1.2-12-0.2-32.1,1.8-56.1
	c2.1-23.9,5.2-51.3,8.2-77.8l0-0.2c3-26.4,5.9-51.9,7.6-72c0.8-10.1,1.3-18.8,1.3-25.7c0-3.4-0.1-6.5-0.4-9
	c-0.2-2.4-0.7-4.7-1.5-6.5c-1.5-3.2-4.3-6.1-7.7-8.7c-3.5-2.7-7.8-5.3-12.9-7.8c-10.1-5.1-23.2-9.9-37.6-14.2
	C1690.2,29.4,1655.5,23.4,1627.9,24.1z"/>
<ellipse class="st3" cx="1629.7" cy="85.6" rx="119.5" ry="34"/>
<path class="st4" d="M1631.7,202.5c0,10.3-2.3,19.6-6,26.2c-3.7,6.7-8.4,10-13,10c-4.6,0-9.3-3.4-13-10c-3.7-6.6-6-15.8-6-26.2
	c0-10.3,2.3-19.6,6-26.2c3.7-6.7,8.4-10,13-10c4.6,0,9.3,3.4,13,10C1629.3,182.9,1631.7,192.1,1631.7,202.5z"/>
<path class="st5" d="M1619.3,203.2c0,6.9-1.6,13-4.1,17.5c-2.5,4.5-6,7.1-9.7,7.1s-7.2-2.6-9.7-7.1c-2.5-4.5-4.1-10.6-4.1-17.5
	c0-6.9,1.6-13,4.1-17.5c2.5-4.5,6-7.1,9.7-7.1s7.2,2.6,9.7,7.1C1617.8,190.1,1619.3,196.3,1619.3,203.2z"/>
<path class="st4" d="M1565.7,202.3c0,10.3-2.3,19.6-6,26.2c-3.7,6.7-8.4,10-13,10c-4.6,0-9.3-3.4-13-10c-3.7-6.6-6-15.8-6-26.2
	c0-10.3,2.3-19.6,6-26.2c3.7-6.7,8.4-10,13-10c4.6,0,9.3,3.4,13,10C1563.3,182.7,1565.7,191.9,1565.7,202.3z"/>
<path class="st5" d="M1553.3,203c0,6.9-1.6,13-4.1,17.5c-2.5,4.5-6,7.1-9.7,7.1s-7.2-2.6-9.7-7.1c-2.5-4.5-4.1-10.6-4.1-17.5
	c0-6.9,1.6-13,4.1-17.5c2.5-4.5,6-7.1,9.7-7.1s7.2,2.6,9.7,7.1C1551.8,189.9,1553.3,196.1,1553.3,203z"/>
<circle class="st6" cx="1556" cy="593" r="24"/>
<circle class="st6" cx="1651" cy="593" r="24"/>
<circle class="st6" cx="1746" cy="593" r="24"/>
</svg>
