<svg width="6000" height="1000" viewBox="0 0 6000 1000" fill="none" xmlns="http://www.w3.org/2000/svg">
<circle cx="486" cy="499.398" r="285" fill="white" stroke="#292929" stroke-width="12"/>
<path d="M684.021 525.627C680.235 544.56 664.49 563.002 648.84 573.372C629.214 586.378 602.121 589.059 579.107 590.155C564.664 590.843 549.455 589.843 535.31 587.014C528.457 585.643 515.968 583.737 511.168 578.937" stroke="#292929" stroke-width="8" stroke-linecap="round"/>
<path d="M466.811 551.162C475.84 554.387 483.702 555.692 491.297 561.75C495.201 564.865 499.17 567.901 503.062 571.016C510.007 576.571 512.023 584.685 513.651 593.075C516.203 606.227 517.464 622.228 512.474 634.916C509.481 642.529 504.421 655.119 496.591 659.034" stroke="#292929" stroke-width="8" stroke-linecap="round"/>
<path d="M790 694.398H588L606 882.398H762L790 694.398Z" fill="#985D36"/>
<path d="M625.5 586.898L680 605.398L688.5 822.898" stroke="#292929" stroke-width="8"/>
<path d="M799.933 642.79L800.97 635.898H794H587H580.442L581.024 642.43L602.024 878.43L602.51 883.898H608H758.5H763.665L764.433 878.79L799.933 642.79Z" stroke="#292929" stroke-width="12"/>
<path d="M603 236.213L237.158 372C214.813 313.591 202.445 183.894 331.737 132.375C461.028 80.8558 566.45 180.134 603 236.213Z" fill="#292929" stroke="#292929"/>
<path d="M332 133C326.165 133.559 320.242 143.607 317.441 147.663C308.365 160.803 302.386 176.436 299.646 191.891C293.386 227.207 294.596 266.877 307.921 300.733C311.527 309.894 315.642 323.258 322.792 330.655C325.321 333.272 326.399 337.39 329.76 339" stroke="white" stroke-width="5" stroke-linecap="round"/>
<path d="M333 134C350.606 135.135 368.458 137.528 384.155 145.797C399.137 153.689 411.762 164.725 422.366 177.494C437.776 196.05 450.801 215.321 460.578 237.195C465.76 248.789 470.379 261.453 472.72 273.897C473.229 276.607 473.803 279.685 475 282" stroke="white" stroke-width="5" stroke-linecap="round"/>
<path d="M668.522 239.025C647.548 238.041 605.43 238 605.43 238L240 372C240 372 257.442 369.825 265.91 368.116C286.923 363.874 308.139 360.178 329.395 356.949C412.325 344.354 494.64 331.09 576.492 312.768C604.408 306.519 632.867 300.544 659.829 291.19C675.287 285.827 691.403 280.828 699.76 266.213C705.658 255.898 699.182 247.24 688.824 243.341C682.282 240.878 675.59 239.357 668.522 239.025Z" fill="white" stroke="#292929" stroke-width="8" stroke-linecap="round"/>
<path d="M513.5 434.7C513.5 450.014 510.046 463.755 504.588 473.579C499.084 483.487 491.878 488.9 484.5 488.9C477.122 488.9 469.916 483.487 464.412 473.579C458.954 463.755 455.5 450.014 455.5 434.7C455.5 419.386 458.954 405.645 464.412 395.821C469.916 385.913 477.122 380.5 484.5 380.5C491.878 380.5 499.084 385.913 504.588 395.821C510.046 405.645 513.5 419.386 513.5 434.7Z" fill="white" stroke="#292929" stroke-width="5"/>
<path d="M494.5 435.75C494.5 445.828 492.165 454.926 488.415 461.488C484.657 468.065 479.542 472 474 472C468.458 472 463.343 468.065 459.585 461.488C455.835 454.926 453.5 445.828 453.5 435.75C453.5 425.673 455.835 416.574 459.585 410.012C463.343 403.436 468.458 399.5 474 399.5C479.542 399.5 484.657 403.436 488.415 410.012C492.165 416.574 494.5 425.673 494.5 435.75Z" fill="#292929" stroke="#292929"/>
<path d="M671.5 428.7C671.5 444.014 668.046 457.755 662.588 467.579C657.084 477.487 649.878 482.9 642.5 482.9C635.122 482.9 627.916 477.487 622.412 467.579C616.954 457.755 613.5 444.014 613.5 428.7C613.5 413.386 616.954 399.645 622.412 389.821C627.916 379.913 635.122 374.5 642.5 374.5C649.878 374.5 657.084 379.913 662.588 389.821C668.046 399.645 671.5 413.386 671.5 428.7Z" fill="white" stroke="#292929" stroke-width="5"/>
<path d="M652.5 429.75C652.5 439.828 650.165 448.926 646.415 455.488C642.657 462.065 637.542 466 632 466C626.458 466 621.343 462.065 617.585 455.488C613.835 448.926 611.5 439.828 611.5 429.75C611.5 419.673 613.835 410.574 617.585 404.012C621.343 397.436 626.458 393.5 632 393.5C637.542 393.5 642.657 397.436 646.415 404.012C650.165 410.574 652.5 419.673 652.5 429.75Z" fill="#292929" stroke="#292929"/>
<path d="M576.828 373.656C581.838 404.216 580.167 439.865 603.518 463.217C609.96 469.658 616.957 478.551 611.097 487.666C603.352 499.714 589.858 508.467 578.014 516.004" stroke="#292929" stroke-width="8" stroke-linecap="round"/>
<circle cx="1486" cy="499.398" r="285" fill="white" stroke="#292929" stroke-width="12"/>
<path d="M1684.02 525.627C1680.23 544.56 1664.49 563.002 1648.84 573.372C1629.21 586.378 1602.12 589.059 1579.11 590.155C1564.66 590.843 1549.46 589.843 1535.31 587.014C1528.46 585.643 1515.97 583.737 1511.17 578.937" stroke="#292929" stroke-width="8" stroke-linecap="round"/>
<path d="M1783 729H1591L1606 882.398H1762L1783 729Z" fill="#985D36"/>
<path d="M1625.5 586.898L1680 605.398L1688.5 822.898" stroke="#292929" stroke-width="8"/>
<path d="M1799.93 642.79L1800.97 635.898H1794H1587H1580.44L1581.02 642.43L1602.02 878.43L1602.51 883.898H1608H1758.5H1763.66L1764.43 878.79L1799.93 642.79Z" stroke="#292929" stroke-width="12"/>
<path d="M1603 236.213L1237.16 372C1214.81 313.591 1202.44 183.894 1331.74 132.375C1461.03 80.8558 1566.45 180.134 1603 236.213Z" fill="#292929" stroke="#292929"/>
<path d="M1332 133C1326.17 133.559 1320.24 143.607 1317.44 147.663C1308.37 160.803 1302.39 176.436 1299.65 191.891C1293.39 227.207 1294.6 266.877 1307.92 300.733C1311.53 309.894 1315.64 323.258 1322.79 330.655C1325.32 333.272 1326.4 337.39 1329.76 339" stroke="white" stroke-width="5" stroke-linecap="round"/>
<path d="M1333 134C1350.61 135.135 1368.46 137.528 1384.15 145.797C1399.14 153.689 1411.76 164.725 1422.37 177.494C1437.78 196.05 1450.8 215.321 1460.58 237.195C1465.76 248.789 1470.38 261.453 1472.72 273.897C1473.23 276.607 1473.8 279.685 1475 282" stroke="white" stroke-width="5" stroke-linecap="round"/>
<path d="M1668.52 239.025C1647.55 238.041 1605.43 238 1605.43 238L1240 372C1240 372 1257.44 369.825 1265.91 368.116C1286.92 363.874 1308.14 360.178 1329.39 356.949C1412.32 344.354 1494.64 331.09 1576.49 312.768C1604.41 306.519 1632.87 300.544 1659.83 291.19C1675.29 285.827 1691.4 280.828 1699.76 266.213C1705.66 255.898 1699.18 247.24 1688.82 243.341C1682.28 240.878 1675.59 239.357 1668.52 239.025Z" fill="white" stroke="#292929" stroke-width="8" stroke-linecap="round"/>
<path d="M1576.83 373.656C1581.84 404.216 1580.17 439.865 1603.52 463.217C1609.96 469.658 1616.96 478.551 1611.1 487.666C1603.35 499.714 1589.86 508.467 1578.01 516.004" stroke="#292929" stroke-width="8" stroke-linecap="round"/>
<path d="M1780.85 349.664L1779.16 348.784L1779.16 348.784L1779.16 348.783L1779.15 348.782L1779.15 348.781L1779.12 348.762C1779.08 348.743 1779.02 348.712 1778.95 348.669C1778.79 348.584 1778.56 348.45 1778.25 348.267C1777.64 347.902 1776.76 347.344 1775.69 346.59C1773.55 345.081 1770.69 342.802 1767.83 339.736C1762.12 333.608 1756.5 324.438 1756.5 312C1756.5 287.18 1779.67 266.5 1809 266.5C1838.33 266.5 1861.5 287.18 1861.5 312C1861.5 336.82 1838.33 357.5 1809 357.5C1803.1 357.5 1797.43 356.655 1792.14 355.101L1791.41 354.887L1790.69 355.115L1778.86 358.826L1780.44 351.531L1780.85 349.664Z" fill="white" stroke="#292929" stroke-width="5"/>
<path d="M1466.81 551.162C1475.84 554.387 1483.7 555.692 1491.3 561.751C1495.2 564.865 1499.17 567.902 1503.06 571.016C1510.01 576.572 1512.02 584.685 1513.65 593.076C1516.2 606.227 1517.46 622.229 1512.47 634.916C1509.48 642.529 1504.42 655.12 1496.59 659.035" stroke="#292929" stroke-width="8" stroke-linecap="round"/>
<path d="M1513.5 434.7C1513.5 450.014 1510.05 463.755 1504.59 473.579C1499.08 483.487 1491.88 488.9 1484.5 488.9C1477.12 488.9 1469.92 483.487 1464.41 473.579C1458.95 463.755 1455.5 450.014 1455.5 434.7C1455.5 419.386 1458.95 405.645 1464.41 395.821C1469.92 385.913 1477.12 380.5 1484.5 380.5C1491.88 380.5 1499.08 385.913 1504.59 395.821C1510.05 405.645 1513.5 419.386 1513.5 434.7Z" fill="white" stroke="#292929" stroke-width="5"/>
<path d="M1494.5 435.75C1494.5 445.828 1492.16 454.926 1488.42 461.488C1484.66 468.065 1479.54 472 1474 472C1468.46 472 1463.34 468.065 1459.58 461.488C1455.84 454.926 1453.5 445.828 1453.5 435.75C1453.5 425.673 1455.84 416.574 1459.58 410.012C1463.34 403.436 1468.46 399.5 1474 399.5C1479.54 399.5 1484.66 403.436 1488.42 410.012C1492.16 416.574 1494.5 425.673 1494.5 435.75Z" fill="#292929" stroke="#292929"/>
<path d="M1671.5 428.7C1671.5 444.014 1668.05 457.755 1662.59 467.579C1657.08 477.487 1649.88 482.9 1642.5 482.9C1635.12 482.9 1627.92 477.487 1622.41 467.579C1616.95 457.755 1613.5 444.014 1613.5 428.7C1613.5 413.386 1616.95 399.645 1622.41 389.821C1627.92 379.913 1635.12 374.5 1642.5 374.5C1649.88 374.5 1657.08 379.913 1662.59 389.821C1668.05 399.645 1671.5 413.386 1671.5 428.7Z" fill="white" stroke="#292929" stroke-width="5"/>
<path d="M1652.5 429.75C1652.5 439.828 1650.16 448.926 1646.42 455.488C1642.66 462.065 1637.54 466 1632 466C1626.46 466 1621.34 462.065 1617.58 455.488C1613.84 448.926 1611.5 439.828 1611.5 429.75C1611.5 419.673 1613.84 410.574 1617.58 404.012C1621.34 397.436 1626.46 393.5 1632 393.5C1637.54 393.5 1642.66 397.436 1646.42 404.012C1650.16 410.574 1652.5 419.673 1652.5 429.75Z" fill="#292929" stroke="#292929"/>
<circle cx="2486" cy="499.398" r="285" fill="white" stroke="#292929" stroke-width="12"/>
<path d="M2684.02 525.627C2680.23 544.56 2664.49 563.002 2648.84 573.372C2629.21 586.378 2602.12 589.059 2579.11 590.155C2564.66 590.843 2549.45 589.843 2535.31 587.014C2528.46 585.643 2515.97 583.737 2511.17 578.937" stroke="#292929" stroke-width="8" stroke-linecap="round"/>
<path d="M2772.5 803H2597L2606 882.398H2762L2772.5 803Z" fill="#985D36"/>
<path d="M2625.5 586.898L2680 605.398L2688.5 822.898" stroke="#292929" stroke-width="8"/>
<path d="M2799.93 642.79L2800.97 635.898H2794H2587H2580.44L2581.02 642.43L2602.02 878.43L2602.51 883.898H2608H2758.5H2763.66L2764.43 878.79L2799.93 642.79Z" stroke="#292929" stroke-width="12"/>
<path d="M2603 236.213L2237.16 372C2214.81 313.591 2202.44 183.894 2331.74 132.375C2461.03 80.8558 2566.45 180.134 2603 236.213Z" fill="#292929" stroke="#292929"/>
<path d="M2332 133C2326.17 133.559 2320.24 143.607 2317.44 147.663C2308.37 160.803 2302.39 176.436 2299.65 191.891C2293.39 227.207 2294.6 266.877 2307.92 300.733C2311.53 309.894 2315.64 323.258 2322.79 330.655C2325.32 333.272 2326.4 337.39 2329.76 339" stroke="white" stroke-width="5" stroke-linecap="round"/>
<path d="M2333 134C2350.61 135.135 2368.46 137.528 2384.15 145.797C2399.14 153.689 2411.76 164.725 2422.37 177.494C2437.78 196.05 2450.8 215.321 2460.58 237.195C2465.76 248.789 2470.38 261.453 2472.72 273.897C2473.23 276.607 2473.8 279.685 2475 282" stroke="white" stroke-width="5" stroke-linecap="round"/>
<path d="M2668.52 239.025C2647.55 238.041 2605.43 238 2605.43 238L2240 372C2240 372 2257.44 369.825 2265.91 368.116C2286.92 363.874 2308.14 360.178 2329.39 356.949C2412.32 344.354 2494.64 331.09 2576.49 312.768C2604.41 306.519 2632.87 300.544 2659.83 291.19C2675.29 285.827 2691.4 280.828 2699.76 266.213C2705.66 255.898 2699.18 247.24 2688.82 243.341C2682.28 240.878 2675.59 239.357 2668.52 239.025Z" fill="white" stroke="#292929" stroke-width="8" stroke-linecap="round"/>
<path d="M2576.83 373.656C2581.84 404.216 2580.17 439.865 2603.52 463.217C2609.96 469.658 2616.96 478.551 2611.1 487.666C2603.35 499.714 2589.86 508.467 2578.02 516.004" stroke="#292929" stroke-width="8" stroke-linecap="round"/>
<path d="M2789.43 259.366C2791.33 260.704 2792.95 261.753 2794.2 262.517L2790.16 281.152L2788.7 287.882L2795.27 285.816L2823.81 276.838C2834.12 279.756 2845.11 281.33 2856.5 281.33C2914.8 281.33 2963 239.881 2963 187.665C2963 135.449 2914.8 94 2856.5 94C2798.2 94 2750 135.449 2750 187.665C2750 213.729 2761.79 232.87 2773.43 245.386C2779.25 251.642 2785.07 256.283 2789.43 259.366Z" fill="white" stroke="black" stroke-width="8"/>
<path d="M2898.4 169.473C2896.11 160.945 2889.39 154.224 2880.87 151.94C2872.52 149.713 2863.65 151.975 2856.01 158.167C2850.44 153.613 2844.26 151.147 2837.96 151C2831.11 150.905 2824.71 153.414 2819.89 158.228C2810.83 167.289 2808.86 183.652 2822.6 197.397L2852.94 227.73C2853.78 228.575 2854.89 229 2856 229C2857.11 229 2858.22 228.575 2859.06 227.73L2889.4 197.397C2897.66 189.138 2900.94 178.959 2898.4 169.473Z" fill="#F87671"/>
<path d="M2466.81 551.162C2475.84 554.387 2483.7 555.692 2491.3 561.75C2495.2 564.865 2499.17 567.901 2503.06 571.016C2510.01 576.571 2512.02 584.685 2513.65 593.075C2516.2 606.227 2517.46 622.228 2512.47 634.916C2509.48 642.529 2504.42 655.119 2496.59 659.034" stroke="#292929" stroke-width="8" stroke-linecap="round"/>
<path d="M2513.5 434.7C2513.5 450.014 2510.05 463.755 2504.59 473.579C2499.08 483.487 2491.88 488.9 2484.5 488.9C2477.12 488.9 2469.92 483.487 2464.41 473.579C2458.95 463.755 2455.5 450.014 2455.5 434.7C2455.5 419.386 2458.95 405.645 2464.41 395.821C2469.92 385.913 2477.12 380.5 2484.5 380.5C2491.88 380.5 2499.08 385.913 2504.59 395.821C2510.05 405.645 2513.5 419.386 2513.5 434.7Z" fill="white" stroke="#292929" stroke-width="5"/>
<path d="M2494.5 435.75C2494.5 445.828 2492.16 454.926 2488.42 461.488C2484.66 468.065 2479.54 472 2474 472C2468.46 472 2463.34 468.065 2459.58 461.488C2455.84 454.926 2453.5 445.828 2453.5 435.75C2453.5 425.673 2455.84 416.574 2459.58 410.012C2463.34 403.436 2468.46 399.5 2474 399.5C2479.54 399.5 2484.66 403.436 2488.42 410.012C2492.16 416.574 2494.5 425.673 2494.5 435.75Z" fill="#292929" stroke="#292929"/>
<path d="M2671.5 428.7C2671.5 444.014 2668.05 457.755 2662.59 467.579C2657.08 477.487 2649.88 482.9 2642.5 482.9C2635.12 482.9 2627.92 477.487 2622.41 467.579C2616.95 457.755 2613.5 444.014 2613.5 428.7C2613.5 413.386 2616.95 399.645 2622.41 389.821C2627.92 379.913 2635.12 374.5 2642.5 374.5C2649.88 374.5 2657.08 379.913 2662.59 389.821C2668.05 399.645 2671.5 413.386 2671.5 428.7Z" fill="white" stroke="#292929" stroke-width="5"/>
<path d="M2652.5 429.75C2652.5 439.828 2650.16 448.926 2646.42 455.488C2642.66 462.065 2637.54 466 2632 466C2626.46 466 2621.34 462.065 2617.58 455.488C2613.84 448.926 2611.5 439.828 2611.5 429.75C2611.5 419.673 2613.84 410.574 2617.58 404.012C2621.34 397.436 2626.46 393.5 2632 393.5C2637.54 393.5 2642.66 397.436 2646.42 404.012C2650.16 410.574 2652.5 419.673 2652.5 429.75Z" fill="#292929" stroke="#292929"/>
<circle cx="3486" cy="499.398" r="285" fill="white" stroke="#292929" stroke-width="12"/>
<path d="M3684.02 525.627C3680.23 544.56 3664.49 563.002 3648.84 573.372C3629.21 586.378 3602.12 589.059 3579.11 590.155C3564.66 590.843 3549.45 589.843 3535.31 587.014C3528.46 585.643 3515.97 583.737 3511.17 578.937" stroke="#292929" stroke-width="8" stroke-linecap="round"/>
<path d="M3770 835.5H3600L3606 882.398H3762L3770 835.5Z" fill="#985D36"/>
<path d="M3625.5 586.898L3680 605.398L3688.5 822.898" stroke="#292929" stroke-width="8"/>
<path d="M3799.93 642.79L3800.97 635.898H3794H3587H3580.44L3581.02 642.43L3602.02 878.43L3602.51 883.898H3608H3758.5H3763.66L3764.43 878.79L3799.93 642.79Z" stroke="#292929" stroke-width="12"/>
<path d="M3603 236.213L3237.16 372C3214.81 313.591 3202.44 183.894 3331.74 132.375C3461.03 80.8558 3566.45 180.134 3603 236.213Z" fill="#292929" stroke="#292929"/>
<path d="M3332 133C3326.17 133.559 3320.24 143.607 3317.44 147.663C3308.37 160.803 3302.39 176.436 3299.65 191.891C3293.39 227.207 3294.6 266.877 3307.92 300.733C3311.53 309.894 3315.64 323.258 3322.79 330.655C3325.32 333.272 3326.4 337.39 3329.76 339" stroke="white" stroke-width="5" stroke-linecap="round"/>
<path d="M3333 134C3350.61 135.135 3368.46 137.528 3384.15 145.797C3399.14 153.689 3411.76 164.725 3422.37 177.494C3437.78 196.05 3450.8 215.321 3460.58 237.195C3465.76 248.789 3470.38 261.453 3472.72 273.897C3473.23 276.607 3473.8 279.685 3475 282" stroke="white" stroke-width="5" stroke-linecap="round"/>
<path d="M3668.52 239.025C3647.55 238.041 3605.43 238 3605.43 238L3240 372C3240 372 3257.44 369.825 3265.91 368.116C3286.92 363.874 3308.14 360.178 3329.39 356.949C3412.32 344.354 3494.64 331.09 3576.49 312.768C3604.41 306.519 3632.87 300.544 3659.83 291.19C3675.29 285.827 3691.4 280.828 3699.76 266.213C3705.66 255.898 3699.18 247.24 3688.82 243.341C3682.28 240.878 3675.59 239.357 3668.52 239.025Z" fill="white" stroke="#292929" stroke-width="8" stroke-linecap="round"/>
<path d="M3576.83 373.656C3581.84 404.216 3580.17 439.865 3603.52 463.217C3609.96 469.658 3616.96 478.551 3611.1 487.666C3603.35 499.714 3589.86 508.467 3578.02 516.004" stroke="#292929" stroke-width="8" stroke-linecap="round"/>
<path d="M3789.43 259.366C3791.33 260.704 3792.95 261.753 3794.2 262.517L3790.16 281.152L3788.7 287.882L3795.27 285.816L3823.81 276.838C3834.12 279.756 3845.11 281.33 3856.5 281.33C3914.8 281.33 3963 239.881 3963 187.665C3963 135.449 3914.8 94 3856.5 94C3798.2 94 3750 135.449 3750 187.665C3750 213.729 3761.79 232.87 3773.43 245.386C3779.25 251.642 3785.07 256.283 3789.43 259.366Z" fill="white" stroke="black" stroke-width="8"/>
<path d="M3898.4 169.473C3896.11 160.945 3889.39 154.224 3880.87 151.94C3872.52 149.713 3863.65 151.975 3856.01 158.167C3850.44 153.613 3844.26 151.147 3837.96 151C3831.11 150.905 3824.71 153.414 3819.89 158.228C3810.83 167.289 3808.86 183.652 3822.6 197.397L3852.94 227.73C3853.78 228.575 3854.89 229 3856 229C3857.11 229 3858.22 228.575 3859.06 227.73L3889.4 197.397C3897.66 189.138 3900.94 178.959 3898.4 169.473Z" fill="#F87671"/>
<path d="M3466.81 551.162C3475.84 554.387 3483.7 555.692 3491.3 561.75C3495.2 564.865 3499.17 567.901 3503.06 571.016C3510.01 576.571 3512.02 584.685 3513.65 593.075C3516.2 606.227 3517.46 622.228 3512.47 634.916C3509.48 642.529 3504.42 655.119 3496.59 659.034" stroke="#292929" stroke-width="8" stroke-linecap="round"/>
<path d="M3513.5 434.7C3513.5 450.014 3510.05 463.755 3504.59 473.579C3499.08 483.487 3491.88 488.9 3484.5 488.9C3477.12 488.9 3469.92 483.487 3464.41 473.579C3458.95 463.755 3455.5 450.014 3455.5 434.7C3455.5 419.386 3458.95 405.645 3464.41 395.821C3469.92 385.913 3477.12 380.5 3484.5 380.5C3491.88 380.5 3499.08 385.913 3504.59 395.821C3510.05 405.645 3513.5 419.386 3513.5 434.7Z" fill="white" stroke="#292929" stroke-width="5"/>
<path d="M3494.5 435.75C3494.5 445.828 3492.16 454.926 3488.42 461.488C3484.66 468.065 3479.54 472 3474 472C3468.46 472 3463.34 468.065 3459.58 461.488C3455.84 454.926 3453.5 445.828 3453.5 435.75C3453.5 425.673 3455.84 416.574 3459.58 410.012C3463.34 403.436 3468.46 399.5 3474 399.5C3479.54 399.5 3484.66 403.436 3488.42 410.012C3492.16 416.574 3494.5 425.673 3494.5 435.75Z" fill="#292929" stroke="#292929"/>
<path d="M3671.5 428.7C3671.5 444.014 3668.05 457.755 3662.59 467.579C3657.08 477.487 3649.88 482.9 3642.5 482.9C3635.12 482.9 3627.92 477.487 3622.41 467.579C3616.95 457.755 3613.5 444.014 3613.5 428.7C3613.5 413.386 3616.95 399.645 3622.41 389.821C3627.92 379.913 3635.12 374.5 3642.5 374.5C3649.88 374.5 3657.08 379.913 3662.59 389.821C3668.05 399.645 3671.5 413.386 3671.5 428.7Z" fill="white" stroke="#292929" stroke-width="5"/>
<path d="M3652.5 429.75C3652.5 439.828 3650.16 448.926 3646.42 455.488C3642.66 462.065 3637.54 466 3632 466C3626.46 466 3621.34 462.065 3617.58 455.488C3613.84 448.926 3611.5 439.828 3611.5 429.75C3611.5 419.673 3613.84 410.574 3617.58 404.012C3621.34 397.436 3626.46 393.5 3632 393.5C3637.54 393.5 3642.66 397.436 3646.42 404.012C3650.16 410.574 3652.5 419.673 3652.5 429.75Z" fill="#292929" stroke="#292929"/>
<circle cx="4486" cy="499.398" r="285" fill="white" stroke="#292929" stroke-width="12"/>
<path d="M4684.02 525.627C4680.23 544.56 4664.49 563.002 4648.84 573.372C4629.21 586.378 4602.12 589.059 4579.11 590.155C4564.66 590.843 4549.45 589.843 4535.31 587.014C4528.46 585.643 4515.97 583.737 4511.17 578.937" stroke="#292929" stroke-width="8" stroke-linecap="round"/>
<path d="M4940 870H4781L4784 882.398H4940V870Z" fill="#985D36"/>
<path d="M4803.5 586.898L4858 605.398L4866.5 822.898" stroke="#292929" stroke-width="8"/>
<path d="M4977.93 642.79L4978.97 635.898H4972H4765H4758.44L4759.02 642.43L4780.02 878.43L4780.51 883.898H4786H4936.5H4941.66L4942.43 878.79L4977.93 642.79Z" stroke="#292929" stroke-width="12"/>
<path d="M4603 236.213L4237.16 372C4214.81 313.591 4202.44 183.894 4331.74 132.375C4461.03 80.8558 4566.45 180.134 4603 236.213Z" fill="#292929" stroke="#292929"/>
<path d="M4332 133C4326.17 133.559 4320.24 143.607 4317.44 147.663C4308.37 160.803 4302.39 176.436 4299.65 191.891C4293.39 227.207 4294.6 266.877 4307.92 300.733C4311.53 309.894 4315.64 323.258 4322.79 330.655C4325.32 333.272 4326.4 337.39 4329.76 339" stroke="white" stroke-width="5" stroke-linecap="round"/>
<path d="M4333 134C4350.61 135.135 4368.46 137.528 4384.15 145.797C4399.14 153.689 4411.76 164.725 4422.37 177.494C4437.78 196.05 4450.8 215.321 4460.58 237.195C4465.76 248.789 4470.38 261.453 4472.72 273.897C4473.23 276.607 4473.8 279.685 4475 282" stroke="white" stroke-width="5" stroke-linecap="round"/>
<path d="M4668.52 239.025C4647.55 238.041 4605.43 238 4605.43 238L4240 372C4240 372 4257.44 369.825 4265.91 368.116C4286.92 363.874 4308.14 360.178 4329.39 356.949C4412.32 344.354 4494.64 331.09 4576.49 312.768C4604.41 306.519 4632.87 300.544 4659.83 291.19C4675.29 285.827 4691.4 280.828 4699.76 266.213C4705.66 255.898 4699.18 247.24 4688.82 243.341C4682.28 240.878 4675.59 239.357 4668.52 239.025Z" fill="white" stroke="#292929" stroke-width="8" stroke-linecap="round"/>
<path d="M4576.83 373.656C4581.84 404.216 4580.17 439.865 4603.52 463.217C4609.96 469.658 4616.96 478.551 4611.1 487.666C4603.35 499.714 4589.86 508.467 4578.02 516.004" stroke="#292929" stroke-width="8" stroke-linecap="round"/>
<path d="M4513.5 434.7C4513.5 450.014 4510.05 463.755 4504.59 473.579C4499.08 483.487 4491.88 488.9 4484.5 488.9C4477.12 488.9 4469.92 483.487 4464.41 473.579C4458.95 463.755 4455.5 450.014 4455.5 434.7C4455.5 419.386 4458.95 405.645 4464.41 395.821C4469.92 385.913 4477.12 380.5 4484.5 380.5C4491.88 380.5 4499.08 385.913 4504.59 395.821C4510.05 405.645 4513.5 419.386 4513.5 434.7Z" fill="white" stroke="#292929" stroke-width="5"/>
<path d="M4494.5 435.75C4494.5 445.828 4492.16 454.926 4488.42 461.488C4484.66 468.065 4479.54 472 4474 472C4468.46 472 4463.34 468.065 4459.58 461.488C4455.84 454.926 4453.5 445.828 4453.5 435.75C4453.5 425.673 4455.84 416.574 4459.58 410.012C4463.34 403.436 4468.46 399.5 4474 399.5C4479.54 399.5 4484.66 403.436 4488.42 410.012C4492.16 416.574 4494.5 425.673 4494.5 435.75Z" fill="#292929" stroke="#292929"/>
<path d="M4671.5 428.7C4671.5 444.014 4668.05 457.755 4662.59 467.579C4657.08 477.487 4649.88 482.9 4642.5 482.9C4635.12 482.9 4627.92 477.487 4622.41 467.579C4616.95 457.755 4613.5 444.014 4613.5 428.7C4613.5 413.386 4616.95 399.645 4622.41 389.821C4627.92 379.913 4635.12 374.5 4642.5 374.5C4649.88 374.5 4657.08 379.913 4662.59 389.821C4668.05 399.645 4671.5 413.386 4671.5 428.7Z" fill="white" stroke="#292929" stroke-width="5"/>
<path d="M4652.5 429.75C4652.5 439.828 4650.16 448.926 4646.42 455.488C4642.66 462.065 4637.54 466 4632 466C4626.46 466 4621.34 462.065 4617.58 455.488C4613.84 448.926 4611.5 439.828 4611.5 429.75C4611.5 419.673 4613.84 410.574 4617.58 404.012C4621.34 397.436 4626.46 393.5 4632 393.5C4637.54 393.5 4642.66 397.436 4646.42 404.012C4650.16 410.574 4652.5 419.673 4652.5 429.75Z" fill="#292929" stroke="#292929"/>
<path opacity="0.4" d="M4789.43 259.366C4791.33 260.704 4792.95 261.753 4794.2 262.517L4790.16 281.152L4788.7 287.882L4795.27 285.816L4823.81 276.838C4834.12 279.756 4845.11 281.33 4856.5 281.33C4914.8 281.33 4963 239.881 4963 187.665C4963 135.449 4914.8 94 4856.5 94C4798.2 94 4750 135.449 4750 187.665C4750 213.729 4761.79 232.87 4773.43 245.386C4779.25 251.642 4785.07 256.283 4789.43 259.366Z" fill="white" stroke="black" stroke-width="8"/>
<g opacity="0.4">
<path d="M4898.4 169.473C4896.11 160.945 4889.39 154.224 4880.87 151.94C4872.52 149.713 4863.65 151.975 4856.01 158.167C4850.44 153.613 4844.26 151.147 4837.96 151C4831.11 150.905 4824.71 153.414 4819.89 158.228C4810.83 167.289 4808.86 183.652 4822.6 197.397L4852.94 227.73C4853.78 228.575 4854.89 229 4856 229C4857.11 229 4858.22 228.575 4859.06 227.73L4889.4 197.397C4897.66 189.138 4900.94 178.959 4898.4 169.473Z" fill="#F87671"/>
</g>
<g clip-path="url(#clip0_1702_26595)">
<circle cx="5486" cy="499.398" r="285" fill="white" stroke="#292929" stroke-width="12"/>
<path d="M5603 236.213L5237.16 372C5214.81 313.591 5202.44 183.894 5331.74 132.375C5461.03 80.8558 5566.45 180.134 5603 236.213Z" fill="#292929" stroke="#292929"/>
<path d="M5332 133C5326.17 133.559 5320.24 143.607 5317.44 147.663C5308.37 160.803 5302.39 176.436 5299.65 191.891C5293.39 227.207 5294.6 266.877 5307.92 300.733C5311.53 309.894 5315.64 323.258 5322.79 330.655C5325.32 333.272 5326.4 337.39 5329.76 339" stroke="white" stroke-width="5" stroke-linecap="round"/>
<path d="M5333 134C5350.61 135.135 5368.46 137.528 5384.15 145.797C5399.14 153.689 5411.76 164.725 5422.37 177.494C5437.78 196.05 5450.8 215.321 5460.58 237.195C5465.76 248.789 5470.38 261.453 5472.72 273.897C5473.23 276.607 5473.8 279.685 5475 282" stroke="white" stroke-width="5" stroke-linecap="round"/>
<path d="M5668.52 239.025C5647.55 238.041 5605.43 238 5605.43 238L5240 372C5240 372 5257.44 369.825 5265.91 368.116C5286.92 363.874 5308.14 360.178 5329.39 356.949C5412.32 344.354 5494.64 331.09 5576.49 312.768C5604.41 306.519 5632.87 300.544 5659.83 291.19C5675.29 285.827 5691.4 280.828 5699.76 266.213C5705.66 255.898 5699.18 247.24 5688.82 243.341C5682.28 240.878 5675.59 239.357 5668.52 239.025Z" fill="white" stroke="#292929" stroke-width="8" stroke-linecap="round"/>
<path d="M5576.83 373.656C5581.84 404.216 5580.17 439.865 5603.52 463.217C5609.96 469.658 5616.96 478.551 5611.1 487.666C5603.35 499.714 5589.86 508.467 5578.02 516.004" stroke="#292929" stroke-width="8" stroke-linecap="round"/>
<path d="M5513.5 434.7C5513.5 450.014 5510.05 463.755 5504.59 473.579C5499.08 483.487 5491.88 488.9 5484.5 488.9C5477.12 488.9 5469.92 483.487 5464.41 473.579C5458.95 463.755 5455.5 450.014 5455.5 434.7C5455.5 419.386 5458.95 405.645 5464.41 395.821C5469.92 385.913 5477.12 380.5 5484.5 380.5C5491.88 380.5 5499.08 385.913 5504.59 395.821C5510.05 405.645 5513.5 419.386 5513.5 434.7Z" fill="white" stroke="#292929" stroke-width="5"/>
<path d="M5494.5 435.75C5494.5 445.828 5492.16 454.926 5488.42 461.488C5484.66 468.065 5479.54 472 5474 472C5468.46 472 5463.34 468.065 5459.58 461.488C5455.84 454.926 5453.5 445.828 5453.5 435.75C5453.5 425.673 5455.84 416.574 5459.58 410.012C5463.34 403.436 5468.46 399.5 5474 399.5C5479.54 399.5 5484.66 403.436 5488.42 410.012C5492.16 416.574 5494.5 425.673 5494.5 435.75Z" fill="#292929" stroke="#292929"/>
<path d="M5671.5 428.7C5671.5 444.014 5668.05 457.755 5662.59 467.579C5657.08 477.487 5649.88 482.9 5642.5 482.9C5635.12 482.9 5627.92 477.487 5622.41 467.579C5616.95 457.755 5613.5 444.014 5613.5 428.7C5613.5 413.386 5616.95 399.645 5622.41 389.821C5627.92 379.913 5635.12 374.5 5642.5 374.5C5649.88 374.5 5657.08 379.913 5662.59 389.821C5668.05 399.645 5671.5 413.386 5671.5 428.7Z" fill="white" stroke="#292929" stroke-width="5"/>
<path d="M5652.5 429.75C5652.5 439.828 5650.16 448.926 5646.42 455.488C5642.66 462.065 5637.54 466 5632 466C5626.46 466 5621.34 462.065 5617.58 455.488C5613.84 448.926 5611.5 439.828 5611.5 429.75C5611.5 419.673 5613.84 410.574 5617.58 404.012C5621.34 397.436 5626.46 393.5 5632 393.5C5637.54 393.5 5642.66 397.436 5646.42 404.012C5650.16 410.574 5652.5 419.673 5652.5 429.75Z" fill="#292929" stroke="#292929"/>
<path d="M5684.02 525.627C5680.23 544.56 5664.49 563.003 5648.84 573.373C5629.21 586.378 5602.12 589.059 5579.11 590.155C5564.66 590.843 5549.45 589.843 5535.31 587.014C5528.46 585.644 5515.97 583.737 5511.17 578.937" stroke="#292929" stroke-width="8" stroke-linecap="round"/>
</g>
<defs>
<clipPath id="clip0_1702_26595">
<rect width="1000" height="1000" fill="white" transform="translate(5000)"/>
</clipPath>
</defs>
</svg>
