<?xml version="1.0" encoding="utf-8"?>
<!-- Generator: Adobe Illustrator 25.0.0, SVG Export Plug-In . SVG Version: 6.00 Build 0)  -->
<svg version="1.1" id="圖層_1" xmlns="http://www.w3.org/2000/svg" xmlns:xlink="http://www.w3.org/1999/xlink" x="0px" y="0px"
	 viewBox="0 0 6000 1000" style="enable-background:new 0 0 6000 1000;" xml:space="preserve">
<style type="text/css">
	.st0{fill:#FFFFFF;stroke:#292929;stroke-width:12;}
	.st1{fill:none;stroke:#292929;stroke-width:8;stroke-linecap:round;}
	.st2{fill:#985D36;}
	.st3{fill:none;stroke:#292929;stroke-width:8;}
	.st4{fill:none;stroke:#292929;stroke-width:12;}
	.st5{fill:#292929;stroke:#292929;}
	.st6{fill:none;stroke:#FFFFFF;stroke-width:5;stroke-linecap:round;}
	.st7{fill:#FFFFFF;stroke:#292929;stroke-width:8;stroke-linecap:round;}
	.st8{fill:#FFFFFF;stroke:#292929;stroke-width:5;}
	.st9{fill:#FFFFFF;stroke:#000000;stroke-width:8;}
	.st10{fill:#F87671;}
	.st11{opacity:0.4;fill:#FFFFFF;stroke:#000000;stroke-width:8;enable-background:new    ;}
	.st12{opacity:0.4;}
	.st13{clip-path:url(#SVGID_2_);}
</style>
<circle class="st0" cx="486" cy="499.4" r="285"/>
<path class="st1" d="M684,525.6c-3.8,18.9-19.5,37.4-35.2,47.7c-19.6,13-46.7,15.7-69.7,16.8c-14.4,0.7-29.7-0.3-43.8-3.1
	c-6.9-1.4-19.3-3.3-24.1-8.1"/>
<path class="st1" d="M466.8,551.2c9,3.2,16.9,4.5,24.5,10.6c3.9,3.1,7.9,6.2,11.8,9.3c6.9,5.6,9,13.7,10.6,22.1
	c2.6,13.2,3.8,29.2-1.2,41.8c-3,7.6-8.1,20.2-15.9,24.1"/>
<path class="st2" d="M790,694.4H588l18,188h156L790,694.4z"/>
<path class="st3" d="M625.5,586.9l54.5,18.5l8.5,217.5"/>
<path class="st4" d="M799.9,642.8l1-6.9h-7H587h-6.6l0.6,6.5l21,236l0.5,5.5h5.5h150.5h5.2l0.8-5.1L799.9,642.8z"/>
<path class="st5" d="M603,236.2L237.2,372c-22.3-58.4-34.7-188.1,94.6-239.6C461,80.9,566.5,180.1,603,236.2z"/>
<path class="st6" d="M332,133c-5.8,0.6-11.8,10.6-14.6,14.7c-9.1,13.1-15.1,28.8-17.8,44.2c-6.3,35.3-5,75,8.3,108.8
	c3.6,9.2,7.7,22.5,14.9,29.9c2.5,2.6,3.6,6.7,7,8.3"/>
<path class="st6" d="M333,134c17.6,1.1,35.5,3.5,51.2,11.8c15,7.9,27.6,18.9,38.2,31.7c15.4,18.6,28.4,37.8,38.2,59.7
	c5.2,11.6,9.8,24.3,12.1,36.7c0.5,2.7,1.1,5.8,2.3,8.1"/>
<path class="st7" d="M668.5,239c-21-1-63.1-1-63.1-1L240,372c0,0,17.4-2.2,25.9-3.9c21-4.2,42.2-7.9,63.5-11.2
	c82.9-12.6,165.2-25.9,247.1-44.2c27.9-6.2,56.4-12.2,83.3-21.6c15.5-5.4,31.6-10.4,39.9-25c5.9-10.3-0.6-19-10.9-22.9
	C682.3,240.9,675.6,239.4,668.5,239z"/>
<path class="st8" d="M513.5,434.7c0,15.3-3.5,29.1-8.9,38.9c-5.5,9.9-12.7,15.3-20.1,15.3s-14.6-5.4-20.1-15.3
	c-5.5-9.8-8.9-23.6-8.9-38.9c0-15.3,3.5-29.1,8.9-38.9c5.5-9.9,12.7-15.3,20.1-15.3s14.6,5.4,20.1,15.3
	C510,405.6,513.5,419.4,513.5,434.7z"/>
<path class="st5" d="M494.5,435.8c0,10.1-2.3,19.2-6.1,25.7c-3.8,6.6-8.9,10.5-14.4,10.5s-10.7-3.9-14.4-10.5
	c-3.8-6.6-6.1-15.7-6.1-25.7c0-10.1,2.3-19.2,6.1-25.7c3.8-6.6,8.9-10.5,14.4-10.5s10.7,3.9,14.4,10.5
	C492.2,416.6,494.5,425.7,494.5,435.8z"/>
<path class="st8" d="M671.5,428.7c0,15.3-3.5,29.1-8.9,38.9c-5.5,9.9-12.7,15.3-20.1,15.3s-14.6-5.4-20.1-15.3
	c-5.5-9.8-8.9-23.6-8.9-38.9c0-15.3,3.5-29.1,8.9-38.9c5.5-9.9,12.7-15.3,20.1-15.3s14.6,5.4,20.1,15.3
	C668,399.6,671.5,413.4,671.5,428.7z"/>
<path class="st5" d="M652.5,429.8c0,10.1-2.3,19.2-6.1,25.7c-3.8,6.6-8.9,10.5-14.4,10.5s-10.7-3.9-14.4-10.5
	c-3.8-6.6-6.1-15.7-6.1-25.7c0-10.1,2.3-19.2,6.1-25.7c3.8-6.6,8.9-10.5,14.4-10.5s10.7,3.9,14.4,10.5
	C650.2,410.6,652.5,419.7,652.5,429.8z"/>
<path class="st1" d="M576.8,373.7c5,30.6,3.3,66.2,26.7,89.6c6.4,6.4,13.4,15.3,7.6,24.4c-7.7,12-21.2,20.8-33.1,28.3"/>
<circle class="st0" cx="1486" cy="499.4" r="285"/>
<path class="st1" d="M1684,525.6c-3.8,18.9-19.5,37.4-35.2,47.7c-19.6,13-46.7,15.7-69.7,16.8c-14.4,0.7-29.7-0.3-43.8-3.1
	c-6.9-1.4-19.3-3.3-24.1-8.1"/>
<path class="st2" d="M1783,729h-192l15,153.4h156L1783,729z"/>
<path class="st3" d="M1625.5,586.9l54.5,18.5l8.5,217.5"/>
<path class="st4" d="M1799.9,642.8l1-6.9h-7h-207h-6.6l0.6,6.5l21,236l0.5,5.5h5.5h150.5h5.2l0.8-5.1L1799.9,642.8z"/>
<path class="st5" d="M1603,236.2L1237.2,372c-22.3-58.4-34.7-188.1,94.6-239.6C1461,80.9,1566.4,180.1,1603,236.2z"/>
<path class="st6" d="M1332,133c-5.8,0.6-11.8,10.6-14.6,14.7c-9.1,13.1-15,28.8-17.8,44.2c-6.3,35.3-5.1,75,8.3,108.8
	c3.6,9.2,7.7,22.5,14.9,29.9c2.5,2.6,3.6,6.7,7,8.3"/>
<path class="st6" d="M1333,134c17.6,1.1,35.5,3.5,51.2,11.8c15,7.9,27.6,18.9,38.2,31.7c15.4,18.6,28.4,37.8,38.2,59.7
	c5.2,11.6,9.8,24.3,12.1,36.7c0.5,2.7,1.1,5.8,2.3,8.1"/>
<path class="st7" d="M1668.5,239c-21-1-63.1-1-63.1-1L1240,372c0,0,17.4-2.2,25.9-3.9c21-4.2,42.2-7.9,63.5-11.2
	c82.9-12.6,165.2-25.9,247.1-44.2c27.9-6.2,56.4-12.2,83.3-21.6c15.5-5.4,31.6-10.4,39.9-25c5.9-10.3-0.6-19-10.9-22.9
	C1682.3,240.9,1675.6,239.4,1668.5,239z"/>
<path class="st1" d="M1576.8,373.7c5,30.6,3.3,66.2,26.7,89.6c6.4,6.4,13.4,15.3,7.6,24.4c-7.8,12-21.2,20.8-33.1,28.3"/>
<path class="st8" d="M1780.8,349.7l-1.7-0.9l0,0v0l0,0v0l0,0c0,0-0.1,0-0.2-0.1c-0.2-0.1-0.4-0.2-0.7-0.4c-0.6-0.4-1.5-0.9-2.6-1.7
	c-2.1-1.5-5-3.8-7.9-6.9c-5.7-6.1-11.3-15.3-11.3-27.7c0-24.8,23.2-45.5,52.5-45.5s52.5,20.7,52.5,45.5s-23.2,45.5-52.5,45.5
	c-5.9,0-11.6-0.8-16.9-2.4l-0.7-0.2l-0.7,0.2l-11.8,3.7l1.6-7.3L1780.8,349.7z"/>
<path class="st1" d="M1466.8,551.2c9,3.2,16.9,4.5,24.5,10.6c3.9,3.1,7.9,6.2,11.8,9.3c6.9,5.6,9,13.7,10.6,22.1
	c2.5,13.2,3.8,29.2-1.2,41.8c-3,7.6-8,20.2-15.9,24.1"/>
<path class="st8" d="M1513.5,434.7c0,15.3-3.4,29.1-8.9,38.9c-5.5,9.9-12.7,15.3-20.1,15.3s-14.6-5.4-20.1-15.3
	c-5.5-9.8-8.9-23.6-8.9-38.9c0-15.3,3.4-29.1,8.9-38.9c5.5-9.9,12.7-15.3,20.1-15.3s14.6,5.4,20.1,15.3
	C1510.1,405.6,1513.5,419.4,1513.5,434.7z"/>
<path class="st5" d="M1494.5,435.8c0,10.1-2.3,19.2-6.1,25.7c-3.8,6.6-8.9,10.5-14.4,10.5s-10.7-3.9-14.4-10.5
	c-3.7-6.6-6.1-15.7-6.1-25.7c0-10.1,2.3-19.2,6.1-25.7c3.8-6.6,8.9-10.5,14.4-10.5s10.7,3.9,14.4,10.5
	C1492.2,416.6,1494.5,425.7,1494.5,435.8z"/>
<path class="st8" d="M1671.5,428.7c0,15.3-3.4,29.1-8.9,38.9c-5.5,9.9-12.7,15.3-20.1,15.3s-14.6-5.4-20.1-15.3
	c-5.5-9.8-8.9-23.6-8.9-38.9c0-15.3,3.4-29.1,8.9-38.9c5.5-9.9,12.7-15.3,20.1-15.3s14.6,5.4,20.1,15.3
	C1668.1,399.6,1671.5,413.4,1671.5,428.7z"/>
<path class="st5" d="M1652.5,429.8c0,10.1-2.3,19.2-6.1,25.7c-3.8,6.6-8.9,10.5-14.4,10.5s-10.7-3.9-14.4-10.5
	c-3.7-6.6-6.1-15.7-6.1-25.7c0-10.1,2.3-19.2,6.1-25.7c3.8-6.6,8.9-10.5,14.4-10.5s10.7,3.9,14.4,10.5
	C1650.2,410.6,1652.5,419.7,1652.5,429.8z"/>
<circle class="st0" cx="2486" cy="499.4" r="285"/>
<path class="st1" d="M2684,525.6c-3.8,18.9-19.5,37.4-35.2,47.7c-19.6,13-46.7,15.7-69.7,16.8c-14.5,0.7-29.7-0.3-43.8-3.1
	c-6.9-1.4-19.3-3.3-24.1-8.1"/>
<path class="st2" d="M2772.5,803H2597l9,79.4h156L2772.5,803z"/>
<path class="st3" d="M2625.5,586.9l54.5,18.5l8.5,217.5"/>
<path class="st4" d="M2799.9,642.8l1-6.9h-7h-207h-6.6l0.6,6.5l21,236l0.5,5.5h5.5h150.5h5.2l0.8-5.1L2799.9,642.8z"/>
<path class="st5" d="M2603,236.2L2237.2,372c-22.3-58.4-34.7-188.1,94.6-239.6C2461,80.9,2566.4,180.1,2603,236.2z"/>
<path class="st6" d="M2332,133c-5.8,0.6-11.8,10.6-14.6,14.7c-9.1,13.1-15.1,28.8-17.8,44.2c-6.3,35.3-5,75,8.3,108.8
	c3.6,9.2,7.7,22.5,14.9,29.9c2.5,2.6,3.6,6.7,7,8.3"/>
<path class="st6" d="M2333,134c17.6,1.1,35.5,3.5,51.1,11.8c15,7.9,27.6,18.9,38.2,31.7c15.4,18.6,28.4,37.8,38.2,59.7
	c5.2,11.6,9.8,24.3,12.1,36.7c0.5,2.7,1.1,5.8,2.3,8.1"/>
<path class="st7" d="M2668.5,239c-21-1-63.1-1-63.1-1L2240,372c0,0,17.4-2.2,25.9-3.9c21-4.2,42.2-7.9,63.5-11.2
	c82.9-12.6,165.2-25.9,247.1-44.2c27.9-6.2,56.4-12.2,83.3-21.6c15.5-5.4,31.6-10.4,39.9-25c5.9-10.3-0.6-19-10.9-22.9
	C2682.3,240.9,2675.6,239.4,2668.5,239z"/>
<path class="st1" d="M2576.8,373.7c5,30.6,3.3,66.2,26.7,89.6c6.4,6.4,13.4,15.3,7.6,24.4c-7.8,12-21.2,20.8-33.1,28.3"/>
<path class="st9" d="M2789.4,259.4c1.9,1.3,3.5,2.4,4.8,3.2l-4,18.6l-1.5,6.7l6.6-2.1l28.5-9c10.3,2.9,21.3,4.5,32.7,4.5
	c58.3,0,106.5-41.4,106.5-93.7S2914.8,94,2856.5,94S2750,135.4,2750,187.7c0,26.1,11.8,45.2,23.4,57.7
	C2779.2,251.6,2785.1,256.3,2789.4,259.4z"/>
<path class="st10" d="M2898.4,169.5c-2.3-8.5-9-15.2-17.5-17.5c-8.4-2.2-17.2,0-24.9,6.2c-5.6-4.6-11.8-7-18.1-7.2
	c-6.8-0.1-13.2,2.4-18.1,7.2c-9.1,9.1-11,25.4,2.7,39.2l30.3,30.3c0.8,0.8,1.9,1.3,3.1,1.3s2.2-0.4,3.1-1.3l30.3-30.3
	C2897.7,189.1,2900.9,179,2898.4,169.5z"/>
<path class="st1" d="M2466.8,551.2c9,3.2,16.9,4.5,24.5,10.6c3.9,3.1,7.9,6.2,11.8,9.3c6.9,5.6,9,13.7,10.6,22.1
	c2.6,13.2,3.8,29.2-1.2,41.8c-3,7.6-8.1,20.2-15.9,24.1"/>
<path class="st8" d="M2513.5,434.7c0,15.3-3.4,29.1-8.9,38.9c-5.5,9.9-12.7,15.3-20.1,15.3s-14.6-5.4-20.1-15.3
	c-5.5-9.8-8.9-23.6-8.9-38.9c0-15.3,3.4-29.1,8.9-38.9c5.5-9.9,12.7-15.3,20.1-15.3s14.6,5.4,20.1,15.3
	C2510.1,405.6,2513.5,419.4,2513.5,434.7z"/>
<path class="st5" d="M2494.5,435.8c0,10.1-2.3,19.2-6.1,25.7c-3.8,6.6-8.9,10.5-14.4,10.5s-10.7-3.9-14.4-10.5
	c-3.7-6.6-6.1-15.7-6.1-25.7c0-10.1,2.3-19.2,6.1-25.7c3.8-6.6,8.9-10.5,14.4-10.5s10.7,3.9,14.4,10.5
	C2492.2,416.6,2494.5,425.7,2494.5,435.8z"/>
<path class="st8" d="M2671.5,428.7c0,15.3-3.4,29.1-8.9,38.9c-5.5,9.9-12.7,15.3-20.1,15.3s-14.6-5.4-20.1-15.3
	c-5.5-9.8-8.9-23.6-8.9-38.9c0-15.3,3.4-29.1,8.9-38.9c5.5-9.9,12.7-15.3,20.1-15.3s14.6,5.4,20.1,15.3
	C2668.1,399.6,2671.5,413.4,2671.5,428.7z"/>
<path class="st5" d="M2652.5,429.8c0,10.1-2.3,19.2-6.1,25.7c-3.8,6.6-8.9,10.5-14.4,10.5s-10.7-3.9-14.4-10.5
	c-3.7-6.6-6.1-15.7-6.1-25.7c0-10.1,2.3-19.2,6.1-25.7c3.8-6.6,8.9-10.5,14.4-10.5s10.7,3.9,14.4,10.5
	C2650.2,410.6,2652.5,419.7,2652.5,429.8z"/>
<circle class="st0" cx="3486" cy="499.4" r="285"/>
<path class="st1" d="M3684,525.6c-3.8,18.9-19.5,37.4-35.2,47.7c-19.6,13-46.7,15.7-69.7,16.8c-14.5,0.7-29.7-0.3-43.8-3.1
	c-6.9-1.4-19.3-3.3-24.1-8.1"/>
<path class="st2" d="M3770,835.5h-170l6,46.9h156L3770,835.5z"/>
<path class="st3" d="M3625.5,586.9l54.5,18.5l8.5,217.5"/>
<path class="st4" d="M3799.9,642.8l1-6.9h-7h-207h-6.6l0.6,6.5l21,236l0.5,5.5h5.5h150.5h5.2l0.8-5.1L3799.9,642.8z"/>
<path class="st5" d="M3603,236.2L3237.2,372c-22.3-58.4-34.7-188.1,94.6-239.6C3461,80.9,3566.4,180.1,3603,236.2z"/>
<path class="st6" d="M3332,133c-5.8,0.6-11.8,10.6-14.6,14.7c-9.1,13.1-15.1,28.8-17.8,44.2c-6.3,35.3-5,75,8.3,108.8
	c3.6,9.2,7.7,22.5,14.9,29.9c2.5,2.6,3.6,6.7,7,8.3"/>
<path class="st6" d="M3333,134c17.6,1.1,35.5,3.5,51.1,11.8c15,7.9,27.6,18.9,38.2,31.7c15.4,18.6,28.4,37.8,38.2,59.7
	c5.2,11.6,9.8,24.3,12.1,36.7c0.5,2.7,1.1,5.8,2.3,8.1"/>
<path class="st7" d="M3668.5,239c-21-1-63.1-1-63.1-1L3240,372c0,0,17.4-2.2,25.9-3.9c21-4.2,42.2-7.9,63.5-11.2
	c82.9-12.6,165.2-25.9,247.1-44.2c27.9-6.2,56.4-12.2,83.3-21.6c15.5-5.4,31.6-10.4,39.9-25c5.9-10.3-0.6-19-10.9-22.9
	C3682.3,240.9,3675.6,239.4,3668.5,239z"/>
<path class="st1" d="M3576.8,373.7c5,30.6,3.3,66.2,26.7,89.6c6.4,6.4,13.4,15.3,7.6,24.4c-7.8,12-21.2,20.8-33.1,28.3"/>
<path class="st9" d="M3789.4,259.4c1.9,1.3,3.5,2.4,4.8,3.2l-4,18.6l-1.5,6.7l6.6-2.1l28.5-9c10.3,2.9,21.3,4.5,32.7,4.5
	c58.3,0,106.5-41.4,106.5-93.7S3914.8,94,3856.5,94S3750,135.4,3750,187.7c0,26.1,11.8,45.2,23.4,57.7
	C3779.2,251.6,3785.1,256.3,3789.4,259.4z"/>
<path class="st10" d="M3898.4,169.5c-2.3-8.5-9-15.2-17.5-17.5c-8.4-2.2-17.2,0-24.9,6.2c-5.6-4.6-11.8-7-18.1-7.2
	c-6.8-0.1-13.2,2.4-18.1,7.2c-9.1,9.1-11,25.4,2.7,39.2l30.3,30.3c0.8,0.8,1.9,1.3,3.1,1.3s2.2-0.4,3.1-1.3l30.3-30.3
	C3897.7,189.1,3900.9,179,3898.4,169.5z"/>
<path class="st1" d="M3466.8,551.2c9,3.2,16.9,4.5,24.5,10.6c3.9,3.1,7.9,6.2,11.8,9.3c6.9,5.6,9,13.7,10.6,22.1
	c2.6,13.2,3.8,29.2-1.2,41.8c-3,7.6-8.1,20.2-15.9,24.1"/>
<path class="st8" d="M3513.5,434.7c0,15.3-3.4,29.1-8.9,38.9c-5.5,9.9-12.7,15.3-20.1,15.3s-14.6-5.4-20.1-15.3
	c-5.5-9.8-8.9-23.6-8.9-38.9c0-15.3,3.4-29.1,8.9-38.9c5.5-9.9,12.7-15.3,20.1-15.3s14.6,5.4,20.1,15.3
	C3510.1,405.6,3513.5,419.4,3513.5,434.7z"/>
<path class="st5" d="M3494.5,435.8c0,10.1-2.3,19.2-6.1,25.7c-3.8,6.6-8.9,10.5-14.4,10.5s-10.7-3.9-14.4-10.5
	c-3.7-6.6-6.1-15.7-6.1-25.7c0-10.1,2.3-19.2,6.1-25.7c3.8-6.6,8.9-10.5,14.4-10.5s10.7,3.9,14.4,10.5
	C3492.2,416.6,3494.5,425.7,3494.5,435.8z"/>
<path class="st8" d="M3671.5,428.7c0,15.3-3.4,29.1-8.9,38.9c-5.5,9.9-12.7,15.3-20.1,15.3s-14.6-5.4-20.1-15.3
	c-5.5-9.8-8.9-23.6-8.9-38.9c0-15.3,3.4-29.1,8.9-38.9c5.5-9.9,12.7-15.3,20.1-15.3s14.6,5.4,20.1,15.3
	C3668.1,399.6,3671.5,413.4,3671.5,428.7z"/>
<path class="st5" d="M3652.5,429.8c0,10.1-2.3,19.2-6.1,25.7c-3.8,6.6-8.9,10.5-14.4,10.5s-10.7-3.9-14.4-10.5
	c-3.7-6.6-6.1-15.7-6.1-25.7c0-10.1,2.3-19.2,6.1-25.7c3.8-6.6,8.9-10.5,14.4-10.5s10.7,3.9,14.4,10.5
	C3650.2,410.6,3652.5,419.7,3652.5,429.8z"/>
<circle class="st0" cx="4486" cy="499.4" r="285"/>
<path class="st1" d="M4684,525.6c-3.8,18.9-19.5,37.4-35.2,47.7c-19.6,13-46.7,15.7-69.7,16.8c-14.4,0.7-29.7-0.3-43.8-3.1
	c-6.9-1.4-19.3-3.3-24.1-8.1"/>
<path class="st2" d="M4940,870h-159l3,12.4h156V870z"/>
<path class="st3" d="M4803.5,586.9l54.5,18.5l8.5,217.5"/>
<path class="st4" d="M4977.9,642.8l1-6.9h-7h-207h-6.6l0.6,6.5l21,236l0.5,5.5h5.5h150.5h5.2l0.8-5.1L4977.9,642.8z"/>
<path class="st5" d="M4603,236.2L4237.2,372c-22.4-58.4-34.7-188.1,94.6-239.6C4461,80.9,4566.5,180.1,4603,236.2z"/>
<path class="st6" d="M4332,133c-5.8,0.6-11.8,10.6-14.6,14.7c-9.1,13.1-15,28.8-17.8,44.2c-6.3,35.3-5,75,8.3,108.8
	c3.6,9.2,7.7,22.5,14.9,29.9c2.5,2.6,3.6,6.7,7,8.3"/>
<path class="st6" d="M4333,134c17.6,1.1,35.5,3.5,51.1,11.8c15,7.9,27.6,18.9,38.2,31.7c15.4,18.6,28.4,37.8,38.2,59.7
	c5.2,11.6,9.8,24.3,12.1,36.7c0.5,2.7,1.1,5.8,2.3,8.1"/>
<path class="st7" d="M4668.5,239c-21-1-63.1-1-63.1-1L4240,372c0,0,17.4-2.2,25.9-3.9c21-4.2,42.2-7.9,63.5-11.2
	c82.9-12.6,165.2-25.9,247.1-44.2c27.9-6.2,56.4-12.2,83.3-21.6c15.5-5.4,31.6-10.4,39.9-25c5.9-10.3-0.6-19-10.9-22.9
	C4682.3,240.9,4675.6,239.4,4668.5,239z"/>
<path class="st1" d="M4576.8,373.7c5,30.6,3.3,66.2,26.7,89.6c6.4,6.4,13.4,15.3,7.6,24.4c-7.8,12-21.2,20.8-33.1,28.3"/>
<path class="st8" d="M4513.5,434.7c0,15.3-3.5,29.1-8.9,38.9c-5.5,9.9-12.7,15.3-20.1,15.3s-14.6-5.4-20.1-15.3
	c-5.5-9.8-8.9-23.6-8.9-38.9c0-15.3,3.5-29.1,8.9-38.9c5.5-9.9,12.7-15.3,20.1-15.3s14.6,5.4,20.1,15.3
	C4510,405.6,4513.5,419.4,4513.5,434.7z"/>
<path class="st5" d="M4494.5,435.8c0,10.1-2.3,19.2-6.1,25.7c-3.8,6.6-8.9,10.5-14.4,10.5s-10.7-3.9-14.4-10.5
	c-3.7-6.6-6.1-15.7-6.1-25.7c0-10.1,2.3-19.2,6.1-25.7c3.8-6.6,8.9-10.5,14.4-10.5s10.7,3.9,14.4,10.5
	C4492.2,416.6,4494.5,425.7,4494.5,435.8z"/>
<path class="st8" d="M4671.5,428.7c0,15.3-3.5,29.1-8.9,38.9c-5.5,9.9-12.7,15.3-20.1,15.3s-14.6-5.4-20.1-15.3
	c-5.5-9.8-8.9-23.6-8.9-38.9c0-15.3,3.5-29.1,8.9-38.9c5.5-9.9,12.7-15.3,20.1-15.3s14.6,5.4,20.1,15.3
	C4668,399.6,4671.5,413.4,4671.5,428.7z"/>
<path class="st5" d="M4652.5,429.8c0,10.1-2.3,19.2-6.1,25.7c-3.8,6.6-8.9,10.5-14.4,10.5s-10.7-3.9-14.4-10.5
	c-3.7-6.6-6.1-15.7-6.1-25.7c0-10.1,2.3-19.2,6.1-25.7c3.8-6.6,8.9-10.5,14.4-10.5s10.7,3.9,14.4,10.5
	C4650.2,410.6,4652.5,419.7,4652.5,429.8z"/>
<path class="st11" d="M4789.4,259.4c1.9,1.3,3.5,2.4,4.8,3.2l-4,18.6l-1.5,6.7l6.6-2.1l28.5-9c10.3,2.9,21.3,4.5,32.7,4.5
	c58.3,0,106.5-41.4,106.5-93.7S4914.8,94,4856.5,94S4750,135.4,4750,187.7c0,26.1,11.8,45.2,23.4,57.7
	C4779.2,251.6,4785.1,256.3,4789.4,259.4z"/>
<g class="st12">
	<path class="st10" d="M4898.4,169.5c-2.3-8.5-9-15.2-17.5-17.5c-8.4-2.2-17.2,0-24.9,6.2c-5.6-4.6-11.8-7-18-7.2
		c-6.9-0.1-13.2,2.4-18.1,7.2c-9.1,9.1-11,25.4,2.7,39.2l30.3,30.3c0.8,0.8,2,1.3,3.1,1.3s2.2-0.4,3.1-1.3l30.3-30.3
		C4897.7,189.1,4900.9,179,4898.4,169.5z"/>
</g>
<g>
	<defs>
		<rect id="SVGID_1_" x="5000" y="0" width="1000" height="1000"/>
	</defs>
	<clipPath id="SVGID_2_">
		<use xlink:href="#SVGID_1_"  style="overflow:visible;"/>
	</clipPath>
	<g class="st13">
		<circle class="st0" cx="5486" cy="499.4" r="285"/>
		<path class="st5" d="M5603,236.2L5237.2,372c-22.4-58.4-34.7-188.1,94.6-239.6C5461,80.9,5566.5,180.1,5603,236.2z"/>
		<path class="st6" d="M5332,133c-5.8,0.6-11.8,10.6-14.6,14.7c-9.1,13.1-15,28.8-17.8,44.2c-6.3,35.3-5,75,8.3,108.8
			c3.6,9.2,7.7,22.5,14.9,29.9c2.5,2.6,3.6,6.7,7,8.3"/>
		<path class="st6" d="M5333,134c17.6,1.1,35.5,3.5,51.1,11.8c15,7.9,27.6,18.9,38.2,31.7c15.4,18.6,28.4,37.8,38.2,59.7
			c5.2,11.6,9.8,24.3,12.1,36.7c0.5,2.7,1.1,5.8,2.3,8.1"/>
		<path class="st7" d="M5668.5,239c-21-1-63.1-1-63.1-1L5240,372c0,0,17.4-2.2,25.9-3.9c21-4.2,42.2-7.9,63.5-11.2
			c82.9-12.6,165.2-25.9,247.1-44.2c27.9-6.2,56.4-12.2,83.3-21.6c15.5-5.4,31.6-10.4,39.9-25c5.9-10.3-0.6-19-10.9-22.9
			C5682.3,240.9,5675.6,239.4,5668.5,239z"/>
		<path class="st1" d="M5576.8,373.7c5,30.6,3.3,66.2,26.7,89.6c6.4,6.4,13.4,15.3,7.6,24.4c-7.8,12-21.2,20.8-33.1,28.3"/>
		<path class="st8" d="M5513.5,434.7c0,15.3-3.5,29.1-8.9,38.9c-5.5,9.9-12.7,15.3-20.1,15.3s-14.6-5.4-20.1-15.3
			c-5.5-9.8-8.9-23.6-8.9-38.9c0-15.3,3.5-29.1,8.9-38.9c5.5-9.9,12.7-15.3,20.1-15.3s14.6,5.4,20.1,15.3
			C5510,405.6,5513.5,419.4,5513.5,434.7z"/>
		<path class="st5" d="M5494.5,435.8c0,10.1-2.3,19.2-6.1,25.7c-3.8,6.6-8.9,10.5-14.4,10.5s-10.7-3.9-14.4-10.5
			c-3.7-6.6-6.1-15.7-6.1-25.7c0-10.1,2.3-19.2,6.1-25.7c3.8-6.6,8.9-10.5,14.4-10.5s10.7,3.9,14.4,10.5
			C5492.2,416.6,5494.5,425.7,5494.5,435.8z"/>
		<path class="st8" d="M5671.5,428.7c0,15.3-3.5,29.1-8.9,38.9c-5.5,9.9-12.7,15.3-20.1,15.3s-14.6-5.4-20.1-15.3
			c-5.5-9.8-8.9-23.6-8.9-38.9c0-15.3,3.5-29.1,8.9-38.9c5.5-9.9,12.7-15.3,20.1-15.3s14.6,5.4,20.1,15.3
			C5668,399.6,5671.5,413.4,5671.5,428.7z"/>
		<path class="st5" d="M5652.5,429.8c0,10.1-2.3,19.2-6.1,25.7c-3.8,6.6-8.9,10.5-14.4,10.5s-10.7-3.9-14.4-10.5
			c-3.7-6.6-6.1-15.7-6.1-25.7c0-10.1,2.3-19.2,6.1-25.7c3.8-6.6,8.9-10.5,14.4-10.5s10.7,3.9,14.4,10.5
			C5650.2,410.6,5652.5,419.7,5652.5,429.8z"/>
		<path class="st1" d="M5684,525.6c-3.8,18.9-19.5,37.4-35.2,47.7c-19.6,13-46.7,15.7-69.7,16.8c-14.4,0.7-29.7-0.3-43.8-3.1
			c-6.9-1.4-19.3-3.3-24.1-8.1"/>
	</g>
</g>
</svg>
